<svg xmlns="http://www.w3.org/2000/svg" xmlns:xlink="http://www.w3.org/1999/xlink" width="1032" zoomAndPan="magnify" viewBox="0 0 774 582" height="776" preserveAspectRatio="xMidYMid meet" version="1.0"><defs><clipPath id="5dbacc7914"><path d="M 164.070312 88.339844 L 586.425781 88.339844 L 586.425781 524.089844 L 164.070312 524.089844 Z M 164.070312 88.339844 " clip-rule="nonzero"/></clipPath><clipPath id="f3f45e5f92"><path d="M 170 88.339844 L 584 88.339844 L 584 524 L 170 524 Z M 170 88.339844 " clip-rule="nonzero"/></clipPath></defs><g clip-path="url(#5dbacc7914)"><path fill="#f5ba53" d="M 375.378906 88.359375 C 445.710938 92.140625 587.527344 235.082031 586.425781 255.429688 C 583.992188 300.628906 408.492188 519.386719 374.066406 524.058594 C 346.460938 527.824219 166.824219 379.695312 164.089844 343.75 C 161.386719 308.199219 375.378906 88.359375 375.378906 88.359375 " fill-opacity="1" fill-rule="evenodd"/></g><path fill="#fef7e4" d="M 277.195312 414.699219 L 367.636719 491.082031 L 391.332031 463.113281 L 301.375 388.296875 Z M 488.167969 314.71875 L 454.042969 355.726562 L 323.722656 243.71875 L 358.558594 204.984375 L 488.167969 314.71875 " fill-opacity="1" fill-rule="evenodd"/><path fill="#d13123" d="M 256.800781 303.4375 C 256.785156 303.453125 256.785156 303.453125 256.785156 303.472656 Z M 256.800781 303.4375 C 256.820312 303.402344 256.855469 303.347656 256.855469 303.347656 L 256.835938 303.367188 C 256.820312 303.402344 256.820312 303.417969 256.800781 303.4375 Z M 259.039062 307.46875 C 258.222656 306.207031 257.496094 305.035156 257.085938 304.09375 C 256.996094 303.898438 256.835938 303.632812 256.785156 303.472656 C 256.75 303.382812 256.765625 303.328125 256.835938 303.328125 C 256.835938 303.328125 256.835938 303.328125 256.855469 303.347656 C 257.175781 302.761719 257.9375 302.316406 258.683594 301.855469 C 259.75 301.199219 260.871094 300.558594 261.617188 299.828125 C 262.21875 299.242188 262.644531 298.640625 262.734375 297.929688 C 262.839844 297.503906 262.574219 297.074219 262.148438 296.988281 C 261.722656 296.898438 261.296875 297.164062 261.207031 297.589844 C 261.03125 298.160156 260.371094 298.480469 259.679688 298.835938 C 258.488281 299.457031 257.03125 299.972656 255.964844 300.664062 C 255.238281 301.125 254.707031 301.714844 254.367188 302.335938 C 254.136719 302.761719 254.066406 303.367188 254.207031 304.074219 C 254.332031 304.714844 254.652344 305.515625 255.148438 306.386719 C 255.859375 307.613281 256.925781 309.035156 258.046875 310.402344 C 259.980469 312.746094 262.113281 314.914062 262.824219 315.765625 C 263.109375 316.140625 263.625 316.210938 263.980469 315.925781 C 264.351562 315.660156 264.421875 315.144531 264.136719 314.789062 C 263.410156 313.671875 260.976562 310.417969 259.039062 307.46875 Z M 307.820312 313.953125 C 307.378906 313.261719 306.773438 312.496094 306.097656 311.609375 L 303.613281 308.570312 C 303.628906 308.570312 303.648438 308.605469 303.628906 308.605469 C 303.417969 308.730469 303.433594 308.019531 303.378906 307.71875 C 303.292969 307.292969 303.183594 306.953125 303.097656 306.828125 C 302.867188 306.527344 302.632812 306.386719 302.386719 306.421875 C 302.191406 306.421875 301.816406 306.421875 301.585938 306.882812 C 301.390625 307.183594 301.425781 307.558594 301.640625 307.824219 C 301.65625 308.109375 301.640625 308.484375 301.65625 308.800781 C 301.691406 309.140625 301.800781 309.441406 301.90625 309.636719 C 302.226562 310.257812 302.546875 310.84375 302.882812 311.449219 C 303.238281 312.035156 303.59375 312.605469 303.96875 313.171875 C 304.375 313.796875 304.730469 314.347656 305.085938 314.859375 C 305.496094 315.449219 305.867188 315.945312 306.152344 316.40625 C 306.523438 317.046875 306.808594 317.507812 306.667969 318.042969 C 306.453125 318.875 305.65625 319.710938 304.144531 320.867188 C 303.769531 321.097656 303.664062 321.613281 303.914062 322.003906 C 304.164062 322.375 304.660156 322.484375 305.050781 322.234375 C 306.488281 321.453125 307.449219 320.761719 308.089844 320.066406 C 308.957031 319.125 309.207031 318.148438 309.101562 317.082031 C 309.011719 316.195312 308.601562 315.164062 307.820312 313.953125 Z M 296.453125 328.238281 C 296.042969 328.238281 295.707031 328.542969 295.671875 328.949219 C 295.492188 329.003906 295.03125 328.914062 294.746094 328.914062 C 294.160156 328.949219 293.558594 329.023438 293.113281 329.199219 C 292.117188 329.609375 291.140625 330.050781 290.164062 330.515625 C 289.1875 330.957031 288.210938 331.4375 287.25 331.9375 C 286.308594 332.433594 285.101562 333.285156 283.820312 334.210938 C 282.792969 334.957031 281.726562 335.738281 280.695312 336.378906 C 279.808594 336.910156 278.972656 337.371094 278.242188 337.460938 C 278.242188 337.460938 278.261719 337.460938 278.261719 337.480469 C 278.226562 337.65625 277.90625 337.300781 277.691406 337.105469 C 276.980469 336.484375 276.199219 335.453125 275.4375 334.300781 C 273.625 331.582031 271.867188 328.1875 271.226562 327.101562 C 271.011719 326.695312 270.515625 326.535156 270.109375 326.746094 C 269.714844 326.960938 269.558594 327.476562 269.769531 327.867188 C 270.515625 329.394531 272.898438 335.117188 275.097656 337.996094 C 275.6875 338.757812 276.273438 339.328125 276.824219 339.664062 C 277.355469 340.003906 277.886719 340.125 278.367188 340.089844 C 279.46875 340.039062 280.785156 339.523438 282.117188 338.742188 C 283.234375 338.082031 284.371094 337.210938 285.457031 336.378906 C 286.609375 335.488281 287.640625 334.617188 288.476562 334.121094 C 289.558594 333.445312 290.644531 332.804688 291.746094 332.167969 C 292.472656 331.757812 293.203125 331.332031 293.949219 330.941406 C 294.265625 330.761719 294.746094 330.726562 295.191406 330.675781 C 295.707031 330.585938 296.203125 330.480469 296.523438 330.285156 C 296.96875 329.980469 297.269531 329.609375 297.234375 329.023438 C 297.234375 328.578125 296.878906 328.222656 296.453125 328.238281 Z M 268.277344 302.351562 L 268.277344 302.371094 Z M 272.503906 312.355469 C 273.128906 313.171875 273.785156 313.972656 274.460938 314.753906 C 276.449219 317.136719 278.527344 319.410156 280.570312 321.753906 C 280.855469 322.09375 281.371094 322.164062 281.726562 321.878906 C 282.082031 321.59375 282.152344 321.078125 281.867188 320.722656 C 280.625 318.949219 279.398438 317.171875 278.15625 315.410156 C 277.320312 314.222656 276.484375 313.066406 275.632812 311.894531 C 275.257812 311.394531 274.886719 310.898438 274.511719 310.417969 C 273.945312 309.691406 273.359375 308.980469 272.773438 308.25 L 269.539062 304.289062 C 269.46875 304.199219 268.492188 303.292969 268.207031 302.742188 L 268.222656 302.691406 C 268.277344 302.582031 268.296875 302.476562 268.277344 302.371094 C 268.277344 302.441406 268.207031 302.582031 268.207031 302.617188 C 268.207031 302.636719 268.1875 302.671875 268.1875 302.691406 C 268.117188 302.53125 268.117188 302.40625 268.242188 302.351562 C 268.261719 302.335938 268.277344 302.335938 268.277344 302.351562 C 268.261719 302.066406 268.082031 301.785156 267.78125 301.675781 C 267.371094 301.480469 267.085938 301.675781 266.890625 301.835938 C 266.769531 301.945312 266.554688 302.316406 266.714844 302.902344 C 266.890625 303.5625 267.78125 305.25 267.851562 305.390625 C 268.207031 306.011719 268.5625 306.617188 268.933594 307.222656 C 269.484375 308.128906 270.089844 308.980469 270.675781 309.851562 C 271.28125 310.6875 271.867188 311.539062 272.503906 312.355469 Z M 279.292969 300.34375 C 279.183594 300.023438 279.007812 299.652344 278.4375 299.667969 C 277.996094 299.632812 277.621094 299.972656 277.605469 300.398438 C 277.585938 300.453125 277.585938 300.503906 277.605469 300.558594 C 277.480469 300.734375 277.300781 301.003906 277.214844 301.179688 C 277.019531 301.570312 277.054688 301.945312 277.160156 302.265625 C 277.390625 302.972656 277.726562 303.648438 278.082031 304.308594 C 278.597656 305.214844 279.203125 306.082031 279.753906 306.972656 C 280.214844 307.664062 280.675781 308.339844 281.175781 308.996094 C 281.65625 309.65625 282.167969 310.292969 282.703125 310.917969 C 283.679688 312.054688 284.710938 313.15625 285.703125 314.273438 C 287.195312 315.925781 288.671875 317.578125 289.914062 319.390625 C 290.144531 319.78125 290.660156 319.90625 291.035156 319.675781 C 291.425781 319.445312 291.566406 318.949219 291.320312 318.558594 C 290.304688 316.621094 289.097656 314.773438 287.785156 312.996094 C 286.644531 311.433594 285.4375 309.902344 284.230469 308.410156 C 283.429688 307.433594 282.578125 306.492188 281.8125 305.496094 C 281.191406 304.714844 280.5 303.953125 279.894531 303.117188 C 279.558594 302.671875 279.222656 302.191406 278.953125 301.714844 C 279.042969 301.480469 279.238281 301.054688 279.273438 300.894531 C 279.328125 300.683594 279.34375 300.488281 279.292969 300.34375 Z M 279.84375 292.617188 L 279.84375 292.582031 C 279.84375 292.582031 279.84375 292.527344 279.824219 292.542969 L 279.824219 292.5625 Z M 279.308594 293.503906 C 279.078125 293.574219 278.828125 293.539062 278.632812 293.414062 C 278.917969 293.628906 279.222656 293.539062 279.308594 293.503906 Z M 298.832031 317.738281 C 299.082031 318.113281 298.957031 318.628906 298.585938 318.875 C 298.191406 319.109375 297.679688 319 297.445312 318.609375 C 296.238281 316.867188 294.90625 315.214844 293.539062 313.582031 C 291.621094 311.273438 289.558594 309.085938 287.605469 306.8125 C 286.273438 305.285156 285.011719 303.703125 283.769531 302.121094 C 283.023438 301.125 282.277344 300.148438 281.546875 299.136719 C 280.820312 298.125 280.125 297.09375 279.453125 296.027344 C 279.132812 295.53125 278.617188 293.984375 278.421875 293.308594 C 278.367188 293.183594 278.332031 293.078125 278.332031 293.023438 C 278.011719 291.851562 279.648438 292.171875 279.734375 292.347656 C 279.769531 292.402344 279.808594 292.472656 279.824219 292.542969 C 279.808594 292.542969 279.824219 292.582031 279.84375 292.617188 C 279.878906 292.777344 279.859375 292.917969 279.789062 293.058594 C 279.808594 293.007812 279.894531 292.863281 279.84375 292.617188 C 279.859375 292.667969 279.894531 292.703125 279.914062 292.757812 C 280.164062 293.292969 280.714844 294.535156 281.015625 294.90625 L 285.792969 300.488281 C 286.878906 301.785156 288.03125 303.0625 289.152344 304.378906 C 290.820312 306.351562 292.4375 308.394531 294 310.472656 C 295.757812 312.800781 297.394531 315.214844 298.832031 317.738281 Z M 267.441406 294.234375 C 267.121094 293.914062 267.085938 293.398438 267.390625 293.058594 C 268.863281 291.335938 271.316406 288.476562 273.890625 286.273438 C 275.898438 284.566406 277.996094 283.289062 279.769531 282.96875 C 280.179688 282.898438 280.855469 282.96875 281.65625 283.375 C 282.632812 283.855469 284.035156 284.832031 285.546875 286.078125 C 287.125 287.410156 288.847656 289.027344 290.375 290.574219 C 292.527344 292.777344 294.265625 294.835938 294.730469 295.691406 C 294.960938 296.0625 294.835938 296.542969 294.460938 296.773438 C 294.109375 297.003906 293.609375 296.878906 293.398438 296.507812 C 292.722656 295.53125 289.738281 292.9375 286.71875 290.464844 C 284.921875 288.992188 283.109375 287.570312 281.691406 286.609375 C 280.960938 286.128906 280.089844 285.277344 280.019531 285.652344 C 280.019531 285.667969 280.019531 285.667969 280.019531 285.667969 C 278.617188 285.917969 277 286.929688 275.367188 288.136719 C 272.753906 290.09375 270.160156 292.617188 268.613281 294.179688 C 268.3125 294.515625 267.78125 294.535156 267.441406 294.234375 " fill-opacity="1" fill-rule="nonzero"/><path fill="#3b435f" d="M 451.503906 376.871094 C 451.464844 377.011719 451.574219 376.976562 451.699219 376.921875 L 451.625 376.871094 C 451.574219 376.886719 451.539062 376.886719 451.503906 376.871094 Z M 461.007812 381.171875 C 461.058594 381.117188 460.988281 381.0625 460.863281 381.027344 C 460.898438 381.171875 460.933594 381.257812 461.007812 381.171875 Z M 460.863281 380.992188 C 460.917969 380.796875 460.933594 380.65625 460.792969 380.65625 C 460.792969 380.65625 460.792969 380.691406 460.792969 380.707031 C 460.8125 380.761719 460.828125 380.886719 460.863281 380.992188 Z M 463.261719 380.210938 C 463.316406 380.65625 463.261719 381.257812 462.976562 381.933594 C 462.425781 383.285156 461.113281 385.097656 460.792969 385.949219 C 460.652344 386.394531 460.207031 386.644531 459.761719 386.519531 C 459.335938 386.394531 459.085938 385.933594 459.210938 385.488281 C 459.371094 384.6875 460.152344 383.035156 460.597656 381.667969 C 460.667969 381.472656 460.773438 381.222656 460.847656 381.011719 C 460.703125 380.976562 460.507812 380.9375 460.402344 380.886719 C 459.78125 380.636719 459.125 380.40625 458.945312 380.351562 C 458.644531 380.210938 458.144531 380.015625 457.578125 379.765625 C 456.957031 379.480469 456.226562 379.144531 455.5 378.808594 C 454.203125 378.167969 452.886719 377.511719 452.089844 377.136719 C 451.945312 377.066406 451.804688 376.976562 451.699219 376.921875 C 451.769531 376.886719 451.820312 376.851562 451.875 376.816406 C 451.804688 376.851562 451.714844 376.871094 451.625 376.871094 C 451.554688 376.835938 451.503906 376.816406 451.503906 376.851562 L 451.503906 376.871094 C 451.269531 376.851562 451.074219 376.746094 450.933594 376.550781 C 450.792969 376.410156 450.792969 376.230469 450.773438 376.105469 C 450.738281 375.839844 450.898438 375.644531 451.113281 375.429688 C 451.183594 375.378906 451.394531 375.269531 451.769531 375.289062 C 451.910156 375.308594 452.230469 375.378906 452.65625 375.464844 C 453.6875 375.714844 455.515625 376.195312 457.152344 376.710938 C 458.394531 377.121094 459.496094 377.582031 460.066406 377.8125 C 460.332031 377.9375 461.644531 378.46875 462.320312 378.96875 C 462.90625 379.375 463.210938 379.875 463.261719 380.210938 Z M 360.882812 373.476562 C 360.992188 373.050781 361.117188 372.25 361.292969 371.523438 C 361.347656 371.308594 361.382812 371.097656 361.453125 370.917969 C 361.488281 370.847656 361.488281 370.757812 361.542969 370.703125 C 361.878906 370.4375 361.933594 369.941406 361.648438 369.601562 C 361.382812 369.265625 360.882812 369.210938 360.546875 369.496094 C 360.246094 369.691406 359.960938 370.082031 359.695312 370.5625 C 359.304688 371.253906 359 372.199219 358.769531 372.640625 C 358.628906 372.945312 358.378906 373.316406 358.148438 373.742188 C 357.792969 374.347656 357.4375 375.058594 357.191406 375.699219 C 356.90625 376.480469 356.851562 377.242188 356.941406 377.792969 C 357.03125 378.222656 357.226562 378.664062 357.582031 379.054688 C 357.988281 379.535156 358.59375 380.03125 359.355469 380.425781 C 361.292969 381.453125 364.117188 382.164062 365.21875 382.46875 C 365.644531 382.628906 366.125 382.394531 366.265625 381.96875 C 366.425781 381.542969 366.195312 381.082031 365.769531 380.921875 C 364.933594 380.53125 362.945312 379.660156 361.347656 378.664062 C 360.882812 378.378906 360.476562 378.097656 360.136719 377.8125 C 359.90625 377.617188 359.695312 377.457031 359.660156 377.261719 C 359.605469 376.976562 359.765625 376.585938 359.90625 376.160156 C 360.226562 375.164062 360.6875 374.097656 360.882812 373.476562 Z M 461.078125 392.238281 C 460.703125 392.042969 460.226562 392.1875 460.027344 392.578125 C 459.976562 392.703125 459.941406 392.824219 459.941406 392.933594 C 459.816406 393.039062 459.636719 393.164062 459.496094 393.253906 C 459.210938 393.484375 458.980469 393.75 458.839844 393.980469 L 457.097656 397.125 L 455.535156 400.289062 C 455.125 401.140625 454.804688 401.816406 454.488281 402.3125 C 454.273438 402.667969 454.113281 402.9375 453.847656 403.09375 C 453.171875 403.523438 452.25 403.449219 450.523438 403.363281 C 450.027344 403.34375 449.546875 403.328125 449.050781 403.328125 C 448.535156 403.328125 448.054688 403.34375 447.539062 403.378906 C 447.097656 403.363281 446.722656 403.734375 446.722656 404.195312 C 446.707031 404.640625 447.078125 405.015625 447.523438 405.015625 L 450.3125 405.40625 C 451.644531 405.636719 452.621094 405.761719 453.386719 405.742188 C 454.058594 405.726562 454.59375 405.566406 455.074219 405.316406 C 455.785156 404.980469 456.371094 404.394531 456.992188 403.398438 C 457.3125 402.898438 457.632812 402.261719 458.023438 401.480469 C 458.21875 401.035156 458.414062 400.589844 458.609375 400.144531 C 458.875 399.472656 459.125 398.796875 459.390625 398.136719 L 460.578125 394.851562 C 460.6875 394.566406 461.128906 394.230469 461.324219 393.945312 C 461.609375 393.570312 461.71875 393.214844 461.644531 392.949219 C 461.574219 392.703125 461.484375 392.398438 461.078125 392.238281 Z M 455.089844 390.585938 C 455.464844 389.433594 455.570312 388.1875 455.375 386.890625 C 455.125 385.417969 454.433594 384.191406 453.402344 383.320312 C 452.425781 382.503906 451.164062 381.988281 449.777344 381.882812 C 449.335938 381.863281 448.910156 381.84375 448.464844 381.917969 C 448.019531 381.96875 447.59375 382.078125 447.167969 382.253906 C 446.917969 382.359375 446.242188 383 446.101562 383.355469 C 445.871094 383.890625 446.066406 384.261719 446.296875 384.421875 C 446.367188 384.476562 446.476562 384.5625 446.617188 384.597656 C 446.582031 384.652344 446.527344 384.707031 446.476562 384.757812 C 446.121094 385.1875 445.835938 385.578125 445.710938 385.773438 C 445.425781 386.324219 445.105469 386.839844 444.859375 387.40625 C 444.699219 387.78125 444.554688 388.152344 444.433594 388.542969 C 444.183594 389.273438 443.988281 390.019531 443.808594 390.765625 C 443.613281 391.511719 443.472656 392.257812 443.332031 393.019531 C 443.207031 393.449219 443.4375 393.910156 443.882812 394.050781 C 444.308594 394.195312 444.769531 393.964844 444.910156 393.519531 C 445.335938 392.578125 445.835938 391.6875 446.296875 390.746094 C 446.617188 390.125 446.9375 389.519531 447.222656 388.898438 C 447.378906 388.5625 447.523438 388.222656 447.648438 387.886719 C 447.789062 387.53125 447.894531 387.175781 448.003906 386.839844 C 448.125 386.445312 448.675781 385.34375 448.910156 384.582031 C 449.015625 384.261719 449.015625 384.066406 449.03125 383.871094 C 449.191406 383.890625 449.351562 383.890625 449.511719 383.925781 C 450.402344 384.101562 451.164062 384.527344 451.75 385.132812 C 452.285156 385.683594 452.621094 386.394531 452.710938 387.246094 C 452.816406 388.136719 452.691406 388.96875 452.460938 389.753906 C 452.070312 391.03125 451.34375 392.167969 450.367188 393.109375 C 448.640625 394.746094 446.296875 395.8125 444.003906 395.8125 C 443.5625 395.773438 443.171875 396.128906 443.152344 396.574219 C 443.117188 397.035156 443.472656 397.425781 443.917969 397.445312 C 446.707031 397.746094 449.726562 396.769531 451.980469 394.957031 C 453.421875 393.804688 454.523438 392.292969 455.089844 390.585938 Z M 435.78125 379.324219 L 435.796875 379.304688 L 435.78125 379.304688 C 435.761719 379.304688 435.761719 379.304688 435.78125 379.324219 Z M 433.167969 392.292969 C 433.117188 392.433594 433.097656 392.523438 433.1875 392.523438 C 433.3125 392.523438 433.257812 392.417969 433.167969 392.292969 Z M 435.832031 379.339844 C 435.90625 379.359375 435.957031 379.394531 435.992188 379.445312 L 435.941406 379.410156 C 435.921875 379.394531 435.90625 379.375 435.886719 379.359375 Z M 436.066406 379.5 C 436.171875 379.554688 436.152344 379.640625 436.1875 379.730469 C 436.207031 379.730469 436.207031 379.730469 436.222656 379.730469 C 436.1875 379.640625 436.136719 379.570312 436.066406 379.5 Z M 443.507812 382.199219 C 443.011719 382.199219 442.140625 382.234375 441.109375 382.21875 C 440.59375 382.199219 440.0625 382.199219 439.527344 382.128906 C 439.171875 382.09375 438.816406 382.039062 438.480469 381.953125 C 437.914062 381.828125 437.398438 381.648438 436.953125 381.488281 C 436.828125 381.453125 436.757812 381.417969 436.652344 381.382812 C 436.277344 382.75 435.921875 384.136719 435.53125 385.558594 C 435.515625 385.59375 435.496094 385.648438 435.496094 385.683594 C 435.566406 385.699219 435.636719 385.699219 435.710938 385.71875 C 435.957031 385.773438 436.222656 385.824219 436.492188 385.914062 C 436.847656 386.019531 437.183594 386.199219 437.503906 386.339844 C 438.160156 386.644531 438.695312 386.925781 439.085938 387.105469 C 439.527344 387.195312 439.832031 387.621094 439.742188 388.0625 C 439.652344 388.507812 439.226562 388.792969 438.78125 388.722656 C 438.230469 388.722656 437.449219 388.773438 436.5625 388.6875 C 436.261719 388.667969 435.976562 388.613281 435.675781 388.542969 C 435.476562 388.507812 435.300781 388.4375 435.105469 388.347656 C 434.980469 388.296875 434.890625 388.222656 434.769531 388.171875 C 434.554688 388.882812 434.324219 389.59375 434.109375 390.304688 C 434.039062 390.515625 433.753906 391.085938 433.507812 391.671875 C 433.4375 391.847656 433.277344 392.078125 433.1875 392.257812 C 433.578125 392.558594 434.234375 392.71875 434.945312 392.878906 C 436.617188 393.234375 438.535156 393.375 439.527344 393.535156 C 439.972656 393.589844 440.308594 393.980469 440.257812 394.441406 C 440.203125 394.886719 439.8125 395.222656 439.351562 395.171875 C 438.160156 395.136719 435.65625 395.3125 433.753906 394.992188 C 432.492188 394.796875 431.5 394.28125 430.929688 393.625 C 430.664062 393.304688 430.488281 392.71875 430.609375 391.972656 C 430.753906 391.121094 431.375 389.804688 431.464844 389.433594 C 431.90625 388.242188 432.335938 387.015625 432.832031 385.824219 C 432.847656 385.683594 432.886719 385.59375 432.972656 385.488281 C 433.667969 383.851562 434.414062 382.273438 435.105469 380.726562 C 435.070312 380.707031 435 380.671875 434.980469 380.636719 C 434.785156 380.351562 434.660156 380.15625 434.730469 379.960938 C 434.804688 379.800781 434.785156 379.589844 434.980469 379.480469 C 435.050781 379.445312 435.085938 379.359375 435.210938 379.339844 C 435.40625 379.25 435.636719 379.25 435.816406 379.339844 C 435.816406 379.324219 435.796875 379.324219 435.796875 379.304688 C 435.796875 379.304688 435.816406 379.304688 435.851562 379.304688 C 436.101562 379.304688 436.617188 379.25 437.308594 379.234375 C 437.789062 379.234375 438.320312 379.234375 438.90625 379.269531 C 439.246094 379.304688 439.601562 379.359375 439.9375 379.410156 C 440.46875 379.519531 440.984375 379.675781 441.484375 379.820312 C 442.476562 380.121094 443.296875 380.40625 443.773438 380.566406 C 444.21875 380.636719 444.519531 381.0625 444.449219 381.507812 C 444.378906 381.953125 443.953125 382.273438 443.507812 382.199219 Z M 425.371094 382.554688 C 426.0625 382.289062 426.953125 381.828125 427.679688 381.222656 C 427.964844 380.976562 428.25 380.726562 428.425781 380.425781 C 428.550781 380.210938 428.675781 379.996094 428.65625 379.75 C 428.621094 379.285156 428.25 379.039062 427.839844 378.859375 C 427.128906 378.574219 426.277344 378.453125 425.671875 378.453125 C 425.53125 378.453125 425.316406 378.46875 425.085938 378.503906 C 424.960938 378.699219 424.835938 378.894531 424.800781 379.039062 L 424.039062 381.808594 C 423.914062 382.253906 423.789062 382.699219 423.648438 383.140625 C 424.179688 382.859375 425.050781 382.699219 425.371094 382.554688 Z M 424.960938 385.34375 C 424.855469 385.34375 424.765625 385.382812 424.800781 385.46875 C 424.855469 385.558594 424.910156 385.46875 424.960938 385.34375 Z M 423.453125 377.472656 C 423.453125 377.472656 423.46875 377.457031 423.488281 377.457031 L 423.523438 377.4375 C 423.503906 377.457031 423.433594 377.421875 423.453125 377.472656 Z M 425.476562 385.308594 C 425.421875 385.308594 425.335938 385.308594 425.246094 385.328125 C 425.265625 385.382812 425.300781 385.453125 425.316406 385.503906 C 425.53125 385.96875 425.777344 386.410156 425.886719 386.679688 C 426.292969 387.726562 426.648438 388.757812 426.933594 389.824219 C 427.21875 390.90625 427.429688 391.992188 427.539062 393.128906 C 427.589844 393.589844 427.289062 394 426.84375 394.070312 C 426.382812 394.140625 425.972656 393.820312 425.902344 393.375 C 425.707031 392.347656 425.386719 391.386719 425.03125 390.445312 C 424.660156 389.484375 424.214844 388.5625 423.734375 387.636719 C 423.523438 387.210938 422.953125 386.339844 422.707031 385.613281 C 422.511719 386.109375 422.316406 386.589844 422.101562 387.085938 C 421.585938 388.347656 421.054688 389.574219 420.609375 390.855469 C 420.503906 391.296875 420.039062 391.5625 419.613281 391.441406 C 419.171875 391.332031 418.902344 390.890625 419.011719 390.445312 C 419.152344 389.46875 419.332031 388.492188 419.542969 387.496094 C 419.738281 386.519531 419.988281 385.558594 420.253906 384.597656 C 420.394531 384.101562 420.554688 383.605469 420.734375 383.105469 C 421 382.359375 421.335938 381.648438 421.640625 380.921875 C 421.851562 380.476562 422.066406 380.03125 422.296875 379.589844 C 422.511719 379.164062 422.742188 378.753906 422.972656 378.34375 C 422.917969 378.132812 422.902344 377.917969 422.917969 377.867188 C 422.9375 377.8125 423.0625 377.652344 423.328125 377.472656 C 423.417969 377.402344 423.613281 377.316406 423.824219 377.207031 C 423.984375 376.960938 424.199219 376.78125 424.5 376.800781 C 424.554688 376.800781 424.570312 376.835938 424.625 376.851562 C 424.960938 376.691406 425.316406 376.570312 425.546875 376.53125 C 426.578125 376.410156 428.070312 376.460938 429.207031 376.960938 C 430.253906 377.402344 430.964844 378.238281 431.179688 379.429688 C 431.375 380.65625 430.878906 381.808594 430.007812 382.769531 C 429.011719 383.871094 427.464844 384.671875 426.347656 385.097656 C 426.167969 385.167969 425.832031 385.238281 425.476562 385.308594 Z M 417.839844 382.21875 C 417.589844 382.128906 416.914062 381.773438 416.078125 381.488281 C 415.917969 381.4375 415.777344 381.382812 415.617188 381.367188 C 415.457031 381.332031 415.296875 381.347656 415.136719 381.347656 L 415.992188 378.34375 C 415.992188 378.34375 415.992188 378.328125 415.992188 378.328125 C 416.097656 378.34375 416.1875 378.378906 416.273438 378.398438 C 416.46875 378.417969 416.664062 378.433594 416.859375 378.433594 C 417.234375 378.433594 417.589844 378.398438 417.960938 378.363281 C 418.53125 378.292969 419.046875 378.183594 419.613281 378.113281 C 420.058594 378.167969 420.46875 377.828125 420.503906 377.386719 C 420.554688 376.941406 420.21875 376.53125 419.773438 376.480469 C 418.992188 376.230469 418.265625 375.964844 417.464844 375.785156 C 417.234375 375.734375 417.003906 375.699219 416.753906 375.679688 C 416.703125 375.429688 416.628906 375.164062 416.46875 375.09375 C 416.292969 375.003906 415.917969 374.757812 415.441406 375.128906 C 415.191406 375.289062 415.085938 375.554688 415.101562 375.820312 C 414.730469 375.894531 414.355469 375.980469 414.144531 376.054688 C 413.769531 376.195312 413.539062 376.25 413.484375 376.355469 C 413.34375 376.621094 413.128906 376.800781 413.238281 377.03125 C 413.273438 377.101562 413.238281 377.171875 413.289062 377.226562 C 413.398438 377.527344 413.699219 377.652344 414 377.671875 C 413.644531 378.378906 413.308594 379.089844 412.988281 379.820312 C 412.667969 380.566406 412.367188 381.347656 412.082031 382.113281 C 411.921875 382.589844 411.746094 383.070312 411.585938 383.550781 C 411.441406 384.046875 411.320312 384.546875 411.175781 385.042969 C 410.660156 387.121094 410.785156 388.3125 411.335938 389.058594 C 411.710938 389.59375 412.261719 390 413.078125 390.230469 C 413.894531 390.460938 414.996094 390.585938 416.433594 390.78125 C 416.878906 390.871094 417.324219 390.605469 417.410156 390.160156 C 417.519531 389.714844 417.234375 389.273438 416.789062 389.183594 C 415.246094 388.722656 414.109375 388.472656 413.449219 388.011719 C 413.253906 387.867188 413.289062 387.65625 413.308594 387.371094 C 413.34375 386.960938 413.503906 386.445312 413.734375 385.824219 L 414.390625 383.835938 C 414.621094 383.941406 414.871094 384.03125 415.136719 384.101562 C 415.316406 384.136719 415.492188 384.136719 415.671875 384.136719 C 416.042969 384.121094 416.382812 384.085938 416.683594 384.046875 C 417.179688 383.976562 417.535156 383.890625 417.695312 383.851562 C 418.15625 383.90625 418.546875 383.570312 418.601562 383.105469 C 418.636719 382.664062 418.300781 382.253906 417.839844 382.21875 Z M 404.371094 385.894531 C 404.335938 386.144531 404.355469 386.339844 404.515625 386.304688 C 404.726562 386.269531 404.585938 386.074219 404.371094 385.894531 Z M 403.289062 385.382812 C 403.058594 385.363281 402.453125 385.328125 402.667969 385.558594 C 402.828125 385.753906 403.058594 385.648438 403.289062 385.382812 Z M 411.300781 376.976562 C 409.84375 379.429688 408.492188 381.96875 406.949219 384.332031 C 406.84375 384.511719 405.3125 386.875 404.53125 387.601562 C 403.699219 388.402344 402.828125 388.152344 402.472656 387.921875 C 402.1875 387.726562 401.886719 387.371094 401.777344 386.800781 C 401.671875 386.144531 401.992188 384.546875 402.027344 384.28125 L 403.199219 376.53125 L 403.609375 373.761719 C 403.644531 373.511719 403.820312 372.910156 403.910156 372.589844 C 403.820312 372.320312 403.859375 372.019531 404.054688 371.804688 C 404.425781 371.328125 404.835938 371.46875 405.011719 371.523438 C 405.226562 371.59375 405.457031 371.769531 405.546875 372.160156 C 405.617188 372.394531 405.402344 373.460938 405.386719 373.902344 L 405.277344 376.746094 C 405.226562 378.0625 405.152344 379.359375 405.066406 380.671875 C 405.011719 381.347656 404.957031 382.023438 404.90625 382.699219 C 406.574219 380.511719 408.03125 378.148438 409.648438 375.894531 C 410.378906 374.878906 411.125 373.902344 411.921875 372.960938 C 412.207031 372.605469 412.722656 372.554688 413.078125 372.820312 C 413.433594 373.105469 413.503906 373.617188 413.21875 373.972656 C 412.542969 374.953125 411.90625 375.964844 411.300781 376.976562 Z M 399.878906 370.757812 C 399.453125 370.863281 399.183594 371.273438 399.292969 371.699219 L 399.308594 371.769531 C 399.292969 371.789062 399.292969 371.804688 399.292969 371.824219 C 399.183594 372.234375 398.867188 372.890625 398.597656 373.566406 C 398.261719 374.363281 397.960938 375.148438 397.851562 375.449219 C 397.691406 375.929688 397.535156 376.390625 397.410156 376.871094 C 397.335938 377.191406 397.265625 377.511719 397.195312 377.828125 C 397.035156 378.574219 396.910156 379.324219 396.785156 380.085938 C 396.589844 381.222656 396.414062 382.34375 396.21875 383.480469 C 396.09375 383.925781 396.34375 384.367188 396.769531 384.511719 C 397.214844 384.636719 397.65625 384.386719 397.800781 383.941406 C 398.421875 382.394531 399.042969 380.886719 399.574219 379.285156 C 399.753906 378.773438 399.914062 378.257812 400.054688 377.722656 C 400.199219 377.191406 400.285156 376.65625 400.410156 376.125 C 400.5 375.484375 400.996094 372.996094 400.980469 372.019531 C 400.980469 371.609375 400.925781 371.34375 400.855469 371.21875 C 400.570312 370.828125 400.304688 370.597656 399.878906 370.757812 Z M 387.726562 380.957031 C 387.601562 380.742188 387.40625 380.476562 387.335938 380.707031 C 387.28125 380.867188 387.476562 380.9375 387.726562 380.957031 Z M 390.960938 368.625 C 391.066406 368.945312 391.28125 369.050781 391.492188 369.089844 C 391.246094 369.035156 391.050781 368.855469 390.960938 368.625 Z M 394.726562 383.710938 C 394.566406 384.136719 394.105469 384.351562 393.679688 384.191406 C 392.984375 383.976562 392.273438 383.835938 391.546875 383.710938 C 390.445312 383.496094 389.308594 383.375 388.222656 383.25 C 388.011719 383.230469 386.785156 383.160156 386.339844 383 C 385.613281 382.714844 385.472656 382.113281 385.472656 381.703125 C 385.472656 380.371094 385.773438 378.929688 386.289062 377.492188 C 386.625 376.570312 387.050781 375.644531 387.476562 374.757812 C 387.921875 373.851562 388.382812 372.996094 388.757812 372.199219 L 390.125 369.285156 C 390.160156 369.210938 390.675781 368.269531 390.90625 367.96875 C 391.210938 367.578125 391.527344 367.507812 391.636719 367.507812 C 391.867188 367.523438 392.097656 367.558594 392.238281 367.753906 C 392.328125 367.863281 392.488281 368.023438 392.46875 368.34375 C 392.453125 368.519531 392.398438 368.695312 392.273438 368.820312 C 392.273438 368.820312 392.273438 368.820312 392.273438 368.804688 C 392.1875 368.769531 392.113281 368.855469 392.0625 368.980469 C 392.097656 368.980469 392.113281 368.945312 392.152344 368.929688 C 392.152344 368.929688 392.1875 368.894531 392.222656 368.875 C 392.1875 368.929688 392.113281 368.980469 392.042969 369.015625 C 391.917969 369.335938 391.847656 369.921875 391.847656 369.957031 L 390.925781 373.03125 C 390.535156 374.207031 390.019531 375.539062 389.484375 376.886719 C 389.167969 377.6875 388.847656 378.503906 388.578125 379.304688 C 388.402344 379.855469 388.222656 380.40625 388.117188 380.957031 C 388.347656 380.9375 388.5625 380.921875 388.617188 380.9375 C 389.734375 381.1875 390.890625 381.472656 392.007812 381.808594 C 392.773438 382.058594 393.535156 382.324219 394.246094 382.644531 C 394.671875 382.804688 394.886719 383.285156 394.726562 383.710938 Z M 392.222656 368.875 C 392.273438 368.855469 392.292969 368.839844 392.273438 368.820312 L 392.273438 368.839844 Z M 384.28125 378.613281 C 383.589844 378.328125 381.261719 377.882812 379.875 377.386719 C 380.089844 376.941406 380.390625 376.390625 380.640625 375.894531 C 381.011719 375.128906 381.332031 374.472656 381.386719 374.328125 C 381.546875 373.886719 381.6875 373.421875 381.828125 372.960938 C 381.847656 372.871094 381.863281 372.785156 381.898438 372.710938 C 381.9375 372.730469 381.953125 372.765625 381.988281 372.785156 C 382.21875 372.910156 382.488281 373.066406 382.789062 373.175781 C 382.984375 373.246094 383.179688 373.300781 383.375 373.335938 C 383.695312 373.386719 383.996094 373.386719 384.28125 373.386719 C 384.9375 373.40625 385.417969 373.371094 385.71875 373.351562 C 386.144531 373.476562 386.589844 373.191406 386.714844 372.765625 C 386.820312 372.320312 386.554688 371.878906 386.109375 371.769531 C 385.863281 371.628906 385.453125 371.34375 384.886719 371.058594 C 384.617188 370.917969 384.335938 370.777344 384.03125 370.667969 C 383.835938 370.597656 383.625 370.5625 383.410156 370.546875 C 383.074219 370.507812 382.753906 370.527344 382.449219 370.546875 C 382.449219 370.546875 382.433594 370.546875 382.433594 370.546875 C 382.558594 369.710938 382.644531 368.21875 382.824219 366.992188 C 383.039062 367.117188 383.25 367.242188 383.480469 367.328125 C 383.710938 367.4375 383.941406 367.472656 384.210938 367.523438 C 384.386719 367.542969 384.566406 367.558594 384.742188 367.558594 C 384.992188 367.542969 385.238281 367.507812 385.472656 367.453125 C 385.753906 367.398438 386.023438 367.3125 386.289062 367.277344 C 386.554688 367.222656 386.785156 367.132812 387.035156 367.132812 C 387.476562 367.277344 387.921875 367.007812 388.066406 366.582031 C 388.1875 366.140625 387.921875 365.695312 387.496094 365.570312 C 386.980469 365.25 386.429688 365.089844 385.789062 364.949219 C 385.453125 364.878906 385.132812 364.824219 384.796875 364.789062 C 384.636719 364.789062 384.492188 364.789062 384.351562 364.804688 C 384.15625 364.804688 383.960938 364.878906 383.765625 364.878906 C 383.570312 364.894531 383.390625 364.949219 383.214844 364.964844 C 383.179688 364.859375 383.179688 364.753906 383.109375 364.664062 C 382.804688 364.363281 382.308594 364.34375 381.988281 364.644531 C 381.617188 364.949219 381.277344 365.640625 380.996094 366.511719 C 380.550781 367.792969 380.230469 369.496094 379.980469 370.152344 L 378.773438 373.386719 C 378.683594 373.65625 377.566406 376.105469 377.265625 377.136719 C 377.15625 377.546875 377.121094 377.847656 377.140625 378.007812 C 377.175781 378.328125 377.28125 378.558594 377.40625 378.71875 C 377.65625 379.003906 378.242188 379.375 379.109375 379.570312 C 380.585938 379.875 383.039062 379.996094 383.785156 380.175781 C 384.210938 380.316406 384.671875 380.070312 384.8125 379.640625 C 384.957031 379.214844 384.726562 378.734375 384.28125 378.613281 Z M 368.363281 374.523438 C 370.121094 373.921875 372.113281 372.835938 373.730469 371.414062 C 374.652344 370.597656 375.398438 369.65625 375.894531 368.625 C 376.199219 367.988281 376.410156 367.3125 376.410156 366.566406 C 376.445312 365.890625 376.234375 365.320312 375.824219 364.859375 C 375.34375 364.273438 374.707031 363.8125 373.976562 363.507812 C 373.871094 363.472656 373.53125 363.402344 373.160156 363.332031 C 373.160156 363.421875 373.160156 363.527344 373.140625 363.582031 L 372.273438 366.316406 C 372.078125 366.832031 371.898438 367.363281 371.6875 367.878906 C 371.542969 368.21875 371.382812 368.554688 371.242188 368.894531 C 370.867188 369.675781 370.476562 370.4375 370.085938 371.203125 C 369.519531 372.320312 368.933594 373.40625 368.363281 374.523438 Z M 367.582031 375.609375 C 367.527344 375.429688 367.582031 375.269531 367.652344 375.113281 C 367.511719 375.128906 367.367188 375.183594 367.226562 375.128906 C 366.816406 374.953125 366.605469 374.488281 366.765625 374.0625 C 367.28125 372.25 367.796875 370.472656 368.398438 368.695312 C 368.613281 368.109375 368.824219 367.542969 369.054688 366.972656 C 369.304688 366.40625 369.589844 365.855469 369.839844 365.285156 L 371.257812 362.746094 C 371.257812 362.726562 371.277344 362.710938 371.277344 362.710938 C 371.277344 362.710938 371.222656 362.691406 371.222656 362.691406 C 370.976562 362.335938 370.902344 362 371.171875 361.679688 C 371.222656 361.609375 371.417969 361.304688 371.96875 361.269531 C 372.003906 361.269531 372.039062 361.304688 372.078125 361.304688 C 372.183594 361.128906 372.289062 361.003906 372.359375 360.96875 C 372.664062 360.789062 372.929688 360.71875 373.160156 360.84375 C 373.335938 360.933594 373.65625 361.039062 373.710938 361.5 C 374.121094 361.519531 374.492188 361.554688 374.617188 361.589844 C 375.96875 361.929688 377.246094 362.675781 378.082031 363.722656 C 378.71875 364.484375 379.074219 365.464844 379.109375 366.582031 C 379.128906 367.738281 378.863281 368.839844 378.363281 369.835938 C 377.902344 370.757812 377.246094 371.609375 376.445312 372.355469 C 374.261719 374.402344 371.117188 375.699219 368.578125 376.214844 C 368.152344 376.320312 367.6875 376.054688 367.582031 375.609375 Z M 370.867188 351.179688 C 370.78125 351.089844 370.707031 351.230469 370.65625 351.425781 C 370.851562 351.375 371.011719 351.285156 370.867188 351.179688 Z M 379.394531 356.171875 L 376.820312 355.070312 C 375.914062 354.644531 373.605469 353.113281 371.703125 352.15625 C 371.3125 351.941406 370.941406 351.765625 370.601562 351.640625 C 370.566406 351.816406 370.511719 351.996094 370.476562 352.136719 C 370.246094 352.8125 370.070312 353.46875 369.996094 353.648438 C 369.234375 355.496094 368.453125 357.34375 367.652344 359.171875 C 366.835938 361.003906 365.984375 362.816406 365.113281 364.609375 C 364.933594 365.035156 364.4375 365.234375 364.027344 365.054688 C 363.601562 364.878906 363.40625 364.398438 363.585938 363.972656 L 367.492188 352.707031 C 367.601562 352.441406 367.9375 350.859375 368.347656 350.023438 C 368.738281 349.1875 369.394531 348.832031 369.820312 348.78125 C 370.175781 348.726562 370.636719 348.761719 371.152344 348.941406 C 371.6875 349.097656 372.324219 349.402344 373 349.792969 C 373.816406 350.289062 374.722656 350.894531 375.539062 351.5 C 376.519531 352.191406 377.351562 352.882812 377.816406 353.152344 L 380.195312 354.535156 C 380.480469 354.695312 381.066406 354.960938 381.421875 355.195312 C 381.703125 355.371094 381.917969 355.550781 381.972656 355.671875 C 382.148438 355.992188 382.167969 356.261719 382.042969 356.492188 C 381.953125 356.652344 381.8125 356.933594 381.332031 356.988281 C 380.996094 357.058594 380.675781 356.882812 380.515625 356.597656 C 380.195312 356.472656 379.609375 356.261719 379.394531 356.171875 Z M 423.257812 303.046875 C 427.253906 306.671875 431.375 310.136719 435.65625 313.386719 C 436.011719 313.671875 436.542969 313.597656 436.8125 313.246094 C 437.09375 312.890625 437.023438 312.375 436.667969 312.089844 C 426.648438 304.148438 417.730469 294.90625 408.8125 285.632812 C 402.863281 279.433594 396.929688 273.195312 390.695312 267.316406 C 386.769531 263.617188 382.699219 260.066406 378.488281 256.707031 C 374.777344 253.8125 371.011719 250.96875 367.191406 248.214844 C 363.371094 245.460938 359.515625 242.777344 355.625 240.128906 C 354.613281 239.417969 348.574219 235.171875 346.28125 233.664062 C 345.75 233.308594 345.394531 233.09375 345.289062 233.039062 C 344.738281 232.828125 343.28125 233.394531 344.578125 234.515625 C 344.703125 234.621094 344.84375 234.691406 345.003906 234.710938 C 345.109375 234.800781 345.234375 234.886719 345.375 234.996094 C 347.613281 236.578125 353.511719 241 354.507812 241.730469 C 358.292969 244.484375 362.058594 247.273438 365.789062 250.097656 C 369.519531 252.941406 373.214844 255.800781 376.835938 258.769531 C 380.800781 261.984375 384.601562 265.394531 388.332031 268.894531 C 390.816406 271.222656 393.269531 273.605469 395.703125 276.003906 C 404.886719 285.046875 413.753906 294.445312 423.257812 303.046875 Z M 358.804688 226.21875 C 358.949219 226.253906 359.234375 226.308594 359.640625 226.394531 C 360.972656 226.699219 363.460938 227.355469 365.273438 228.261719 C 366 228.632812 366.621094 229.042969 366.871094 229.523438 C 367.085938 229.914062 366.835938 230.25 366.640625 230.605469 C 366.230469 231.316406 365.734375 232.027344 365.574219 232.808594 C 365.46875 233.324219 365.484375 233.875 365.714844 234.445312 C 366.214844 235.722656 367.28125 236.648438 368.664062 237.339844 C 371.011719 238.53125 374.386719 238.957031 376.179688 239.988281 C 376.480469 240.164062 376.570312 240.414062 376.675781 240.644531 C 376.765625 240.894531 376.855469 241.125 376.945312 241.355469 C 377.191406 241.851562 377.496094 242.296875 378.027344 242.636719 C 378.472656 242.917969 379.09375 243.132812 380.015625 243.1875 C 380.445312 243.203125 380.957031 243.132812 381.527344 242.992188 C 382.363281 242.796875 383.339844 242.421875 384.210938 242.207031 C 384.601562 242.101562 384.957031 241.976562 385.203125 242.085938 C 385.753906 242.316406 386.304688 243.007812 386.910156 243.808594 C 388.492188 245.867188 390.070312 248.78125 391.101562 249.957031 C 394.425781 253.703125 397.835938 257.808594 401.40625 261.664062 C 403.820312 264.277344 406.34375 266.78125 408.902344 269.003906 C 415.511719 274.6875 423.664062 278.011719 430.929688 282.628906 C 433.949219 284.566406 436.8125 286.71875 439.332031 289.398438 C 439.636719 289.738281 440.167969 289.753906 440.507812 289.453125 C 440.824219 289.152344 440.859375 288.617188 440.542969 288.296875 C 438 285.4375 435.085938 283.109375 431.996094 281.011719 C 424.945312 276.289062 416.949219 272.875 410.574219 267.121094 C 408.101562 264.914062 405.722656 262.429688 403.378906 259.851562 C 399.859375 255.980469 396.449219 251.890625 393.164062 248.144531 C 392.152344 247.007812 390.585938 244.179688 389.042969 242.171875 C 388.066406 240.929688 387.070312 239.988281 386.179688 239.632812 C 385.703125 239.453125 385.0625 239.402344 384.335938 239.527344 C 383.5 239.667969 382.46875 240.058594 381.507812 240.359375 C 380.976562 240.519531 380.496094 240.679688 380.105469 240.679688 C 379.679688 240.664062 379.429688 240.644531 379.289062 240.484375 C 379.058594 240.199219 378.988281 239.828125 378.808594 239.472656 C 378.523438 238.886719 378.132812 238.316406 377.351562 237.890625 C 376.480469 237.429688 375.308594 237.074219 374.046875 236.738281 C 372.554688 236.363281 370.941406 236.007812 369.605469 235.386719 C 368.71875 234.976562 367.972656 234.460938 367.636719 233.664062 C 367.386719 233.113281 367.757812 232.632812 368.027344 232.152344 C 368.398438 231.511719 368.753906 230.890625 368.84375 230.25 C 368.933594 229.71875 368.878906 229.167969 368.542969 228.597656 C 368.203125 227.996094 367.527344 227.410156 366.640625 226.929688 C 365.308594 226.199219 363.460938 225.632812 361.914062 225.242188 C 360.761719 224.957031 359.746094 224.777344 359.285156 224.707031 C 359.144531 224.671875 359 224.652344 359 224.652344 C 359 224.652344 358.273438 225.96875 358.273438 225.953125 C 358.398438 226.09375 358.558594 226.164062 358.71875 226.199219 C 358.71875 226.199219 358.753906 226.21875 358.804688 226.21875 Z M 303.292969 396.644531 L 286.824219 416.597656 L 294.871094 423.367188 L 310.949219 403.078125 Z M 313.292969 405.03125 L 296.808594 425.003906 L 306.898438 433.496094 L 323.863281 413.917969 Z M 332.089844 420.828125 L 315.085938 440.371094 L 317.503906 442.414062 L 334.414062 422.78125 Z M 326.136719 415.835938 L 309.507812 435.699219 L 312.832031 438.488281 L 329.742188 418.875 Z M 355.003906 473.953125 L 364.101562 481.609375 L 381.492188 462.316406 L 371.417969 453.875 Z M 360.441406 444.65625 L 343.136719 463.96875 L 348.839844 468.78125 L 365.273438 448.707031 Z M 354.863281 439.964844 L 338.003906 459.667969 L 341.21875 462.457031 L 358.253906 442.804688 Z M 336.6875 424.699219 L 319.992188 444.496094 L 324.308594 448.136719 L 340.953125 428.273438 Z M 368.96875 451.796875 L 367.671875 450.714844 L 350.902344 470.507812 L 352.5 471.855469 L 352.5 471.839844 Z M 352.695312 438.132812 L 335.695312 457.714844 L 326.757812 450.199219 L 343.476562 430.40625 L 352.695312 438.132812 " fill-opacity="1" fill-rule="nonzero"/><g clip-path="url(#f3f45e5f92)"><path fill="#bd651d" d="M 491.792969 381.683594 C 491.863281 381.703125 491.933594 381.722656 491.988281 381.722656 C 491.863281 381.773438 491.738281 381.808594 491.722656 381.683594 C 491.722656 381.683594 491.722656 381.683594 491.738281 381.667969 C 491.757812 381.667969 491.773438 381.667969 491.792969 381.683594 Z M 472.695312 405.691406 C 472.695312 405.671875 472.695312 405.652344 472.714844 405.652344 C 472.855469 405.671875 472.785156 405.796875 472.695312 405.902344 C 472.695312 405.832031 472.714844 405.761719 472.695312 405.691406 Z M 574.574219 271.488281 C 574.308594 271.207031 574.058594 270.921875 573.777344 270.65625 C 573.582031 270.476562 573.386719 270.300781 573.171875 270.140625 C 572.800781 269.875 572.425781 269.625 572.035156 269.410156 C 571.664062 269.199219 571.269531 269.074219 570.898438 268.914062 C 576.085938 259.195312 580.507812 249.8125 583.9375 240.949219 C 584.113281 240.519531 583.902344 240.042969 583.476562 239.882812 C 583.050781 239.722656 582.570312 239.933594 582.410156 240.34375 C 574.398438 260.652344 561.164062 283.535156 545.015625 307.257812 C 545.015625 307.238281 545.015625 307.238281 545.015625 307.238281 C 537.875 302.121094 531.085938 296.632812 524.496094 290.890625 C 509.113281 277.511719 494.757812 262.910156 479.429688 249.171875 C 467.96875 238.941406 456.175781 229.023438 444.164062 219.359375 C 435.175781 212.128906 426.0625 205.039062 416.914062 198.003906 C 407.765625 190.964844 398.582031 184 389.433594 177 C 381.367188 170.855469 369.464844 158.984375 358.683594 150.066406 C 353.351562 145.660156 348.308594 141.980469 344.097656 140.027344 C 343.707031 139.847656 343.246094 140.007812 343.050781 140.398438 C 342.871094 140.789062 343.03125 141.253906 343.441406 141.449219 C 347.488281 143.421875 352.375 147.097656 357.507812 151.46875 C 368.203125 160.546875 379.980469 172.59375 387.992188 178.867188 C 397.070312 185.9375 406.183594 193.011719 415.296875 200.097656 C 424.375 207.1875 433.4375 214.3125 442.425781 221.527344 C 454.414062 231.140625 466.265625 240.910156 477.757812 251.058594 C 493.214844 264.648438 507.691406 279.148438 523.234375 292.367188 C 529.933594 298.054688 536.824219 303.523438 544.054688 308.570312 C 544.074219 308.589844 544.089844 308.570312 544.089844 308.589844 C 532.207031 325.964844 518.8125 343.785156 504.761719 361.359375 C 495.734375 372.660156 486.480469 383.851562 477.191406 394.78125 C 467.632812 406.027344 458.074219 416.988281 448.75 427.457031 C 436.457031 441.296875 424.570312 454.25 413.71875 465.886719 C 410.609375 469.191406 407.625 472.371094 404.710938 475.445312 C 405.191406 474.449219 405.582031 473.4375 405.972656 472.425781 C 406.378906 471.199219 406.699219 469.992188 406.894531 468.765625 C 407.074219 467.519531 407.144531 466.277344 407.144531 465.035156 C 407.144531 461.445312 406.523438 457.890625 406.132812 454.230469 C 406.113281 453.785156 405.722656 453.429688 405.277344 453.46875 C 404.816406 453.503906 404.480469 453.875 404.496094 454.335938 C 404.550781 457.925781 404.761719 461.445312 404.53125 464.945312 C 404.460938 466.082031 404.335938 467.203125 404.140625 468.339844 C 403.980469 469.421875 403.769531 470.523438 403.429688 471.625 C 403.164062 472.601562 402.84375 473.5625 402.507812 474.523438 C 402.152344 475.5 401.796875 476.476562 401.40625 477.4375 C 401.226562 477.914062 400.980469 478.875 400.75 479.621094 L 400.75 479.640625 C 376.234375 505.4375 359.429688 521.910156 359.429688 521.910156 C 359.125 522.210938 359.109375 522.707031 359.410156 523.027344 C 359.710938 523.328125 360.210938 523.328125 360.53125 523.046875 C 360.53125 523.046875 383.710938 500.871094 415.40625 467.484375 C 417.234375 465.550781 419.117188 463.542969 421 461.550781 C 421 461.816406 421.070312 462.066406 421.300781 462.207031 C 421.425781 462.296875 421.585938 462.351562 421.730469 462.351562 C 421.730469 462.351562 421.746094 462.367188 421.746094 462.367188 C 422.046875 462.601562 422.421875 463.113281 422.9375 463.738281 C 423.34375 464.199219 423.753906 464.730469 424.234375 465.265625 C 424.464844 465.53125 424.714844 465.796875 424.960938 466.0625 C 425.351562 466.4375 425.761719 466.8125 426.152344 467.164062 C 427.644531 468.5 428.941406 469.601562 429.261719 469.867188 C 429.582031 470.1875 430.097656 470.203125 430.433594 469.902344 C 430.753906 469.582031 430.769531 469.066406 430.449219 468.730469 C 430.292969 468.5 429.777344 467.753906 429.066406 466.773438 C 428.640625 466.1875 428.140625 465.53125 427.589844 464.875 C 427.324219 464.535156 427.039062 464.214844 426.738281 463.914062 C 426.277344 463.417969 425.777344 462.992188 425.300781 462.601562 C 424.304688 461.816406 423.433594 461.25 422.847656 460.964844 C 422.527344 460.824219 422.28125 460.714844 422.101562 460.714844 C 421.960938 460.699219 421.871094 460.734375 421.746094 460.75 C 430.949219 450.980469 440.703125 440.425781 450.738281 429.230469 C 457.472656 421.75 464.328125 413.917969 471.203125 405.972656 C 471.308594 406.3125 471.613281 406.578125 471.984375 406.542969 C 472.089844 406.523438 472.199219 406.507812 472.285156 406.453125 C 472.625 406.753906 473.015625 407.21875 473.441406 407.679688 C 474.011719 408.285156 474.597656 408.871094 475.003906 409.226562 C 475.449219 409.582031 475.859375 409.9375 476.285156 410.273438 C 476.585938 410.503906 476.886719 410.71875 477.171875 410.949219 C 477.882812 411.464844 478.59375 411.960938 479.304688 412.460938 C 480.371094 413.222656 481.4375 413.96875 482.519531 414.734375 C 482.855469 415.035156 483.371094 415 483.675781 414.664062 C 483.976562 414.308594 483.941406 413.792969 483.601562 413.507812 C 482.269531 412.140625 480.972656 410.753906 479.589844 409.457031 C 479.125 409.03125 478.648438 408.605469 478.132812 408.210938 C 477.632812 407.820312 477.117188 407.464844 476.585938 407.09375 C 475.699219 406.558594 474.011719 405.140625 473.070312 404.710938 C 472.820312 404.605469 472.605469 404.589844 472.410156 404.550781 C 474.703125 401.886719 477.011719 399.277344 479.304688 396.558594 C 483.40625 391.722656 487.511719 386.800781 491.597656 381.84375 C 492.199219 382.378906 493.710938 383.515625 494.316406 384.121094 C 494.722656 384.492188 495.132812 384.882812 495.558594 385.257812 C 496.003906 385.613281 496.445312 385.949219 496.890625 386.269531 C 498.292969 387.28125 499.699219 388.222656 501.136719 389.164062 C 501.492188 389.46875 502.007812 389.414062 502.292969 389.058594 C 502.574219 388.703125 502.523438 388.1875 502.183594 387.902344 C 501.332031 387.050781 500.53125 386.199219 499.699219 385.34375 C 499.128906 384.777344 498.5625 384.207031 497.972656 383.675781 C 497.726562 383.445312 497.460938 383.214844 497.191406 383 C 496.800781 382.679688 496.375 382.394531 495.949219 382.078125 C 495.613281 381.863281 495.078125 381.542969 494.476562 381.257812 C 493.960938 381.011719 493.230469 380.832031 492.789062 380.65625 C 492.769531 380.601562 492.699219 380.601562 492.679688 380.546875 C 497.441406 374.738281 502.167969 368.894531 506.820312 362.992188 C 518.546875 348.175781 529.789062 333.179688 540.058594 318.398438 C 540.574219 319.070312 541.089844 319.730469 541.710938 320.351562 C 542.136719 320.796875 542.597656 321.222656 543.097656 321.628906 C 543.382812 321.863281 543.664062 322.074219 543.984375 322.289062 C 544.445312 322.589844 544.925781 322.875 545.40625 323.140625 C 546.632812 323.816406 547.894531 324.382812 549.082031 324.972656 C 549.472656 325.21875 549.972656 325.113281 550.21875 324.738281 C 550.46875 324.347656 550.363281 323.851562 549.972656 323.601562 C 549.117188 322.890625 548.265625 322.144531 547.359375 321.417969 C 546.773438 320.957031 546.207031 320.492188 545.601562 320.050781 C 545.300781 319.816406 544.996094 319.621094 544.695312 319.425781 C 544.394531 319.214844 544.074219 319.019531 543.773438 318.839844 C 542.792969 318.238281 541.851562 317.703125 541 317.0625 C 552.015625 301.164062 561.855469 285.542969 569.902344 270.726562 C 570.222656 271.046875 570.523438 271.367188 570.863281 271.703125 C 571.003906 271.863281 571.148438 272.003906 571.289062 272.148438 C 571.519531 272.34375 571.75 272.554688 572 272.75 C 572.410156 273.089844 572.851562 273.375 573.296875 273.675781 C 574.023438 274.15625 574.71875 274.582031 575.464844 274.953125 C 575.820312 275.222656 576.335938 275.148438 576.601562 274.777344 C 576.886719 274.421875 576.796875 273.90625 576.441406 273.621094 C 575.785156 272.964844 575.214844 272.234375 574.574219 271.488281 Z M 554.660156 299.066406 C 554.75 299.046875 554.839844 299.03125 554.910156 298.996094 C 554.839844 299.03125 554.769531 299.082031 554.660156 299.066406 Z M 559.972656 300.59375 C 559.6875 300.273438 559.386719 299.972656 559.050781 299.6875 C 558.835938 299.492188 558.605469 299.3125 558.375 299.136719 C 557.984375 298.871094 557.609375 298.640625 557.238281 298.445312 C 556.402344 297.980469 555.710938 297.660156 555.265625 297.554688 C 554.660156 297.414062 554.269531 297.464844 554.109375 297.644531 C 553.773438 297.894531 553.683594 298.371094 553.933594 298.726562 C 554.09375 298.957031 554.324219 299.066406 554.574219 299.066406 L 554.519531 299.082031 C 554.519531 299.082031 554.535156 299.117188 554.554688 299.117188 C 554.804688 299.3125 555.105469 299.707031 555.550781 300.148438 C 555.886719 300.488281 556.242188 300.878906 556.652344 301.269531 C 556.847656 301.445312 557.058594 301.640625 557.289062 301.800781 C 557.628906 302.066406 557.984375 302.316406 558.320312 302.546875 C 559.671875 303.453125 560.84375 304.164062 561.09375 304.308594 C 561.449219 304.574219 561.960938 304.503906 562.230469 304.148438 C 562.511719 303.792969 562.441406 303.277344 562.085938 302.992188 C 561.890625 302.796875 561.074219 301.75 559.972656 300.59375 Z M 534.070312 344.496094 C 534.464844 344.730469 534.585938 345.242188 534.375 345.632812 C 534.144531 346.027344 533.644531 346.148438 533.238281 345.917969 C 532.597656 345.671875 531.816406 345.351562 530.964844 344.941406 C 530.484375 344.730469 530.003906 344.496094 529.542969 344.214844 C 529.152344 343.964844 528.777344 343.699219 528.441406 343.429688 C 528.03125 343.128906 527.730469 342.828125 527.429688 342.597656 C 527.25 342.472656 527.074219 342.171875 526.984375 342.1875 C 527 342.171875 527.019531 342.171875 527.019531 342.171875 C 527.109375 342.171875 527.160156 342.097656 527.199219 342.0625 C 526.894531 342.292969 526.433594 342.242188 526.167969 341.9375 C 525.863281 341.621094 525.902344 341.121094 526.21875 340.835938 C 526.398438 340.570312 526.804688 340.5 527.429688 340.519531 C 527.925781 340.535156 528.671875 340.75 529.578125 341.121094 C 529.988281 341.28125 530.414062 341.496094 530.820312 341.742188 C 531.070312 341.902344 531.320312 342.097656 531.550781 342.292969 C 532.011719 342.648438 532.4375 343.023438 532.847656 343.394531 C 533.308594 343.804688 533.699219 344.195312 534.070312 344.496094 Z M 520.039062 367.347656 C 520.375 367.648438 520.410156 368.164062 520.128906 368.519531 C 519.824219 368.855469 519.308594 368.894531 518.972656 368.609375 C 518.367188 368.199219 517.265625 367.347656 516.023438 366.296875 C 515.4375 365.800781 514.796875 365.269531 514.210938 364.699219 C 513.695312 364.203125 513.214844 363.6875 512.753906 363.1875 C 512.238281 362.621094 511.796875 362.085938 511.386719 361.644531 C 511.066406 361.304688 510.816406 361.023438 510.605469 360.84375 C 510.550781 360.824219 510.515625 360.738281 510.480469 360.71875 C 510.515625 360.703125 510.535156 360.703125 510.550781 360.703125 C 510.125 360.71875 509.753906 360.398438 509.71875 359.957031 C 509.699219 359.527344 510.035156 359.15625 510.464844 359.121094 C 510.90625 359.03125 511.972656 359.476562 513.269531 360.347656 C 513.890625 360.773438 514.566406 361.289062 515.257812 361.890625 C 515.542969 362.140625 515.828125 362.40625 516.113281 362.691406 C 516.519531 363.117188 516.910156 363.5625 517.285156 364.007812 C 518.492188 365.429688 519.488281 366.761719 520.039062 367.347656 Z M 455.320312 427.757812 L 455.339844 427.808594 L 455.355469 427.828125 C 455.339844 427.808594 455.339844 427.773438 455.320312 427.757812 Z M 462.390625 433.230469 C 461.769531 432.570312 461.148438 431.933594 460.507812 431.3125 C 460.226562 431.042969 459.941406 430.777344 459.636719 430.527344 C 459.335938 430.28125 459.015625 430.050781 458.714844 429.816406 C 458.574219 429.730469 457.84375 429.230469 457.0625 428.714844 C 456.441406 428.324219 455.800781 427.953125 455.429688 427.703125 C 455.375 427.652344 455.285156 427.597656 455.269531 427.578125 C 455.039062 427.207031 454.558594 427.082031 454.183594 427.296875 C 453.863281 427.417969 453.6875 427.738281 453.847656 428.34375 C 453.882812 428.449219 454.023438 428.644531 454.238281 428.929688 C 454.539062 429.320312 455.074219 429.90625 455.605469 430.492188 C 456.246094 431.167969 456.902344 431.773438 457.027344 431.898438 C 457.398438 432.21875 457.753906 432.570312 458.144531 432.890625 C 458.535156 433.210938 458.945312 433.515625 459.355469 433.816406 C 460.617188 434.757812 461.894531 435.609375 463.246094 436.429688 C 463.601562 436.695312 464.113281 436.625 464.382812 436.269531 C 464.664062 435.914062 464.59375 435.398438 464.238281 435.113281 C 463.601562 434.507812 462.996094 433.871094 462.390625 433.230469 Z M 445.480469 453.839844 C 445.816406 454.140625 445.851562 454.65625 445.570312 454.996094 C 445.265625 455.351562 444.75 455.386719 444.394531 455.082031 C 443.542969 454.53125 442.691406 454.019531 441.839844 453.449219 C 441.269531 453.078125 440.703125 452.683594 440.167969 452.277344 C 439.902344 452.0625 439.636719 451.832031 439.386719 451.601562 C 439.136719 451.371094 438.90625 451.121094 438.675781 450.871094 C 437.949219 450.074219 437.324219 449.273438 436.703125 448.4375 C 436.382812 448.15625 436.367188 447.65625 436.667969 447.335938 C 436.953125 447.015625 437.449219 447 437.769531 447.300781 C 438.605469 447.871094 439.476562 448.367188 440.328125 448.9375 C 440.613281 449.113281 440.878906 449.308594 441.144531 449.523438 C 441.429688 449.71875 441.679688 449.929688 441.925781 450.144531 C 442.441406 450.589844 442.921875 451.085938 443.382812 451.566406 C 444.113281 452.3125 444.789062 453.078125 445.480469 453.839844 Z M 411.125 493.214844 C 411.425781 493.535156 411.40625 494.066406 411.070312 494.367188 C 410.75 494.671875 410.21875 494.652344 409.914062 494.332031 C 409.398438 493.890625 408.53125 493.054688 407.570312 492.039062 C 407.109375 491.542969 406.609375 491.027344 406.148438 490.476562 C 405.8125 490.070312 405.507812 489.660156 405.226562 489.234375 C 404.90625 488.789062 404.640625 488.363281 404.355469 487.988281 C 404.054688 487.546875 403.820312 487.171875 403.574219 486.90625 C 403.484375 486.816406 403.464844 486.691406 403.378906 486.65625 C 402.96875 486.570312 402.683594 486.140625 402.792969 485.714844 C 402.878906 485.308594 403.308594 485.039062 403.734375 485.128906 C 404.230469 485.164062 405.046875 485.625 406.023438 486.425781 C 406.539062 486.835938 407.089844 487.351562 407.625 487.9375 C 407.855469 488.183594 408.085938 488.453125 408.296875 488.734375 C 408.601562 489.144531 408.886719 489.570312 409.167969 489.996094 C 410.003906 491.347656 410.679688 492.609375 411.125 493.214844 Z M 381.8125 505.542969 C 381.792969 505.5625 381.777344 505.578125 381.792969 505.5625 C 381.792969 505.542969 381.8125 505.542969 381.8125 505.542969 Z M 389.023438 510.234375 C 389.34375 510.554688 389.363281 511.070312 389.042969 511.40625 C 388.738281 511.726562 388.207031 511.746094 387.886719 511.425781 C 387.636719 511.265625 387.070312 510.855469 386.339844 510.289062 C 385.878906 509.949219 385.382812 509.558594 384.867188 509.117188 C 384.617188 508.902344 384.371094 508.6875 384.140625 508.457031 C 383.785156 508.085938 383.464844 507.710938 383.160156 507.339844 C 382.753906 506.839844 382.449219 506.398438 382.167969 506.042969 C 382.023438 505.882812 381.9375 505.617188 381.847656 505.542969 L 381.8125 505.542969 L 381.828125 505.542969 C 381.8125 505.542969 381.8125 505.542969 381.8125 505.542969 C 381.742188 505.527344 381.652344 505.492188 381.582031 505.457031 C 381.207031 505.222656 381.101562 504.746094 381.3125 504.371094 C 381.421875 504.105469 381.6875 504.035156 382.058594 503.964844 C 382.183594 503.945312 382.378906 504.015625 382.683594 504.121094 C 383.109375 504.28125 383.941406 504.78125 384.921875 505.507812 C 385.3125 505.792969 385.71875 506.113281 386.09375 506.484375 C 386.324219 506.71875 386.554688 506.984375 386.769531 507.230469 C 387.195312 507.746094 387.585938 508.261719 387.921875 508.726562 C 388.457031 509.433594 388.828125 510.003906 389.023438 510.234375 Z M 174.515625 330.710938 C 174.214844 330.390625 174.214844 329.875 174.535156 329.554688 C 174.851562 329.234375 175.367188 329.234375 175.6875 329.554688 C 176.558594 330.246094 177.429688 330.90625 178.28125 331.617188 C 178.851562 332.078125 179.417969 332.539062 179.96875 333.039062 C 180.308594 333.355469 180.644531 333.695312 180.964844 334.03125 C 181.175781 334.261719 181.375 334.511719 181.585938 334.742188 C 181.816406 335.046875 182.171875 335.523438 182.511719 336.039062 C 182.757812 336.394531 182.972656 336.769531 183.167969 337.035156 C 183.523438 337.054688 183.824219 337.335938 183.894531 337.691406 C 184.074219 338.261719 183.753906 338.546875 183.613281 338.707031 C 183.433594 338.917969 183.113281 338.953125 182.707031 338.882812 C 182.457031 338.828125 182.011719 338.527344 181.496094 338.101562 C 180.894531 337.621094 180.183594 336.929688 179.757812 336.589844 C 179.367188 336.253906 178.957031 335.914062 178.585938 335.542969 C 178.210938 335.1875 177.855469 334.796875 177.5 334.40625 C 176.46875 333.199219 175.527344 331.953125 174.515625 330.710938 Z M 214.308594 289.648438 C 214.328125 289.632812 214.34375 289.613281 214.363281 289.59375 L 214.378906 289.578125 C 214.328125 289.613281 214.308594 289.667969 214.273438 289.71875 Z M 205.640625 285.402344 C 206.296875 285.972656 207.023438 286.574219 207.769531 287.179688 C 208.164062 287.5 208.554688 287.800781 208.960938 288.085938 C 209.601562 288.527344 210.257812 288.921875 210.863281 289.257812 C 212.390625 290.109375 213.667969 290.679688 214.273438 290.855469 C 214.664062 290.964844 214.929688 290.980469 215.054688 290.945312 C 215.390625 290.820312 215.625 290.679688 215.695312 290.414062 C 215.710938 290.324219 215.765625 290.21875 215.746094 290.109375 C 215.746094 289.667969 215.410156 289.3125 214.964844 289.3125 L 214.949219 289.292969 C 214.449219 289.007812 213.527344 288.136719 212.300781 287.144531 C 211.75 286.71875 211.164062 286.253906 210.542969 285.8125 C 210.152344 285.527344 209.726562 285.261719 209.316406 285.011719 C 208.5 284.496094 207.683594 284.015625 206.9375 283.589844 C 205.941406 283.003906 205.089844 282.542969 204.503906 282.203125 C 204.128906 281.957031 203.613281 282.042969 203.367188 282.417969 C 203.097656 282.789062 203.1875 283.289062 203.5625 283.554688 C 204.039062 283.980469 204.769531 284.65625 205.640625 285.402344 Z M 236.78125 239.3125 C 236.460938 238.992188 236.445312 238.476562 236.746094 238.140625 C 237.066406 237.820312 237.582031 237.800781 237.917969 238.105469 C 238.984375 238.976562 240.671875 240.238281 242.429688 241.621094 C 243.015625 242.085938 243.621094 242.5625 244.207031 243.042969 C 244.597656 243.382812 244.96875 243.71875 245.34375 244.039062 C 245.859375 244.519531 246.339844 244.980469 246.800781 245.425781 C 247.671875 246.242188 248.398438 246.96875 248.96875 247.414062 C 249.179688 247.59375 249.429688 247.769531 249.5 247.839844 C 249.695312 247.824219 249.890625 247.859375 250.050781 247.984375 C 250.40625 248.230469 250.496094 248.710938 250.246094 249.066406 C 250.085938 249.386719 249.625 249.617188 248.84375 249.386719 C 248.097656 249.15625 246.605469 248.304688 244.863281 247.09375 C 244.171875 246.597656 243.441406 246.046875 242.730469 245.425781 C 242.269531 245.050781 241.84375 244.625 241.417969 244.199219 C 240.582031 243.398438 239.785156 242.582031 239.054688 241.800781 C 238.148438 240.839844 237.367188 239.96875 236.78125 239.3125 Z M 255.523438 222.238281 C 255.167969 221.953125 255.113281 221.4375 255.398438 221.082031 C 255.683594 220.726562 256.199219 220.675781 256.554688 220.957031 C 257.441406 221.492188 258.3125 221.988281 259.183594 222.558594 C 259.769531 222.914062 260.335938 223.285156 260.886719 223.695312 C 261.136719 223.855469 261.367188 224.03125 261.597656 224.226562 C 261.9375 224.511719 262.253906 224.8125 262.574219 225.097656 C 262.734375 225.242188 263.125 225.667969 263.535156 226.148438 C 263.996094 226.699219 264.457031 227.335938 264.742188 227.640625 L 264.761719 227.640625 C 264.902344 227.710938 265.042969 227.835938 265.132812 227.996094 C 265.328125 228.226562 265.257812 228.4375 265.277344 228.546875 C 265.277344 228.757812 265.132812 228.882812 265.042969 229.007812 C 264.921875 229.183594 264.671875 229.257812 264.28125 229.238281 C 264.175781 229.238281 263.996094 229.148438 263.710938 228.988281 C 263.039062 228.617188 261.3125 227.371094 260.941406 227.140625 C 260.550781 226.859375 260.140625 226.609375 259.75 226.289062 C 259.378906 225.988281 259.023438 225.667969 258.667969 225.347656 C 257.566406 224.335938 256.570312 223.285156 255.523438 222.238281 Z M 289.863281 197.808594 L 289.84375 197.789062 C 289.898438 197.789062 289.96875 197.773438 289.933594 197.808594 C 289.933594 197.824219 289.914062 197.824219 289.914062 197.824219 L 289.898438 197.824219 Z M 316.917969 166.394531 C 316.917969 166.410156 316.898438 166.410156 316.882812 166.410156 C 316.773438 166.394531 316.667969 166.375 316.5625 166.394531 C 316.722656 166.25 316.898438 166.179688 316.917969 166.394531 Z M 378.417969 97.898438 L 378.382812 97.96875 Z M 395.84375 90.332031 C 396.21875 90.082031 396.324219 89.566406 396.078125 89.191406 C 395.828125 88.820312 395.3125 88.714844 394.941406 88.960938 C 390.550781 91.875 385.738281 95.660156 380.621094 100.03125 C 380.640625 99.746094 380.566406 99.460938 380.320312 99.304688 C 380.175781 99.214844 380.015625 99.179688 379.875 99.179688 C 379.855469 99.160156 379.839844 99.144531 379.839844 99.144531 C 379.609375 99.054688 379.324219 98.824219 379.003906 98.609375 C 378.914062 98.574219 378.863281 98.539062 378.792969 98.484375 C 378.792969 98.238281 378.71875 98.007812 378.523438 97.847656 C 378.578125 97.808594 379.308594 96.796875 378.828125 97.382812 L 378.597656 97.703125 C 378.542969 97.792969 378.523438 97.828125 378.507812 97.847656 L 378.488281 97.828125 L 378.453125 97.863281 L 378.488281 97.828125 L 378.523438 97.773438 C 378.632812 97.597656 378.738281 97.417969 378.5625 97.703125 L 378.5625 97.722656 L 378.488281 97.828125 L 378.597656 97.703125 L 378.632812 97.632812 C 378.738281 97.4375 378.488281 97.847656 378.597656 97.667969 L 378.613281 97.632812 L 378.597656 97.667969 L 378.632812 97.613281 L 378.613281 97.632812 C 378.878906 97.277344 379.183594 96.851562 378.382812 97.792969 C 378.167969 97.632812 377.902344 97.652344 377.671875 97.738281 C 377.65625 97.722656 377.617188 97.6875 377.601562 97.6875 C 377.15625 97.4375 376.730469 97.171875 376.269531 96.921875 C 375.96875 96.78125 375.664062 96.621094 375.34375 96.476562 C 374.617188 96.175781 373.886719 95.910156 373.140625 95.644531 C 372.003906 95.234375 370.886719 94.898438 369.785156 94.46875 C 369.375 94.273438 368.878906 94.433594 368.683594 94.84375 C 368.46875 95.25 368.628906 95.75 369.039062 95.945312 C 369.910156 96.511719 370.761719 97.082031 371.667969 97.613281 C 372.253906 97.953125 372.839844 98.308594 373.445312 98.609375 C 373.941406 98.875 374.457031 99.125 374.972656 99.339844 C 375.488281 99.550781 376.019531 99.730469 376.554688 99.925781 C 376.75 99.976562 378.597656 100.652344 379.378906 100.761719 C 379.574219 100.777344 379.679688 100.722656 379.820312 100.707031 C 373.621094 106.054688 366.960938 112.34375 359.925781 119.417969 C 359.800781 119.023438 359.410156 118.777344 359 118.867188 C 359.039062 118.867188 359.109375 118.8125 359.109375 118.847656 C 359.109375 118.847656 359.125 118.8125 359.109375 118.792969 C 358.859375 118.667969 358.574219 118.367188 358.253906 118.082031 C 357.777344 117.675781 357.332031 117.285156 357.136719 117.140625 C 356.621094 116.785156 356.105469 116.429688 355.554688 116.109375 C 355.199219 115.898438 354.828125 115.71875 354.453125 115.542969 C 353.742188 115.207031 353.03125 114.902344 352.304688 114.601562 C 351.574219 114.28125 350.847656 114.015625 350.121094 113.710938 C 349.710938 113.5 349.214844 113.640625 349 114.050781 C 348.769531 114.441406 348.929688 114.9375 349.320312 115.167969 C 349.960938 115.632812 350.582031 116.09375 351.222656 116.554688 C 351.859375 117.015625 352.480469 117.460938 353.15625 117.886719 C 353.496094 118.101562 353.851562 118.332031 354.222656 118.527344 C 354.773438 118.828125 355.34375 119.0625 355.910156 119.328125 C 356.285156 119.453125 357.4375 120.109375 358.238281 120.320312 C 358.558594 120.394531 358.734375 120.375 358.964844 120.375 C 353.902344 125.476562 348.699219 130.910156 343.351562 136.703125 C 343.171875 136.898438 342.976562 137.128906 342.78125 137.324219 C 342.746094 137.289062 342.730469 137.238281 342.675781 137.21875 C 342.621094 137.148438 342.535156 137.023438 342.445312 136.917969 C 342.265625 136.6875 342.054688 136.492188 341.914062 136.382812 C 341.664062 136.171875 341.414062 135.976562 341.148438 135.78125 C 340.757812 135.496094 340.367188 135.246094 339.976562 134.980469 C 339.601562 134.75 339.230469 134.519531 338.839844 134.324219 C 338.449219 134.128906 338.058594 133.96875 337.648438 133.808594 C 336.421875 133.328125 335.179688 132.9375 333.898438 132.546875 C 333.492188 132.367188 333.011719 132.546875 332.816406 132.972656 C 332.640625 133.382812 332.816406 133.859375 333.226562 134.058594 C 334.007812 134.535156 334.734375 135.035156 335.5 135.511719 C 335.996094 135.851562 336.511719 136.152344 337.027344 136.472656 C 337.238281 136.597656 337.453125 136.722656 337.683594 136.847656 C 338.023438 137.023438 338.378906 137.164062 338.730469 137.324219 L 340.863281 138.144531 C 341.078125 138.214844 341.414062 138.425781 341.664062 138.570312 C 333.828125 147.082031 325.746094 156.25 317.519531 165.824219 C 317.34375 165.503906 317.148438 165.167969 316.988281 164.917969 C 316.792969 164.636719 316.617188 164.476562 316.597656 164.457031 C 316.207031 164.085938 315.832031 163.691406 315.425781 163.335938 C 315 163 314.574219 162.679688 314.109375 162.378906 C 313.578125 162.023438 313.007812 161.722656 312.441406 161.417969 C 311.585938 160.957031 310.71875 160.546875 309.847656 160.121094 C 309.472656 159.875 308.976562 159.960938 308.710938 160.351562 C 308.460938 160.726562 308.566406 161.242188 308.941406 161.488281 C 309.667969 162.113281 310.363281 162.75 311.089844 163.375 C 311.570312 163.78125 312.03125 164.207031 312.53125 164.582031 C 312.9375 164.917969 313.363281 165.222656 313.789062 165.503906 C 314.21875 165.808594 314.660156 166.054688 315.105469 166.339844 C 315.125 166.359375 315.601562 166.660156 315.941406 166.980469 L 315.921875 166.980469 C 315.871094 167.195312 315.921875 167.40625 316.027344 167.585938 C 312.261719 171.992188 308.480469 176.449219 304.675781 181 C 304.074219 180.378906 303.167969 179.542969 303.078125 179.453125 C 302.457031 178.921875 301.871094 178.371094 301.230469 177.871094 C 300.804688 177.535156 300.359375 177.230469 299.898438 176.929688 C 299.207031 176.484375 298.496094 176.09375 297.785156 175.6875 C 296.699219 175.101562 295.601562 174.566406 294.5 174.050781 C 294.109375 173.804688 293.59375 173.945312 293.363281 174.316406 C 293.128906 174.710938 293.253906 175.222656 293.644531 175.457031 C 294.605469 176.183594 295.511719 176.949219 296.453125 177.695312 C 297.09375 178.191406 297.695312 178.6875 298.335938 179.167969 C 298.761719 179.488281 299.1875 179.808594 299.632812 180.09375 C 300.308594 180.535156 300.980469 180.929688 301.675781 181.355469 C 301.765625 181.40625 302.828125 181.957031 303.523438 182.367188 C 301.460938 184.855469 299.417969 187.289062 297.339844 189.792969 C 295.03125 192.601562 292.738281 195.445312 290.429688 198.269531 C 290.339844 198.039062 290.144531 197.878906 289.914062 197.824219 C 289.898438 197.84375 289.878906 197.824219 289.863281 197.808594 C 289.753906 197.789062 289.648438 197.808594 289.542969 197.824219 C 289.59375 197.808594 289.667969 197.789062 289.753906 197.808594 C 289.773438 197.808594 289.808594 197.808594 289.84375 197.789062 C 289.753906 197.699219 289.667969 197.46875 289.558594 197.328125 C 289.222656 196.917969 288.882812 196.492188 288.777344 196.367188 C 288.296875 195.886719 287.855469 195.410156 287.355469 194.980469 C 287.039062 194.679688 286.683594 194.414062 286.328125 194.164062 C 285.792969 193.792969 285.242188 193.453125 284.675781 193.117188 C 283.820312 192.601562 282.96875 192.140625 282.097656 191.640625 C 281.726562 191.375 281.226562 191.445312 280.945312 191.820312 C 280.675781 192.175781 280.75 192.691406 281.121094 192.972656 C 281.832031 193.648438 282.488281 194.34375 283.21875 195.035156 C 283.699219 195.480469 284.160156 195.925781 284.65625 196.332031 C 284.996094 196.617188 285.332031 196.882812 285.6875 197.132812 C 286.21875 197.503906 286.769531 197.808594 287.320312 198.164062 C 287.570312 198.304688 288.617188 199.070312 289.117188 199.246094 C 289.347656 199.335938 289.453125 199.28125 289.613281 199.28125 C 283.324219 207.011719 277.054688 214.792969 270.890625 222.609375 C 262.042969 233.824219 253.390625 245.035156 245.09375 255.925781 C 241.222656 260.988281 237.472656 265.964844 233.777344 270.867188 C 233.191406 270.28125 232.089844 269.199219 230.671875 267.917969 C 230.277344 267.5625 229.851562 267.191406 229.410156 266.816406 C 229 266.460938 228.554688 266.105469 228.113281 265.769531 C 227.207031 265.09375 226.28125 264.453125 225.375 263.832031 C 223.671875 262.660156 222.125 261.683594 221.203125 261.058594 C 220.828125 260.792969 220.332031 260.847656 220.046875 261.203125 C 219.761719 261.558594 219.832031 262.089844 220.1875 262.355469 C 221.007812 263.121094 222.339844 264.382812 223.882812 265.769531 C 224.683594 266.480469 225.535156 267.242188 226.40625 267.953125 C 226.851562 268.308594 227.292969 268.628906 227.738281 268.96875 C 228.199219 269.304688 228.664062 269.625 229.105469 269.925781 C 230.6875 270.976562 231.984375 271.792969 232.75 272.253906 C 226.441406 280.640625 220.402344 288.761719 214.769531 296.398438 C 209.210938 303.953125 204.039062 311.003906 199.316406 317.527344 C 198.375 316.621094 197.058594 315.234375 195.515625 313.742188 C 195.085938 313.332031 194.644531 312.925781 194.179688 312.515625 C 193.71875 312.125 193.273438 311.714844 192.796875 311.34375 C 191.835938 310.578125 190.824219 309.851562 189.863281 309.175781 C 188.035156 307.894531 186.328125 306.867188 185.140625 306.261719 C 184.75 306.046875 184.25 306.171875 184.019531 306.5625 C 183.789062 306.953125 183.914062 307.453125 184.304688 307.683594 C 185.53125 308.535156 187.253906 310.097656 189.152344 311.824219 C 189.792969 312.375 190.433594 312.960938 191.089844 313.527344 C 191.535156 313.902344 191.980469 314.257812 192.441406 314.613281 C 193.433594 315.375 194.429688 316.105469 195.335938 316.761719 C 196.527344 317.597656 197.59375 318.273438 198.375 318.789062 C 198.375 318.789062 198.390625 318.789062 198.390625 318.789062 C 181.265625 342.417969 170.449219 357.929688 170.449219 357.929688 C 170.199219 358.285156 170.289062 358.78125 170.644531 359.03125 C 171 359.28125 171.476562 359.191406 171.746094 358.835938 C 171.746094 358.835938 172.152344 358.269531 172.863281 357.273438 C 172.882812 357.398438 172.917969 357.484375 172.933594 357.539062 C 173.09375 357.875 173.644531 358.339844 174.285156 357.679688 C 174.5 357.484375 175.066406 356.527344 175.402344 356.222656 C 175.796875 355.867188 176.238281 355.566406 176.683594 355.28125 C 177.144531 355 177.605469 354.75 178.105469 354.535156 C 179.488281 353.914062 180.964844 353.46875 182.457031 353.132812 C 184.75 352.636719 187.128906 352.367188 189.421875 352.207031 C 192.246094 351.960938 195.390625 352.085938 198.640625 352.136719 C 203.402344 352.226562 208.375 352.246094 212.886719 351.355469 C 216.457031 350.664062 219.726562 349.402344 222.410156 347.144531 C 222.78125 346.859375 222.835938 346.34375 222.550781 345.988281 C 222.265625 345.632812 221.753906 345.582031 221.398438 345.867188 C 218.839844 347.765625 215.78125 348.726562 212.53125 349.1875 C 208.125 349.847656 203.3125 349.5625 198.710938 349.402344 C 195.355469 349.292969 192.101562 349.277344 189.171875 349.578125 C 186.753906 349.863281 184.285156 350.238281 181.90625 350.910156 C 180.273438 351.375 178.707031 351.976562 177.234375 352.757812 C 176.683594 353.0625 176.148438 353.382812 175.636719 353.738281 C 175.421875 353.898438 175.226562 354.09375 175.03125 354.269531 C 181.285156 345.617188 196.027344 325.308594 215.375 299.472656 C 223.28125 288.902344 232.019531 277.371094 241.203125 265.378906 C 241.433594 265.253906 241.613281 265.058594 241.648438 264.808594 C 241.648438 264.792969 241.648438 264.792969 241.667969 264.773438 L 241.648438 264.808594 C 241.683594 264.808594 241.667969 264.773438 241.667969 264.773438 C 241.773438 264.632812 241.878906 264.488281 241.984375 264.347656 C 242.589844 263.636719 243.335938 262.960938 244.1875 262.339844 C 245.699219 261.183594 247.421875 260.191406 248.824219 259.496094 C 250.351562 258.679688 251.898438 258.039062 253.425781 257.363281 C 255.824219 256.296875 258.207031 255.234375 260.496094 253.917969 C 262.132812 252.992188 263.695312 251.929688 265.1875 250.613281 C 265.542969 250.328125 265.59375 249.8125 265.328125 249.457031 C 265.042969 249.101562 264.511719 249.03125 264.175781 249.316406 C 262.644531 250.417969 261.082031 251.234375 259.484375 251.980469 C 257.140625 253.066406 254.722656 253.863281 252.34375 254.859375 C 250.726562 255.515625 249.128906 256.296875 247.546875 257.1875 C 247.511719 257.203125 247.457031 257.257812 247.402344 257.277344 C 251.5625 251.890625 255.789062 246.417969 260.089844 240.894531 C 268.027344 230.695312 276.183594 220.320312 284.40625 210.03125 C 296.878906 194.429688 309.507812 178.972656 321.839844 164.527344 C 350.191406 131.25 376.855469 103.210938 395.84375 90.332031 " fill-opacity="1" fill-rule="nonzero"/></g></svg>