<svg xmlns="http://www.w3.org/2000/svg" xmlns:xlink="http://www.w3.org/1999/xlink" width="1032" zoomAndPan="magnify" viewBox="0 0 774 582" height="776" preserveAspectRatio="xMidYMid meet" version="1.0"><defs><clipPath id="c54fe4cff8"><path d="M 701 347 L 744.601562 347 L 744.601562 440 L 701 440 Z M 701 347 " clip-rule="nonzero"/></clipPath><clipPath id="4fded3ed25"><path d="M 29.101562 468 L 732 468 L 732 470 L 29.101562 470 Z M 29.101562 468 " clip-rule="nonzero"/></clipPath><clipPath id="7597ddec12"><path d="M 598 58.199219 L 698 58.199219 L 698 164 L 598 164 Z M 598 58.199219 " clip-rule="nonzero"/></clipPath><clipPath id="272405de18"><path d="M 559 447 L 601 447 L 601 476.699219 L 559 476.699219 Z M 559 447 " clip-rule="nonzero"/></clipPath><clipPath id="572e9ba46f"><path d="M 29.101562 326 L 67 326 L 67 393 L 29.101562 393 Z M 29.101562 326 " clip-rule="nonzero"/></clipPath></defs><path fill="#000000" d="M 573.625 255.804688 C 572.195312 253.375 570.335938 251.234375 568.765625 248.945312 C 567.195312 246.519531 565.765625 244.089844 564.476562 241.515625 C 564.191406 240.800781 563.765625 240.089844 563.476562 239.375 C 563.335938 239.089844 563.191406 238.660156 563.050781 238.375 C 562.90625 238.085938 562.761719 237.660156 562.476562 237.660156 C 562.476562 237.660156 562.335938 237.660156 562.335938 237.800781 C 562.191406 238.085938 562.191406 238.230469 562.335938 238.515625 C 562.476562 238.945312 562.621094 239.230469 562.761719 239.515625 C 563.050781 240.230469 563.335938 240.800781 563.621094 241.375 C 564.191406 242.660156 564.90625 243.945312 565.621094 245.230469 C 567.050781 247.804688 568.621094 250.234375 570.335938 252.519531 C 571.335938 253.804688 572.339844 255.089844 573.625 256.089844 C 573.480469 256.089844 573.765625 255.949219 573.625 255.804688 Z M 573.625 255.804688 " fill-opacity="1" fill-rule="nonzero"/><path fill="#000000" d="M 569.765625 256.519531 C 569.335938 255.375 568.621094 254.375 568.050781 253.375 C 567.335938 252.375 566.765625 251.234375 566.191406 250.234375 C 565.050781 248.089844 563.90625 245.804688 562.90625 243.660156 C 562.621094 243.089844 562.335938 242.375 562.050781 241.660156 C 561.761719 241.089844 561.476562 240.375 561.191406 239.800781 C 561.191406 239.660156 561.046875 239.800781 561.046875 239.800781 C 561.046875 240.945312 561.621094 242.230469 562.050781 243.230469 C 562.476562 244.375 563.050781 245.519531 563.476562 246.660156 C 564.476562 248.945312 565.765625 251.089844 566.90625 253.234375 C 567.621094 254.375 568.335938 255.664062 569.335938 256.519531 C 569.480469 256.804688 569.765625 256.804688 569.765625 256.519531 Z M 569.765625 256.519531 " fill-opacity="1" fill-rule="nonzero"/><path fill="#43935e" d="M 684.375 373.96875 C 686.375 352.535156 692.375 331.246094 704.238281 313.386719 C 706.382812 310.242188 708.667969 307.242188 711.8125 304.957031 C 714.957031 302.8125 718.957031 301.671875 722.527344 302.671875 C 727.246094 304.097656 730.390625 308.8125 731.101562 313.671875 C 731.816406 318.53125 730.675781 323.53125 729.53125 328.246094 C 720.242188 364.824219 705.808594 400.972656 707.238281 438.695312 C 707.238281 438.121094 689.804688 438.695312 688.089844 437.691406 C 684.089844 435.265625 685.089844 423.832031 684.804688 419.691406 C 683.375 404.402344 682.945312 389.113281 684.375 373.96875 Z M 684.375 373.96875 " fill-opacity="1" fill-rule="nonzero"/><g clip-path="url(#c54fe4cff8)"><path fill="#43935e" d="M 721.816406 439.121094 C 728.386719 417.832031 734.960938 396.542969 741.535156 375.253906 C 742.964844 370.394531 744.535156 365.394531 744.109375 360.394531 C 743.679688 355.394531 741.105469 350.105469 736.390625 348.25 C 731.960938 346.390625 726.816406 347.964844 723.101562 350.820312 C 719.386719 353.820312 716.957031 357.964844 714.8125 362.109375 C 702.953125 385.398438 698.808594 412.6875 703.09375 438.40625 C 709.238281 440.265625 715.527344 440.265625 721.816406 439.121094 Z M 721.816406 439.121094 " fill-opacity="1" fill-rule="nonzero"/></g><path fill="#000000" d="M 707.09375 439.121094 C 706.808594 439.121094 706.667969 438.980469 706.667969 438.695312 C 705.523438 410.117188 713.667969 382.113281 721.527344 354.964844 C 724.101562 346.25 726.671875 337.105469 728.960938 328.101562 C 728.960938 327.816406 729.246094 327.675781 729.53125 327.816406 C 729.816406 327.816406 729.960938 328.101562 729.816406 328.390625 C 727.53125 337.390625 724.957031 346.390625 722.386719 355.25 C 714.527344 382.253906 706.382812 410.261719 707.523438 438.695312 C 707.523438 438.980469 707.382812 439.121094 707.09375 439.121094 Z M 707.09375 439.121094 " fill-opacity="1" fill-rule="nonzero"/><g clip-path="url(#4fded3ed25)"><path fill="#000000" d="M 29.59375 468.554688 L 731.246094 468.554688 L 731.246094 469.269531 L 29.59375 469.269531 Z M 29.59375 468.554688 " fill-opacity="1" fill-rule="nonzero"/></g><path fill="#43935e" d="M 409.429688 309.957031 C 404.570312 301.097656 395.996094 294.667969 386.136719 291.8125 C 388.136719 300.8125 394.28125 308.8125 402.570312 312.816406 C 402.996094 312.957031 403.425781 312.957031 403.855469 312.957031 C 404.285156 312.957031 404.570312 312.671875 405 312.527344 C 406.570312 311.527344 407.855469 310.816406 409.429688 309.957031 Z M 409.429688 309.957031 " fill-opacity="1" fill-rule="nonzero"/><path fill="#f5746f" d="M 414.859375 310.242188 C 414.144531 305.386719 413.285156 300.527344 412 295.8125 C 410.570312 291.097656 408.570312 286.523438 405.425781 282.808594 C 401.710938 278.378906 396.566406 275.378906 390.996094 273.949219 C 390.566406 288.8125 397.28125 303.671875 408.714844 313.101562 C 410.859375 312.242188 412.859375 311.671875 414.859375 310.242188 Z M 414.859375 310.242188 " fill-opacity="1" fill-rule="nonzero"/><path fill="#43935e" d="M 428.863281 309.957031 C 433.722656 301.097656 442.296875 294.667969 452.15625 291.8125 C 450.15625 300.8125 444.011719 308.8125 435.722656 312.816406 C 435.292969 312.957031 434.867188 312.957031 434.4375 312.957031 C 434.007812 312.957031 433.722656 312.671875 433.292969 312.527344 C 431.722656 311.527344 430.578125 310.816406 428.863281 309.957031 Z M 428.863281 309.957031 " fill-opacity="1" fill-rule="nonzero"/><path fill="#f5746f" d="M 425.433594 310.242188 C 426.148438 305.386719 427.003906 300.527344 428.292969 295.8125 C 429.722656 291.097656 431.722656 286.523438 434.867188 282.808594 C 438.582031 278.378906 443.726562 275.378906 449.296875 273.949219 C 449.726562 288.8125 443.011719 303.671875 431.578125 313.101562 C 429.292969 312.242188 427.292969 311.671875 425.433594 310.242188 Z M 425.433594 310.242188 " fill-opacity="1" fill-rule="nonzero"/><path fill="#43935e" d="M 426.863281 311.386719 C 428.148438 309.527344 428.433594 307.242188 428.578125 304.957031 C 430.292969 284.953125 426.148438 265.09375 416.574219 247.519531 C 411.144531 257.089844 408 267.949219 407.855469 278.953125 C 407.714844 289.953125 410.285156 300.957031 415.429688 310.671875 C 417.144531 313.816406 423.71875 312.957031 426.863281 311.386719 Z M 426.863281 311.386719 " fill-opacity="1" fill-rule="nonzero"/><path fill="#f5746f" d="M 397.140625 308.957031 L 441.4375 308.957031 L 439.582031 343.25 L 398.996094 343.25 Z M 397.140625 308.957031 " fill-opacity="1" fill-rule="nonzero"/><path fill="#ffffff" d="M 400.570312 314.386719 L 437.4375 314.386719 L 437.4375 315.957031 L 400.570312 315.957031 Z M 400.570312 314.386719 " fill-opacity="1" fill-rule="nonzero"/><g clip-path="url(#7597ddec12)"><path fill="#ffffff" d="M 598.632812 58.199219 L 697.519531 58.199219 L 697.519531 163.21875 L 598.632812 163.21875 Z M 598.632812 58.199219 " fill-opacity="1" fill-rule="nonzero"/></g><path fill="#000000" d="M 613.496094 86.492188 L 610.636719 86.492188 L 610.636719 78.632812 L 609.351562 78.632812 L 609.351562 76.773438 L 611.066406 75.917969 L 613.351562 75.917969 Z M 613.496094 86.492188 " fill-opacity="1" fill-rule="nonzero"/><path fill="#000000" d="M 615.921875 85.347656 C 615.921875 84.917969 616.066406 84.488281 616.210938 84.347656 C 616.496094 84.0625 616.78125 84.0625 617.351562 84.0625 C 617.925781 84.0625 618.210938 84.203125 618.496094 84.347656 C 618.78125 84.632812 618.78125 84.917969 618.78125 85.347656 C 618.78125 86.203125 618.351562 86.632812 617.351562 86.632812 C 616.351562 86.632812 615.921875 86.203125 615.921875 85.347656 Z M 615.921875 85.347656 " fill-opacity="1" fill-rule="nonzero"/><path fill="#000000" d="M 609.351562 104.78125 C 610.492188 104.207031 611.492188 103.921875 612.636719 103.921875 C 613.78125 103.921875 614.496094 104.207031 615.066406 104.78125 C 615.636719 105.351562 615.921875 106.066406 615.921875 107.066406 C 615.921875 108.066406 615.78125 108.921875 615.351562 109.496094 C 615.066406 110.066406 614.351562 111.066406 613.351562 112.066406 L 615.921875 112.066406 L 615.921875 114.496094 L 609.777344 114.496094 L 609.636719 112.78125 C 610.777344 111.636719 611.492188 110.78125 611.921875 110.207031 C 612.351562 109.636719 612.636719 109.207031 612.78125 108.78125 C 612.921875 108.351562 613.066406 108.066406 613.066406 107.636719 C 613.066406 107.351562 612.921875 107.066406 612.78125 106.921875 C 612.636719 106.78125 612.351562 106.636719 612.207031 106.636719 C 611.921875 106.636719 611.636719 106.636719 611.492188 106.78125 C 611.207031 106.921875 610.636719 107.066406 609.921875 107.351562 Z M 609.351562 104.78125 " fill-opacity="1" fill-rule="nonzero"/><path fill="#000000" d="M 617.496094 113.496094 C 617.496094 113.066406 617.636719 112.636719 617.78125 112.496094 C 618.066406 112.210938 618.351562 112.210938 618.925781 112.210938 C 619.496094 112.210938 619.78125 112.351562 620.066406 112.496094 C 620.355469 112.78125 620.355469 113.066406 620.355469 113.496094 C 620.355469 114.351562 619.925781 114.78125 618.925781 114.78125 C 617.925781 114.78125 617.496094 114.351562 617.496094 113.496094 Z M 617.496094 113.496094 " fill-opacity="1" fill-rule="nonzero"/><path fill="#000000" d="M 612.921875 134.785156 C 615.066406 134.785156 616.066406 135.640625 616.066406 137.5 C 616.066406 138.070312 615.921875 138.5 615.78125 138.929688 C 615.636719 139.355469 615.210938 139.640625 614.78125 139.929688 C 615.351562 140.214844 615.636719 140.5 615.921875 140.929688 C 616.210938 141.355469 616.210938 141.785156 616.210938 142.5 C 616.210938 143.5 615.921875 144.359375 615.351562 144.929688 C 614.78125 145.5 613.921875 145.785156 612.78125 145.785156 C 612.207031 145.785156 611.78125 145.785156 611.351562 145.644531 C 610.921875 145.5 610.492188 145.359375 609.921875 145.070312 L 610.492188 142.644531 C 611.492188 142.929688 612.066406 143.214844 612.492188 143.214844 C 613.066406 143.214844 613.351562 142.929688 613.351562 142.355469 C 613.351562 141.785156 613.066406 141.355469 612.351562 141.355469 L 611.351562 141.355469 L 611.351562 139.070312 L 612.351562 139.070312 C 612.636719 139.070312 612.921875 139.070312 613.066406 138.929688 C 613.207031 138.785156 613.207031 138.640625 613.207031 138.355469 C 613.207031 137.785156 612.921875 137.5 612.351562 137.5 C 611.921875 137.5 611.351562 137.640625 610.351562 138.070312 L 609.636719 135.785156 C 610.207031 135.5 610.777344 135.214844 611.351562 135.070312 C 611.636719 134.925781 612.207031 134.785156 612.921875 134.785156 Z M 612.921875 134.785156 " fill-opacity="1" fill-rule="nonzero"/><path fill="#000000" d="M 617.636719 144.359375 C 617.636719 143.929688 617.78125 143.5 617.925781 143.355469 C 618.210938 143.070312 618.496094 143.070312 619.066406 143.070312 C 619.640625 143.070312 619.925781 143.214844 620.210938 143.355469 C 620.496094 143.644531 620.496094 143.929688 620.496094 144.359375 C 620.496094 145.214844 620.066406 145.644531 619.066406 145.644531 C 618.210938 145.644531 617.636719 145.214844 617.636719 144.359375 Z M 617.636719 144.359375 " fill-opacity="1" fill-rule="nonzero"/><path fill="#000000" d="M 635.074219 77.347656 L 686.089844 77.347656 L 686.089844 80.347656 L 635.074219 80.347656 Z M 635.074219 77.347656 " fill-opacity="1" fill-rule="nonzero"/><path fill="#000000" d="M 627.355469 83.488281 L 686.089844 83.488281 L 686.089844 86.492188 L 627.355469 86.492188 Z M 627.355469 83.488281 " fill-opacity="1" fill-rule="nonzero"/><path fill="#000000" d="M 635.074219 105.636719 L 686.089844 105.636719 L 686.089844 108.636719 L 635.074219 108.636719 Z M 635.074219 105.636719 " fill-opacity="1" fill-rule="nonzero"/><path fill="#000000" d="M 627.355469 111.78125 L 686.089844 111.78125 L 686.089844 114.78125 L 627.355469 114.78125 Z M 627.355469 111.78125 " fill-opacity="1" fill-rule="nonzero"/><path fill="#000000" d="M 635.074219 136.5 L 686.089844 136.5 L 686.089844 139.5 L 635.074219 139.5 Z M 635.074219 136.5 " fill-opacity="1" fill-rule="nonzero"/><path fill="#000000" d="M 627.355469 142.644531 L 686.089844 142.644531 L 686.089844 145.644531 L 627.355469 145.644531 Z M 627.355469 142.644531 " fill-opacity="1" fill-rule="nonzero"/><path fill="#43935e" d="M 669.082031 439.121094 C 662.511719 417.832031 655.9375 396.542969 649.363281 375.253906 C 647.933594 370.394531 646.363281 365.394531 646.789062 360.394531 C 647.21875 355.394531 649.792969 350.105469 654.507812 348.25 C 658.9375 346.390625 664.082031 347.964844 667.796875 350.820312 C 671.511719 353.820312 673.941406 357.964844 676.085938 362.109375 C 687.945312 385.398438 692.089844 412.6875 687.804688 438.40625 C 681.660156 440.265625 675.371094 440.265625 669.082031 439.121094 Z M 669.082031 439.121094 " fill-opacity="1" fill-rule="nonzero"/><path fill="#43935e" d="M 648.792969 438.980469 C 641.789062 421.546875 634.785156 404.117188 627.785156 386.828125 C 626.210938 382.828125 624.640625 378.824219 624.496094 374.539062 C 624.496094 370.253906 626.355469 365.679688 630.070312 363.824219 C 633.644531 361.964844 638.074219 362.824219 641.359375 365.109375 C 644.648438 367.253906 647.078125 370.683594 649.078125 374.109375 C 660.652344 392.828125 666.082031 415.402344 664.367188 437.265625 C 659.507812 439.121094 654.078125 439.550781 648.792969 438.980469 Z M 648.792969 438.980469 " fill-opacity="1" fill-rule="nonzero"/><path fill="#5296a3" d="M 731.101562 433.121094 L 634.359375 433.121094 L 639.074219 468.839844 L 726.246094 468.839844 Z M 731.101562 433.121094 " fill-opacity="1" fill-rule="nonzero"/><path fill="#ffffff" d="M 587.628906 276.664062 C 575.625 280.378906 563.050781 281.09375 550.761719 278.378906 C 538.757812 260.664062 533.46875 238.515625 536.183594 217.371094 C 547.472656 220.65625 559.191406 221.941406 570.910156 222.515625 C 573.625 235.230469 577.769531 246.660156 583.769531 258.089844 C 586.914062 263.949219 586.34375 270.234375 587.628906 276.664062 Z M 587.628906 276.664062 " fill-opacity="1" fill-rule="nonzero"/><path fill="#f5746f" d="M 552.761719 446.695312 L 532.898438 442.550781 L 530.039062 453.695312 L 518.605469 458.695312 L 519.605469 461.984375 L 526.179688 465.699219 L 537.753906 466.414062 L 545.1875 459.984375 L 545.1875 455.125 L 550.902344 455.695312 Z M 552.761719 446.695312 " fill-opacity="1" fill-rule="nonzero"/><path fill="#ffffff" d="M 551.902344 454.839844 L 549.902344 470.269531 L 503.03125 465.554688 L 518.605469 458.695312 C 521.035156 461.410156 524.464844 462.984375 528.324219 462.984375 C 534.183594 462.984375 539.183594 459.125 540.898438 453.695312 Z M 551.902344 454.839844 " fill-opacity="1" fill-rule="nonzero"/><path fill="#000000" d="M 499.742188 467.125 L 549.617188 472.128906 L 549.902344 470.269531 L 503.03125 465.699219 Z M 499.742188 467.125 " fill-opacity="1" fill-rule="nonzero"/><path fill="#f5746f" d="M 587.484375 427.40625 L 569.335938 436.835938 L 574.195312 447.125 L 568.480469 458.269531 L 571.335938 460.269531 L 578.625 458.984375 L 588.058594 452.265625 L 589.914062 442.550781 L 586.769531 438.835938 L 591.628906 435.691406 Z M 587.484375 427.40625 " fill-opacity="1" fill-rule="nonzero"/><path fill="#ffffff" d="M 591.773438 434.40625 L 599.917969 447.695312 L 560.621094 473.554688 L 568.335938 458.269531 C 571.910156 458.839844 575.625 457.984375 578.625 455.554688 C 583.199219 451.839844 584.628906 445.695312 582.484375 440.40625 Z M 591.773438 434.40625 " fill-opacity="1" fill-rule="nonzero"/><g clip-path="url(#272405de18)"><path fill="#000000" d="M 559.046875 476.699219 L 600.917969 449.125 L 600.0625 447.695312 L 560.621094 473.554688 Z M 559.046875 476.699219 " fill-opacity="1" fill-rule="nonzero"/></g><path fill="#43935e" d="M 589.628906 432.265625 C 589.058594 432.550781 588.628906 432.691406 588.058594 433.121094 C 582.054688 437.550781 575.195312 440.695312 567.90625 442.121094 C 565.765625 439.40625 563.765625 436.550781 562.621094 433.265625 C 562.761719 433.265625 562.761719 433.121094 562.90625 433.121094 C 560.191406 438.121094 557.90625 442.835938 555.902344 448.265625 C 545.042969 448.410156 534.753906 445.410156 525.324219 440.121094 C 531.324219 427.40625 533.753906 415.117188 535.613281 401.117188 C 537.46875 387.113281 538.042969 372.683594 541.757812 358.964844 C 545.472656 345.25 552.617188 331.816406 564.476562 324.101562 C 573.910156 317.957031 585.484375 316.101562 596.632812 314.242188 C 607.0625 312.527344 617.496094 310.957031 627.925781 309.242188 C 633.070312 318.386719 637.214844 327.960938 638.789062 338.390625 C 640.359375 348.679688 638.789062 359.824219 632.929688 368.394531 C 628.214844 375.398438 620.925781 380.398438 615.066406 386.398438 C 603.347656 398.828125 595.488281 416.261719 589.628906 432.265625 Z M 589.628906 432.265625 " fill-opacity="1" fill-rule="nonzero"/><path fill="#ffffff" d="M 679.085938 251.519531 C 691.804688 319.816406 679.800781 343.820312 679.800781 343.820312 L 640.503906 346.820312 C 640.503906 346.820312 623.640625 350.394531 626.640625 339.820312 C 629.640625 329.246094 621.925781 311.957031 621.925781 311.957031 C 607.347656 306.386719 583.628906 286.808594 583.628906 286.808594 L 600.347656 267.519531 C 611.066406 279.378906 626.640625 281.382812 626.640625 281.382812 L 625.785156 270.09375 L 638.929688 246.375 C 638.929688 246.375 645.933594 241.375 646.503906 241.375 C 647.078125 241.375 667.082031 231.515625 667.082031 231.515625 L 674.515625 237.660156 Z M 679.085938 251.519531 " fill-opacity="1" fill-rule="nonzero"/><path fill="#000000" d="M 686.375 252.660156 C 686.089844 253.519531 685.515625 253.949219 684.515625 254.234375 C 683.660156 254.519531 682.660156 254.375 681.660156 254.089844 C 678.945312 253.375 676.371094 251.660156 674.941406 249.234375 C 673.371094 246.804688 672.941406 243.804688 673.511719 241.089844 C 670.511719 243.089844 666.082031 241.660156 663.367188 239.230469 C 662.9375 238.800781 662.367188 238.230469 661.796875 237.660156 C 660.796875 236.375 659.652344 234.945312 658.792969 233.371094 C 657.652344 231.371094 656.792969 229.230469 656.652344 227.515625 C 656.507812 223.941406 658.222656 220.511719 659.082031 217.085938 C 659.507812 215.371094 661.796875 215.511719 662.222656 213.941406 C 652.933594 206.226562 640.074219 202.367188 632.214844 193.222656 C 628.785156 189.078125 627.785156 182.9375 629.785156 177.933594 C 631.785156 172.933594 636.789062 169.363281 642.21875 168.789062 C 647.648438 168.363281 653.078125 171.078125 656.078125 175.648438 C 661.222656 175.933594 666.226562 176.507812 670.65625 179.21875 C 675.085938 181.933594 678.515625 186.507812 678.800781 191.652344 C 679.085938 195.367188 677.65625 199.082031 677.800781 202.9375 C 678.085938 211.65625 686.089844 218.511719 687.375 227.230469 C 688.804688 235.660156 683.375 244.515625 686.375 252.660156 Z M 686.375 252.660156 " fill-opacity="1" fill-rule="nonzero"/><path fill="#f5746f" d="M 660.367188 235.515625 C 656.078125 237.375 652.078125 238.515625 647.363281 239.230469 C 646.789062 236.945312 646.21875 234.800781 645.648438 232.515625 C 647.933594 231.371094 650.21875 229.65625 651.933594 227.941406 C 654.792969 224.941406 656.9375 221.085938 657.792969 217.085938 C 653.222656 218.371094 648.792969 219.800781 644.21875 221.085938 C 643.789062 221.226562 643.359375 221.371094 642.789062 221.511719 C 642.644531 220.941406 642.503906 220.371094 642.359375 219.800781 C 644.074219 220.511719 645.648438 220.085938 647.363281 219.226562 C 651.792969 217.226562 656.222656 215.082031 660.652344 213.082031 C 661.082031 213.941406 661.652344 214.941406 662.082031 215.796875 C 653.9375 229.65625 660.367188 235.515625 660.367188 235.515625 Z M 660.367188 235.515625 " fill-opacity="1" fill-rule="nonzero"/><path fill="#000000" d="M 642.789062 221.511719 C 643.789062 225.226562 644.648438 228.945312 645.648438 232.515625 C 647.933594 231.371094 650.21875 229.65625 651.933594 227.941406 C 654.792969 224.941406 656.9375 221.085938 657.792969 217.085938 C 653.222656 218.371094 648.792969 219.800781 644.21875 221.085938 C 643.648438 221.085938 643.21875 221.226562 642.789062 221.511719 Z M 642.789062 221.511719 " fill-opacity="1" fill-rule="nonzero"/><path fill="#f5746f" d="M 625.785156 205.796875 C 625.785156 216.511719 634.5 225.226562 645.21875 225.226562 C 652.648438 225.226562 659.082031 221.085938 662.367188 214.941406 C 663.222656 215.371094 664.226562 215.65625 665.226562 215.65625 C 668.511719 215.65625 671.085938 213.082031 671.085938 209.796875 C 671.085938 206.652344 668.511719 203.9375 665.226562 203.9375 C 665.082031 203.9375 664.796875 203.9375 664.652344 203.9375 C 664.652344 203.9375 662.367188 204.796875 662.222656 206.511719 C 662.222656 206.511719 657.078125 202.9375 658.652344 196.9375 C 658.652344 196.9375 652.792969 186.9375 638.789062 187.222656 C 631.070312 190.222656 625.785156 197.367188 625.785156 205.796875 Z M 625.785156 205.796875 " fill-opacity="1" fill-rule="nonzero"/><path fill="#000000" d="M 639.644531 201.511719 C 639.644531 201.699219 639.609375 201.882812 639.535156 202.058594 C 639.464844 202.230469 639.359375 202.386719 639.226562 202.519531 C 639.09375 202.65625 638.9375 202.757812 638.761719 202.832031 C 638.589844 202.902344 638.40625 202.9375 638.214844 202.9375 C 638.027344 202.9375 637.84375 202.902344 637.667969 202.832031 C 637.496094 202.757812 637.339844 202.65625 637.207031 202.519531 C 637.070312 202.386719 636.96875 202.230469 636.894531 202.058594 C 636.824219 201.882812 636.789062 201.699219 636.789062 201.511719 C 636.789062 201.320312 636.824219 201.136719 636.894531 200.964844 C 636.96875 200.789062 637.070312 200.632812 637.207031 200.5 C 637.339844 200.367188 637.496094 200.261719 637.667969 200.191406 C 637.84375 200.117188 638.027344 200.082031 638.214844 200.082031 C 638.40625 200.082031 638.589844 200.117188 638.761719 200.191406 C 638.9375 200.261719 639.09375 200.367188 639.226562 200.5 C 639.359375 200.632812 639.464844 200.789062 639.535156 200.964844 C 639.609375 201.136719 639.644531 201.320312 639.644531 201.511719 Z M 639.644531 201.511719 " fill-opacity="1" fill-rule="nonzero"/><path fill="#000000" d="M 663.367188 210.796875 C 663.652344 209.796875 664.367188 209.082031 665.226562 208.511719 C 666.226562 207.941406 667.367188 207.796875 668.367188 207.941406 C 668.796875 208.082031 668.65625 208.652344 668.226562 208.511719 C 666.367188 208.226562 664.652344 209.226562 663.9375 210.941406 C 663.796875 211.367188 663.222656 211.226562 663.367188 210.796875 Z M 663.367188 210.796875 " fill-opacity="1" fill-rule="nonzero"/><path fill="#000000" d="M 638.929688 208.082031 C 638.644531 208.226562 638.503906 208.226562 638.214844 208.511719 C 637.929688 208.652344 637.789062 208.796875 637.5 208.941406 C 637.074219 209.226562 636.5 209.367188 635.929688 209.367188 C 635.359375 209.367188 634.785156 209.226562 634.359375 208.941406 C 634.070312 208.796875 633.929688 208.652344 633.644531 208.511719 C 633.359375 208.367188 633.214844 208.082031 633.070312 207.941406 C 632.929688 207.796875 632.644531 208.082031 632.644531 208.226562 C 632.785156 208.796875 633.5 209.367188 633.929688 209.65625 C 634.5 209.941406 635.214844 210.226562 635.929688 210.226562 C 636.644531 210.226562 637.359375 210.082031 637.929688 209.796875 C 638.214844 209.65625 638.503906 209.367188 638.789062 209.226562 C 638.929688 209.082031 638.929688 208.941406 639.074219 208.796875 C 639.214844 208.652344 639.074219 208.511719 639.214844 208.226562 C 639.214844 208.082031 639.074219 207.941406 638.929688 208.082031 Z M 638.929688 208.082031 " fill-opacity="1" fill-rule="nonzero"/><path fill="#f5746f" d="M 600.488281 268.378906 C 594.34375 264.378906 589.199219 258.664062 585.914062 252.089844 C 585.628906 251.375 585.199219 250.660156 584.769531 250.234375 C 584.199219 249.660156 583.484375 249.375 582.769531 249.519531 C 581.484375 249.804688 581.054688 251.375 581.054688 252.660156 C 575.910156 248.234375 570.910156 243.804688 565.90625 239.375 C 565.335938 238.800781 564.765625 238.375 564.050781 238.085938 C 563.335938 237.800781 562.476562 237.800781 561.761719 238.230469 C 560.761719 239.089844 560.90625 240.660156 561.335938 241.945312 C 565.90625 257.804688 575.054688 272.378906 587.484375 283.382812 C 591.488281 278.238281 596.203125 273.523438 600.488281 268.378906 Z M 600.488281 268.378906 " fill-opacity="1" fill-rule="nonzero"/><path fill="#000000" d="M 614.207031 278.238281 C 619.78125 280.808594 625.640625 282.382812 631.644531 283.523438 C 633.070312 283.808594 634.5 283.953125 635.785156 284.238281 L 635.929688 284.238281 C 636.214844 284.238281 636.644531 284.382812 636.929688 284.382812 C 637.789062 284.523438 638.789062 284.667969 639.644531 284.808594 C 640.503906 284.953125 641.503906 285.238281 642.359375 285.097656 C 642.644531 285.097656 642.933594 284.523438 642.503906 284.382812 C 641.789062 284.097656 641.074219 283.953125 640.21875 283.953125 C 639.359375 283.808594 638.644531 283.667969 637.789062 283.667969 C 637.214844 283.523438 636.789062 283.523438 636.214844 283.382812 C 636.214844 282.808594 636.214844 282.238281 636.214844 281.667969 C 636.214844 280.953125 636.359375 280.09375 636.359375 279.378906 C 636.5 277.808594 636.789062 276.238281 637.074219 274.664062 C 637.644531 271.664062 638.644531 268.664062 639.929688 265.808594 C 640.21875 264.949219 640.644531 264.234375 640.929688 263.378906 C 641.359375 262.519531 641.644531 261.664062 642.074219 260.949219 C 642.21875 260.804688 641.933594 260.519531 641.789062 260.804688 C 641.359375 261.519531 640.789062 262.09375 640.359375 262.804688 C 639.929688 263.519531 639.644531 264.09375 639.214844 264.808594 C 638.503906 266.234375 637.929688 267.664062 637.5 269.234375 C 636.5 272.238281 635.785156 275.378906 635.5 278.523438 C 635.359375 279.378906 635.359375 280.238281 635.359375 281.238281 C 635.359375 281.808594 635.359375 282.523438 635.359375 283.09375 C 634.644531 282.953125 633.785156 282.808594 633.070312 282.667969 C 629.929688 282.09375 626.785156 281.523438 623.78125 280.667969 C 618.351562 279.238281 613.066406 277.09375 608.351562 273.949219 C 605.777344 272.238281 603.492188 270.234375 601.347656 267.949219 C 601.0625 267.664062 600.632812 268.09375 600.917969 268.378906 C 604.492188 272.664062 609.351562 275.953125 614.207031 278.238281 Z M 614.207031 278.238281 " fill-opacity="1" fill-rule="nonzero"/><path fill="#000000" d="M 674.515625 268.808594 C 674.515625 268.378906 673.941406 268.378906 673.800781 268.664062 C 673.65625 269.234375 673.511719 269.664062 673.371094 270.234375 C 673.226562 270.808594 673.226562 271.378906 673.085938 272.09375 C 672.941406 273.238281 672.800781 274.238281 672.65625 275.378906 C 672.226562 277.667969 671.796875 279.808594 671.371094 281.953125 C 670.371094 286.238281 669.082031 290.523438 667.511719 294.8125 C 665.941406 298.8125 664.226562 302.8125 662.222656 306.527344 C 660.367188 309.8125 658.222656 312.957031 655.222656 315.101562 C 653.648438 316.242188 651.933594 317.101562 650.078125 317.53125 C 647.933594 318.101562 645.789062 318.101562 643.648438 317.957031 C 639.214844 317.53125 635.074219 316.101562 630.929688 314.53125 C 622.925781 311.671875 615.351562 307.957031 607.921875 303.8125 C 600.632812 299.527344 593.628906 294.667969 587.058594 289.382812 C 586.199219 288.8125 585.484375 288.097656 584.628906 287.523438 C 584.484375 287.382812 584.199219 287.667969 584.34375 287.8125 C 587.34375 290.8125 590.914062 293.527344 594.34375 295.953125 C 597.773438 298.527344 601.347656 300.957031 605.0625 303.097656 C 612.492188 307.527344 620.210938 311.386719 628.214844 314.53125 C 632.355469 316.101562 636.5 317.671875 640.789062 318.53125 C 644.933594 319.246094 649.363281 319.246094 653.363281 317.246094 C 656.792969 315.53125 659.367188 312.671875 661.367188 309.527344 C 663.652344 306.097656 665.367188 302.242188 667.082031 298.382812 C 670.65625 289.953125 673.085938 281.09375 674.226562 272.09375 C 674.371094 271.523438 674.371094 270.949219 674.371094 270.523438 C 674.65625 269.949219 674.515625 269.378906 674.515625 268.808594 Z M 674.515625 268.808594 " fill-opacity="1" fill-rule="nonzero"/><path fill="#43935e" d="M 661.9375 237.660156 C 655.222656 241.515625 639.074219 246.519531 639.074219 246.519531 L 641.21875 237.515625 L 658.9375 233.371094 C 659.792969 234.800781 660.9375 236.375 661.9375 237.660156 Z M 661.9375 237.660156 " fill-opacity="1" fill-rule="nonzero"/><path fill="#000000" d="M 607.0625 326.101562 C 605.0625 326.675781 603.0625 327.53125 601.203125 328.53125 C 599.347656 329.53125 597.347656 330.53125 595.488281 331.53125 C 591.773438 333.675781 588.34375 336.105469 585.054688 338.820312 C 578.484375 344.25 572.765625 350.679688 568.195312 357.824219 C 563.476562 365.253906 559.90625 373.398438 557.90625 381.828125 C 555.761719 390.972656 555.191406 400.542969 556.191406 409.832031 C 557.191406 419.117188 559.761719 428.40625 564.191406 436.835938 C 564.765625 437.835938 565.335938 438.835938 565.90625 439.835938 C 566.050781 440.121094 566.621094 439.835938 566.480469 439.550781 C 562.191406 431.265625 559.046875 422.40625 557.617188 413.117188 C 556.191406 403.832031 556.332031 394.398438 558.191406 385.113281 C 559.90625 376.539062 563.050781 368.253906 567.480469 360.679688 C 571.765625 353.535156 577.195312 346.964844 583.339844 341.390625 C 589.628906 335.820312 596.773438 331.246094 604.492188 327.816406 C 605.492188 327.390625 606.347656 326.960938 607.207031 326.53125 C 607.777344 326.53125 607.492188 325.960938 607.0625 326.101562 Z M 607.0625 326.101562 " fill-opacity="1" fill-rule="nonzero"/><g clip-path="url(#572e9ba46f)"><path fill="#43935e" d="M 66.460938 363.394531 C 65.460938 353.25 62.175781 342.960938 55.742188 335.105469 C 53.027344 331.816406 49.742188 328.816406 45.597656 327.53125 C 41.453125 326.246094 36.738281 326.816406 33.738281 329.816406 C 31.734375 331.675781 30.59375 334.390625 30.019531 337.105469 C 29.164062 341.675781 29.734375 346.679688 31.734375 350.820312 C 34.023438 355.679688 37.878906 359.394531 42.023438 362.824219 C 46.167969 366.109375 50.457031 369.253906 54.171875 372.96875 C 56.886719 375.683594 59.171875 378.824219 61.03125 382.113281 C 62.890625 385.542969 63.601562 389.398438 65.316406 392.6875 C 66.605469 391.683594 66.175781 387.96875 66.320312 386.398438 C 66.460938 383.828125 66.746094 381.253906 66.746094 378.683594 C 67.03125 373.539062 67.03125 368.394531 66.460938 363.394531 Z M 66.460938 363.394531 " fill-opacity="1" fill-rule="nonzero"/></g><path fill="#43935e" d="M 71.320312 294.382812 C 69.320312 289.8125 66.890625 285.097656 62.601562 282.523438 C 58.03125 279.808594 52.027344 280.238281 47.597656 282.953125 C 43.167969 285.808594 40.308594 290.8125 39.59375 295.953125 C 39.023438 301.242188 40.453125 306.527344 43.3125 310.957031 C 48.597656 319.386719 58.171875 324.246094 65.460938 331.105469 C 69.175781 334.675781 72.464844 338.820312 75.035156 343.25 C 76.320312 345.390625 76.894531 348.25 78.324219 350.394531 C 80.039062 352.820312 80.324219 348.535156 80.464844 347.105469 C 81.179688 335.53125 80.179688 323.960938 77.464844 312.816406 C 75.894531 306.527344 73.890625 300.382812 71.320312 294.382812 Z M 71.320312 294.382812 " fill-opacity="1" fill-rule="nonzero"/><path fill="#43935e" d="M 99.042969 294.382812 C 101.042969 289.8125 103.472656 285.097656 107.761719 282.523438 C 112.332031 279.808594 118.335938 280.238281 122.765625 282.953125 C 127.195312 285.808594 130.054688 290.8125 130.769531 295.953125 C 131.339844 301.242188 129.910156 306.527344 127.050781 310.957031 C 121.765625 319.386719 112.191406 324.246094 104.902344 331.105469 C 101.1875 334.675781 97.898438 338.820312 95.328125 343.25 C 94.042969 345.390625 93.46875 348.25 92.042969 350.394531 C 90.328125 352.820312 90.039062 348.535156 89.898438 347.105469 C 89.183594 335.53125 90.183594 323.960938 92.898438 312.816406 C 94.46875 306.527344 96.613281 300.382812 99.042969 294.382812 Z M 99.042969 294.382812 " fill-opacity="1" fill-rule="nonzero"/><path fill="#000000" d="M 79.464844 353.25 C 78.75 346.390625 77.320312 339.535156 75.320312 332.816406 C 74.320312 329.675781 73.179688 326.53125 71.890625 323.386719 C 70.605469 320.246094 69.175781 317.101562 67.320312 314.242188 C 66.890625 313.527344 66.460938 312.816406 66.03125 312.101562 C 65.890625 311.957031 65.746094 312.101562 65.746094 312.242188 C 66.605469 313.671875 67.175781 315.386719 67.890625 316.816406 C 68.605469 318.246094 69.320312 319.816406 70.035156 321.246094 C 71.464844 324.386719 72.605469 327.53125 73.75 330.816406 C 75.894531 337.390625 77.464844 344.105469 78.324219 350.964844 C 79.179688 357.964844 79.464844 364.964844 79.324219 372.109375 C 79.179688 379.253906 78.464844 386.398438 77.609375 393.398438 C 76.75 400.542969 75.605469 407.546875 74.464844 414.6875 C 74.320312 415.546875 74.179688 416.402344 74.035156 417.261719 C 73.890625 417.832031 74.894531 417.976562 75.035156 417.402344 C 75.75 413.832031 76.179688 410.261719 76.75 406.832031 C 77.320312 403.257812 77.75 399.6875 78.324219 396.113281 C 79.179688 388.972656 79.894531 381.828125 80.179688 374.683594 C 80.324219 367.539062 80.179688 360.25 79.464844 353.25 Z M 79.464844 353.25 " fill-opacity="1" fill-rule="nonzero"/><path fill="#000000" d="M 66.175781 390.972656 C 65.460938 386.257812 64.316406 381.683594 62.890625 377.113281 C 61.460938 372.539062 59.746094 368.109375 57.601562 363.824219 C 55.601562 359.539062 53.171875 355.394531 50.457031 351.535156 C 50.171875 351.105469 49.742188 350.679688 49.3125 350.25 C 49.171875 350.105469 48.882812 350.25 49.027344 350.535156 C 49.597656 351.535156 50.3125 352.535156 50.886719 353.535156 C 51.457031 354.535156 52.027344 355.535156 52.742188 356.535156 C 53.886719 358.535156 55.027344 360.679688 56.03125 362.679688 C 58.171875 366.96875 59.886719 371.253906 61.460938 375.824219 C 62.890625 380.253906 64.03125 384.828125 64.890625 389.542969 C 65.746094 394.257812 66.175781 398.972656 66.460938 403.6875 C 66.605469 408.402344 66.460938 413.117188 65.890625 417.832031 C 65.890625 418.117188 65.746094 418.40625 65.746094 418.691406 C 65.746094 418.976562 65.890625 419.261719 65.890625 419.546875 C 65.890625 419.832031 66.320312 419.832031 66.460938 419.546875 C 66.605469 419.261719 66.746094 419.117188 66.746094 418.832031 C 66.890625 418.546875 66.890625 418.261719 66.890625 417.976562 C 66.890625 417.402344 67.03125 416.832031 67.03125 416.261719 C 67.175781 415.117188 67.175781 413.832031 67.320312 412.6875 C 67.460938 410.261719 67.460938 407.832031 67.460938 405.546875 C 67.320312 400.402344 66.890625 395.6875 66.175781 390.972656 Z M 66.175781 390.972656 " fill-opacity="1" fill-rule="nonzero"/><path fill="#000000" d="M 103.902344 312.242188 C 102.902344 313.816406 102.1875 315.386719 101.472656 317.101562 C 100.757812 318.671875 100.042969 320.246094 99.472656 321.816406 C 98.1875 325.101562 96.898438 328.53125 95.898438 331.960938 C 93.898438 338.675781 92.613281 345.535156 91.613281 352.394531 C 90.613281 359.394531 90.183594 366.394531 90.039062 373.398438 C 89.898438 380.539062 89.898438 387.542969 90.183594 394.6875 C 90.46875 401.6875 90.898438 408.832031 91.328125 415.832031 C 91.328125 416.691406 91.46875 417.546875 91.613281 418.40625 C 91.753906 418.832031 92.328125 418.691406 92.328125 418.261719 C 92.46875 416.546875 92.183594 414.832031 92.183594 412.976562 C 92.042969 411.261719 91.898438 409.402344 91.898438 407.6875 C 91.753906 404.257812 91.46875 400.6875 91.328125 397.257812 C 91.039062 390.257812 90.898438 383.253906 90.898438 376.113281 C 91.039062 369.109375 91.46875 362.109375 92.183594 355.25 C 93.042969 348.390625 94.183594 341.535156 96.042969 334.675781 C 97.898438 327.816406 100.1875 321.101562 103.1875 314.671875 C 103.472656 313.957031 103.902344 313.101562 104.1875 312.242188 C 104.1875 312.242188 103.902344 312.101562 103.902344 312.242188 Z M 103.902344 312.242188 " fill-opacity="1" fill-rule="nonzero"/><path fill="#5296a3" d="M 52.601562 416.832031 L 108.046875 416.832031 L 108.046875 468.839844 L 52.601562 468.839844 Z M 52.601562 416.832031 " fill-opacity="1" fill-rule="nonzero"/><path fill="#000000" d="M 104.1875 422.546875 L 56.457031 422.546875 C 56.03125 422.546875 56.03125 423.261719 56.457031 423.261719 L 104.1875 423.261719 C 104.617188 423.261719 104.617188 422.546875 104.1875 422.546875 Z M 104.1875 422.546875 " fill-opacity="1" fill-rule="nonzero"/><path fill="#000000" d="M 75.179688 425.261719 L 61.03125 425.261719 C 60.601562 425.261719 60.601562 425.976562 61.03125 425.976562 L 75.179688 425.976562 C 75.605469 425.835938 75.605469 425.261719 75.179688 425.261719 Z M 75.179688 425.261719 " fill-opacity="1" fill-rule="nonzero"/><path fill="#f5746f" d="M 289.390625 447.410156 L 284.101562 442.121094 L 303.824219 427.546875 L 309.683594 434.121094 Z M 289.390625 447.410156 " fill-opacity="1" fill-rule="nonzero"/><path fill="#ffffff" d="M 344.121094 432.121094 L 298.25 461.984375 L 287.816406 446.980469 L 309.539062 432.976562 L 310.683594 434.121094 Z M 344.121094 432.121094 " fill-opacity="1" fill-rule="nonzero"/><path fill="#000000" d="M 348.265625 431.835938 L 299.394531 463.699219 L 298.25 461.984375 L 344.121094 432.121094 Z M 348.265625 431.835938 " fill-opacity="1" fill-rule="nonzero"/><path fill="#000000" d="M 315.398438 432.265625 C 315.253906 432.121094 315.253906 432.265625 315.113281 432.265625 C 314.96875 432.40625 314.828125 432.550781 314.683594 432.691406 C 314.542969 432.976562 314.542969 433.121094 314.542969 433.40625 C 314.542969 433.835938 314.542969 434.265625 314.542969 434.691406 C 314.542969 435.121094 314.542969 435.550781 314.542969 435.980469 C 314.542969 436.265625 314.542969 436.40625 314.542969 436.691406 C 314.542969 436.980469 314.542969 437.265625 314.828125 437.265625 C 314.96875 437.265625 314.96875 437.265625 315.113281 437.265625 C 315.398438 437.121094 315.398438 436.980469 315.398438 436.691406 C 315.398438 436.40625 315.398438 436.265625 315.542969 435.980469 C 315.542969 435.550781 315.683594 435.121094 315.683594 434.691406 C 315.683594 434.265625 315.683594 433.835938 315.683594 433.40625 C 315.683594 433.121094 315.683594 432.976562 315.683594 432.691406 C 315.683594 432.691406 315.542969 432.40625 315.398438 432.265625 Z M 315.398438 432.265625 " fill-opacity="1" fill-rule="nonzero"/><path fill="#000000" d="M 320.542969 431.550781 C 320.257812 431.550781 320.113281 431.835938 320.113281 431.976562 C 320.113281 432.121094 320.113281 432.40625 320.113281 432.691406 L 320.113281 433.976562 C 320.113281 434.40625 320.113281 434.835938 320.113281 435.265625 C 320.113281 435.691406 320.113281 436.121094 320.257812 436.550781 C 320.398438 436.980469 320.828125 436.835938 320.972656 436.550781 C 320.972656 436.40625 320.972656 436.121094 321.113281 435.980469 C 321.113281 435.835938 321.113281 435.550781 321.113281 435.40625 C 321.113281 434.980469 321.113281 434.550781 321.113281 434.121094 C 321.113281 433.691406 321.113281 433.265625 321.113281 432.835938 C 321.113281 432.265625 321.113281 431.550781 320.542969 431.550781 Z M 320.542969 431.550781 " fill-opacity="1" fill-rule="nonzero"/><path fill="#f5746f" d="M 238.230469 449.839844 L 236.660156 442.550781 L 261.238281 440.980469 L 262.523438 449.839844 Z M 238.230469 449.839844 " fill-opacity="1" fill-rule="nonzero"/><path fill="#ffffff" d="M 292.535156 466.839844 L 237.660156 466.839844 L 237.230469 448.695312 L 262.953125 448.695312 L 263.382812 450.265625 Z M 292.535156 466.839844 " fill-opacity="1" fill-rule="nonzero"/><path fill="#000000" d="M 296.105469 468.839844 L 237.800781 468.839844 L 237.660156 466.839844 L 292.535156 466.839844 Z M 296.105469 468.839844 " fill-opacity="1" fill-rule="nonzero"/><path fill="#000000" d="M 268.242188 451.410156 C 268.242188 451.265625 268.097656 451.265625 267.953125 451.265625 C 267.8125 451.265625 267.527344 451.410156 267.382812 451.410156 C 267.238281 451.554688 267.097656 451.839844 266.953125 451.980469 C 266.667969 452.410156 266.527344 452.695312 266.238281 453.125 C 265.953125 453.410156 265.8125 453.839844 265.523438 454.265625 C 265.382812 454.410156 265.238281 454.695312 265.238281 454.839844 C 265.097656 454.980469 264.953125 455.269531 265.097656 455.554688 L 265.238281 455.695312 C 265.523438 455.695312 265.667969 455.554688 265.8125 455.410156 C 265.953125 455.269531 266.097656 455.125 266.238281 454.839844 C 266.527344 454.410156 266.8125 454.125 267.097656 453.695312 C 267.382812 453.410156 267.667969 452.980469 267.8125 452.554688 C 267.953125 452.410156 268.097656 452.125 268.097656 451.980469 C 268.382812 451.839844 268.382812 451.554688 268.242188 451.410156 Z M 268.242188 451.410156 " fill-opacity="1" fill-rule="nonzero"/><path fill="#000000" d="M 272.957031 453.554688 C 272.8125 453.410156 272.382812 453.554688 272.242188 453.695312 C 272.097656 453.839844 271.957031 454.125 271.8125 454.269531 L 271.097656 455.269531 C 270.8125 455.554688 270.667969 455.980469 270.527344 456.269531 C 270.382812 456.554688 270.097656 456.980469 269.957031 457.410156 C 269.8125 457.839844 270.242188 457.984375 270.527344 457.839844 C 270.667969 457.695312 270.8125 457.554688 270.957031 457.410156 C 271.097656 457.269531 271.242188 457.125 271.382812 456.839844 C 271.671875 456.554688 271.8125 456.125 272.097656 455.839844 C 272.382812 455.554688 272.527344 455.125 272.8125 454.839844 C 273.097656 454.410156 273.527344 453.839844 272.957031 453.554688 Z M 272.957031 453.554688 " fill-opacity="1" fill-rule="nonzero"/><path fill="#43935e" d="M 192.789062 362.679688 C 201.363281 362.539062 210.222656 361.109375 218.222656 357.679688 C 220.941406 386.113281 225.511719 414.402344 231.800781 442.265625 C 242.660156 444.550781 253.664062 444.121094 264.382812 440.835938 C 264.8125 433.691406 265.238281 426.835938 265.667969 419.832031 C 270.8125 426.40625 278.386719 436.550781 283.53125 443.121094 C 292.535156 441.410156 300.679688 435.980469 305.824219 428.261719 C 297.25 404.972656 285.960938 378.113281 277.527344 354.820312 C 273.671875 344.390625 269.8125 333.820312 262.953125 324.960938 C 256.09375 316.242188 245.804688 313.101562 235.230469 309.8125 C 218.222656 304.527344 176.210938 320.246094 176.210938 320.246094 L 168.351562 342.675781 C 174.640625 351.394531 183.070312 357.824219 192.789062 362.679688 Z M 192.789062 362.679688 " fill-opacity="1" fill-rule="nonzero"/><path fill="#ffffff" d="M 104.757812 330.675781 C 106.046875 291.8125 122.050781 254.234375 148.488281 225.800781 C 157.777344 228.085938 166.351562 231.65625 173.636719 237.660156 C 183.925781 245.945312 178.210938 262.804688 182.210938 275.378906 C 183.785156 275.808594 185.640625 275.09375 187.070312 274.238281 C 190.929688 271.949219 193.789062 268.378906 196.503906 264.949219 C 200.648438 259.664062 204.933594 254.089844 209.078125 248.804688 L 230.226562 263.664062 L 231.085938 264.378906 L 226.511719 267.949219 L 223.082031 271.664062 L 243.519531 293.382812 C 243.519531 293.382812 229.371094 312.386719 200.363281 322.816406 C 200.363281 322.816406 185.929688 327.246094 174.925781 324.53125 C 174.925781 324.53125 174.640625 337.820312 169.066406 344.105469 C 163.351562 350.394531 111.90625 348.679688 111.90625 348.679688 Z M 104.757812 330.675781 " fill-opacity="1" fill-rule="nonzero"/><path fill="#000000" d="M 224.511719 354.109375 C 223.367188 354.25 222.511719 354.820312 221.511719 355.394531 C 220.511719 355.820312 219.652344 356.25 218.652344 356.679688 C 216.652344 357.535156 214.652344 358.25 212.652344 358.964844 C 208.507812 360.25 204.21875 361.109375 199.933594 361.539062 C 198.789062 361.679688 197.644531 361.679688 196.359375 361.824219 C 195.074219 361.824219 193.929688 361.824219 192.644531 361.964844 C 192.359375 361.964844 192.214844 362.539062 192.5 362.679688 C 194.644531 363.109375 196.933594 362.824219 199.074219 362.679688 C 201.21875 362.539062 203.503906 362.25 205.648438 361.824219 C 209.9375 361.109375 214.222656 359.824219 218.222656 358.109375 C 219.367188 357.679688 220.511719 357.109375 221.511719 356.535156 C 222.65625 355.964844 223.796875 355.535156 224.65625 354.535156 C 224.941406 354.394531 224.796875 354.109375 224.511719 354.109375 Z M 224.511719 354.109375 " fill-opacity="1" fill-rule="nonzero"/><path fill="#f5746f" d="M 243.804688 285.238281 C 238.945312 280.378906 233.945312 275.808594 229.941406 270.234375 C 236.375 264.949219 242.230469 257.804688 245.949219 250.519531 C 247.375 250.519531 248.519531 251.519531 249.089844 252.804688 C 249.664062 254.089844 249.664062 255.664062 249.234375 256.949219 C 248.804688 258.378906 248.234375 259.664062 247.519531 260.804688 C 251.378906 259.378906 254.234375 256.519531 256.378906 252.804688 C 258.378906 249.234375 259.667969 245.230469 261.382812 241.515625 C 262.09375 239.945312 263.238281 238.230469 264.953125 238.085938 C 265.953125 238.085938 266.953125 238.660156 267.527344 239.515625 C 268.097656 240.375 268.382812 241.375 268.667969 242.375 C 269.382812 245.945312 269.097656 249.660156 268.097656 253.089844 C 267.097656 256.519531 265.523438 259.804688 263.667969 262.949219 C 258.378906 271.523438 251.519531 279.238281 243.804688 285.238281 Z M 243.804688 285.238281 " fill-opacity="1" fill-rule="nonzero"/><path fill="#43935e" d="M 227.511719 267.664062 C 227.511719 267.664062 244.234375 282.667969 246.804688 290.523438 L 243.375 294.242188 C 243.375 294.242188 224.65625 274.953125 223.226562 272.238281 Z M 227.511719 267.664062 " fill-opacity="1" fill-rule="nonzero"/><path fill="#f5746f" d="M 213.367188 243.945312 C 213.367188 243.945312 227.085938 253.804688 231.085938 256.089844 C 239.230469 247.660156 244.804688 237.085938 247.234375 225.515625 C 248.089844 221.371094 250.804688 217.796875 251.664062 213.796875 C 252.519531 209.65625 252.234375 205.226562 250.234375 201.511719 C 248.234375 197.796875 243.945312 195.222656 239.804688 195.652344 C 236.375 196.082031 233.371094 198.507812 231.515625 201.511719 C 229.65625 204.511719 228.65625 207.941406 227.65625 211.226562 C 227.65625 210.226562 227.371094 209.226562 227.085938 208.226562 C 226.796875 207.226562 226.226562 206.226562 225.511719 205.652344 C 224.796875 205.082031 223.511719 204.796875 222.511719 205.226562 C 221.511719 209.796875 219.082031 213.65625 216.796875 217.65625 C 214.507812 221.65625 212.507812 226.085938 212.792969 230.65625 C 212.9375 232.945312 213.507812 235.085938 213.9375 237.375 C 214.222656 239.375 214.367188 241.945312 213.367188 243.945312 Z M 213.367188 243.945312 " fill-opacity="1" fill-rule="nonzero"/><path fill="#5296a3" d="M 176.78125 253.234375 L 177.210938 277.523438 C 177.210938 277.523438 183.214844 280.378906 185.355469 280.953125 L 181.355469 254.089844 Z M 176.78125 253.234375 " fill-opacity="1" fill-rule="nonzero"/><path fill="#f5746f" d="M 182.070312 211.65625 C 181.925781 212.226562 181.785156 212.796875 181.640625 213.371094 C 181.210938 213.226562 180.785156 213.082031 180.210938 212.941406 C 175.640625 211.65625 171.210938 210.226562 166.636719 208.941406 C 167.492188 213.082031 169.496094 216.796875 172.496094 219.800781 C 174.210938 221.65625 176.355469 223.371094 178.78125 224.371094 C 178.210938 226.65625 177.640625 228.800781 177.066406 231.085938 C 169.066406 229.945312 161.492188 226.941406 154.917969 222.371094 C 157.917969 216.511719 160.921875 210.796875 163.921875 204.9375 C 168.351562 206.941406 172.78125 209.082031 177.210938 211.082031 C 178.925781 211.796875 180.355469 212.371094 182.070312 211.65625 Z M 182.070312 211.65625 " fill-opacity="1" fill-rule="nonzero"/><path fill="#000000" d="M 181.640625 213.371094 C 180.640625 217.085938 179.785156 220.800781 178.78125 224.371094 C 176.496094 223.226562 174.210938 221.511719 172.496094 219.800781 C 169.636719 216.796875 167.492188 212.941406 166.636719 208.941406 C 171.210938 210.226562 175.640625 211.65625 180.210938 212.941406 C 180.785156 213.082031 181.210938 213.226562 181.640625 213.371094 Z M 181.640625 213.371094 " fill-opacity="1" fill-rule="nonzero"/><path fill="#000000" d="M 189.785156 183.363281 C 191.5 182.222656 193.359375 181.078125 194.644531 179.507812 C 195.929688 177.933594 196.644531 175.648438 195.929688 173.648438 C 195.074219 171.503906 192.5 170.21875 190.359375 170.933594 C 190.929688 167.074219 190.359375 162.933594 188.359375 159.503906 C 186.355469 156.074219 182.785156 153.503906 178.78125 153.214844 C 175.351562 152.929688 172.066406 154.359375 169.066406 156.074219 C 157.917969 162.789062 150.488281 175.503906 150.488281 188.652344 C 150.488281 192.9375 151.347656 197.652344 154.777344 200.222656 C 158.632812 203.226562 164.492188 201.511719 168.636719 198.9375 C 171.921875 196.9375 174.496094 193.9375 177.355469 191.222656 C 181.070312 187.9375 185.640625 186.078125 189.785156 183.363281 Z M 189.785156 183.363281 " fill-opacity="1" fill-rule="nonzero"/><path fill="#f5746f" d="M 198.648438 197.796875 C 198.648438 208.511719 189.929688 217.226562 179.210938 217.226562 C 171.78125 217.226562 165.351562 213.082031 162.0625 206.941406 C 161.207031 207.367188 160.207031 207.652344 159.207031 207.652344 C 155.917969 207.652344 153.347656 205.082031 153.347656 201.796875 C 153.347656 198.652344 155.917969 195.9375 159.207031 195.9375 C 159.347656 195.9375 159.632812 195.9375 159.777344 195.9375 C 159.777344 195.9375 162.0625 196.796875 162.207031 198.507812 C 162.207031 198.507812 167.351562 194.9375 165.777344 188.9375 C 165.777344 188.9375 171.636719 178.933594 185.640625 179.21875 C 193.359375 182.078125 198.648438 189.222656 198.648438 197.796875 Z M 198.648438 197.796875 " fill-opacity="1" fill-rule="nonzero"/><path fill="#000000" d="M 187.644531 193.367188 C 187.644531 193.554688 187.605469 193.738281 187.535156 193.914062 C 187.460938 194.085938 187.359375 194.242188 187.222656 194.375 C 187.089844 194.511719 186.9375 194.613281 186.761719 194.6875 C 186.585938 194.757812 186.402344 194.792969 186.214844 194.792969 C 186.023438 194.792969 185.84375 194.757812 185.667969 194.6875 C 185.492188 194.613281 185.335938 194.511719 185.203125 194.375 C 185.070312 194.242188 184.964844 194.085938 184.894531 193.914062 C 184.820312 193.738281 184.785156 193.554688 184.785156 193.367188 C 184.785156 193.175781 184.820312 192.996094 184.894531 192.820312 C 184.964844 192.644531 185.070312 192.488281 185.203125 192.355469 C 185.335938 192.222656 185.492188 192.117188 185.667969 192.046875 C 185.84375 191.972656 186.023438 191.9375 186.214844 191.9375 C 186.402344 191.9375 186.585938 191.972656 186.761719 192.046875 C 186.9375 192.117188 187.089844 192.222656 187.222656 192.355469 C 187.359375 192.488281 187.460938 192.644531 187.535156 192.820312 C 187.605469 192.996094 187.644531 193.175781 187.644531 193.367188 Z M 187.644531 193.367188 " fill-opacity="1" fill-rule="nonzero"/><path fill="#000000" d="M 189.070312 199.652344 L 193.789062 198.082031 C 193.789062 198.082031 194.929688 200.222656 192.214844 201.222656 C 189.785156 201.9375 189.070312 199.652344 189.070312 199.652344 Z M 189.070312 199.652344 " fill-opacity="1" fill-rule="nonzero"/><path fill="#000000" d="M 161.0625 202.796875 C 160.777344 201.796875 160.0625 201.082031 159.207031 200.511719 C 158.207031 199.9375 157.0625 199.796875 156.0625 199.9375 C 155.632812 200.082031 155.777344 200.652344 156.203125 200.511719 C 158.0625 200.222656 159.777344 201.222656 160.492188 202.9375 C 160.632812 203.367188 161.207031 203.082031 161.0625 202.796875 Z M 161.0625 202.796875 " fill-opacity="1" fill-rule="nonzero"/><path fill="#43935e" d="M 148.488281 225.800781 L 155.632812 220.800781 L 178.640625 231.800781 L 179.070312 244.945312 C 179.070312 244.804688 155.777344 232.371094 148.488281 225.800781 Z M 148.488281 225.800781 " fill-opacity="1" fill-rule="nonzero"/><path fill="#5296a3" d="M 174.78125 242.375 L 173.78125 253.519531 L 181.355469 254.089844 L 179.070312 244.515625 Z M 174.78125 242.375 " fill-opacity="1" fill-rule="nonzero"/><path fill="#000000" d="M 226.941406 266.949219 C 224.371094 270.09375 221.511719 272.808594 218.222656 275.09375 C 214.9375 277.378906 211.222656 279.09375 207.507812 280.238281 C 203.21875 281.523438 198.648438 282.09375 194.214844 281.808594 C 189.785156 281.667969 185.355469 280.808594 181.355469 278.953125 C 179.210938 277.953125 177.210938 276.664062 175.640625 274.953125 C 174.925781 274.09375 174.210938 273.238281 173.78125 272.378906 C 173.210938 271.378906 172.78125 270.378906 172.496094 269.234375 C 172.496094 269.09375 172.210938 269.09375 172.210938 269.378906 C 172.351562 270.378906 172.636719 271.378906 173.066406 272.238281 C 173.496094 273.09375 174.066406 273.949219 174.640625 274.664062 C 175.925781 276.238281 177.640625 277.667969 179.355469 278.667969 C 183.214844 280.808594 187.644531 281.953125 192.074219 282.382812 C 200.933594 283.238281 209.9375 281.238281 217.511719 276.664062 C 221.367188 274.238281 224.941406 271.238281 227.800781 267.664062 C 227.800781 267.234375 227.226562 266.519531 226.941406 266.949219 Z M 226.941406 266.949219 " fill-opacity="1" fill-rule="nonzero"/><path fill="#000000" d="M 235.085938 233.660156 C 234.660156 233.230469 234.371094 232.800781 233.945312 232.515625 C 233.230469 231.800781 232.371094 231.085938 231.371094 230.515625 C 230.515625 229.945312 229.515625 229.371094 228.511719 228.945312 C 228.226562 228.800781 226.085938 227.941406 226.085938 228.515625 C 226.085938 228.945312 226.796875 229.085938 226.941406 229.230469 C 227.371094 229.371094 227.800781 229.65625 228.226562 229.800781 C 229.085938 230.230469 230.085938 230.800781 230.941406 231.371094 C 231.800781 231.945312 232.515625 232.660156 233.230469 233.230469 C 233.65625 233.515625 233.945312 233.945312 234.230469 234.371094 C 234.515625 234.660156 234.800781 235.230469 235.371094 235.230469 C 235.515625 235.230469 235.660156 235.085938 235.660156 234.945312 C 235.945312 234.371094 235.371094 233.945312 235.085938 233.660156 Z M 235.085938 233.660156 " fill-opacity="1" fill-rule="nonzero"/><path fill="#000000" d="M 230.371094 226.65625 C 230.226562 225.65625 229.941406 224.65625 229.515625 223.800781 C 229.085938 222.941406 228.511719 222.226562 227.800781 221.65625 C 227.085938 221.085938 226.226562 220.511719 225.371094 220.371094 C 224.941406 220.371094 224.941406 220.800781 225.226562 220.941406 C 225.511719 221.226562 225.941406 221.371094 226.226562 221.511719 C 226.511719 221.65625 226.941406 221.941406 227.226562 222.226562 C 227.800781 222.800781 228.371094 223.371094 228.65625 224.085938 C 229.085938 224.800781 229.371094 225.800781 229.371094 226.65625 C 229.371094 227.085938 229.371094 227.515625 229.371094 228.085938 C 229.371094 228.515625 229.226562 228.945312 229.226562 229.371094 C 229.226562 229.800781 229.65625 229.800781 229.941406 229.515625 C 230.371094 228.800781 230.371094 227.65625 230.371094 226.65625 Z M 230.371094 226.65625 " fill-opacity="1" fill-rule="nonzero"/><path fill="#000000" d="M 227.371094 209.226562 C 227.371094 208.511719 227.226562 207.941406 227.085938 207.226562 C 226.941406 206.652344 226.941406 205.941406 226.371094 205.652344 C 226.226562 205.652344 226.226562 205.652344 226.085938 205.652344 C 225.796875 206.082031 226.085938 206.796875 226.085938 207.367188 C 226.226562 208.082031 226.371094 208.652344 226.371094 209.367188 C 226.511719 210.65625 226.511719 211.941406 226.371094 213.082031 C 226.226562 215.65625 225.511719 218.085938 224.65625 220.511719 C 224.511719 220.800781 225.082031 221.085938 225.226562 220.800781 C 226.371094 218.371094 226.941406 215.796875 227.226562 213.082031 C 227.511719 211.941406 227.511719 210.65625 227.371094 209.226562 Z M 227.371094 209.226562 " fill-opacity="1" fill-rule="nonzero"/><path fill="#000000" d="M 237.230469 196.507812 C 237.230469 196.367188 236.945312 196.367188 236.945312 196.367188 C 236.515625 196.652344 236.375 197.507812 236.230469 198.082031 C 236.085938 198.796875 235.800781 199.367188 235.660156 200.082031 C 235.371094 201.367188 234.945312 202.796875 234.660156 204.082031 C 234.371094 205.367188 233.945312 206.796875 233.65625 208.082031 C 233.515625 208.796875 233.230469 209.367188 233.085938 210.082031 C 232.945312 210.65625 232.800781 211.367188 232.800781 211.941406 C 232.800781 212.082031 232.945312 212.082031 232.945312 211.941406 C 233.371094 211.511719 233.371094 210.796875 233.65625 210.226562 C 233.945312 209.511719 234.085938 208.941406 234.230469 208.226562 C 234.660156 206.941406 234.945312 205.511719 235.371094 204.226562 C 235.800781 202.9375 236.085938 201.511719 236.515625 200.222656 C 236.660156 199.511719 236.945312 198.9375 237.085938 198.222656 C 237.230469 197.796875 237.515625 196.9375 237.230469 196.507812 Z M 237.230469 196.507812 " fill-opacity="1" fill-rule="nonzero"/><path fill="#000000" d="M 243.519531 197.222656 C 243.519531 196.796875 242.945312 196.796875 242.804688 197.082031 C 242.519531 197.796875 242.519531 198.367188 242.375 199.082031 C 242.230469 199.652344 242.089844 200.367188 241.945312 200.9375 C 241.660156 202.222656 241.375 203.511719 240.945312 204.796875 C 240.515625 206.082031 240.089844 207.367188 239.660156 208.652344 C 239.230469 209.941406 238.660156 211.082031 238.230469 212.371094 C 238.089844 212.65625 238.515625 212.796875 238.660156 212.511719 C 239.375 211.367188 239.945312 210.082031 240.515625 208.796875 C 240.945312 207.511719 241.519531 206.226562 241.804688 204.9375 C 242.230469 203.652344 242.519531 202.367188 242.804688 201.082031 C 242.945312 200.367188 243.089844 199.652344 243.234375 199.082031 C 243.375 198.507812 243.519531 197.796875 243.519531 197.222656 Z M 243.519531 197.222656 " fill-opacity="1" fill-rule="nonzero"/><path fill="#000000" d="M 248.949219 200.9375 C 248.949219 200.796875 248.804688 200.796875 248.664062 200.9375 C 248.375 201.222656 248.234375 201.367188 248.234375 201.652344 C 248.089844 201.9375 248.089844 202.222656 248.089844 202.511719 C 247.949219 203.082031 247.804688 203.796875 247.664062 204.367188 C 247.375 205.652344 246.949219 206.941406 246.519531 208.082031 C 246.089844 209.367188 245.660156 210.511719 245.089844 211.796875 C 244.804688 212.371094 244.519531 212.941406 244.375 213.511719 C 244.089844 214.082031 243.804688 214.65625 243.660156 215.371094 C 243.660156 215.65625 243.945312 215.941406 244.089844 215.65625 C 244.519531 215.226562 244.804688 214.511719 245.089844 213.941406 C 245.375 213.371094 245.660156 212.796875 245.949219 212.226562 C 246.519531 211.082031 246.949219 209.796875 247.375 208.652344 C 247.804688 207.367188 248.234375 206.226562 248.519531 204.9375 C 248.664062 204.367188 248.804688 203.652344 248.949219 203.082031 C 249.089844 202.796875 249.089844 202.367188 249.089844 202.082031 C 249.234375 201.511719 249.089844 201.222656 248.949219 200.9375 Z M 248.949219 200.9375 " fill-opacity="1" fill-rule="nonzero"/><path fill="#000000" d="M 229.515625 272.949219 C 229.515625 273.195312 229.464844 273.433594 229.371094 273.660156 C 229.277344 273.890625 229.144531 274.089844 228.96875 274.265625 C 228.796875 274.4375 228.59375 274.574219 228.367188 274.667969 C 228.140625 274.761719 227.902344 274.808594 227.65625 274.808594 C 227.410156 274.808594 227.171875 274.761719 226.945312 274.667969 C 226.71875 274.574219 226.515625 274.4375 226.34375 274.265625 C 226.167969 274.089844 226.035156 273.890625 225.941406 273.660156 C 225.84375 273.433594 225.796875 273.195312 225.796875 272.949219 C 225.796875 272.703125 225.84375 272.46875 225.941406 272.238281 C 226.035156 272.011719 226.167969 271.8125 226.34375 271.636719 C 226.515625 271.464844 226.71875 271.328125 226.945312 271.234375 C 227.171875 271.140625 227.410156 271.09375 227.65625 271.09375 C 227.902344 271.09375 228.140625 271.140625 228.367188 271.234375 C 228.59375 271.328125 228.796875 271.464844 228.96875 271.636719 C 229.144531 271.8125 229.277344 272.011719 229.371094 272.238281 C 229.464844 272.46875 229.515625 272.703125 229.515625 272.949219 Z M 229.515625 272.949219 " fill-opacity="1" fill-rule="nonzero"/><path fill="#43935e" d="M 212.652344 242.945312 L 209.222656 248.804688 L 230.371094 263.664062 L 233.65625 258.519531 C 233.65625 258.378906 222.796875 248.804688 212.652344 242.945312 Z M 212.652344 242.945312 " fill-opacity="1" fill-rule="nonzero"/><path fill="#000000" d="M 264.523438 375.109375 C 263.953125 369.96875 263.382812 364.679688 262.523438 359.539062 C 261.808594 354.535156 260.808594 349.390625 259.378906 344.535156 C 256.808594 335.960938 252.664062 327.675781 246.089844 321.53125 C 239.804688 315.53125 230.941406 311.816406 222.226562 312.816406 C 221.941406 312.816406 221.796875 312.816406 221.511719 312.957031 C 222.511719 312.386719 223.367188 311.671875 224.226562 310.957031 C 231.515625 305.671875 238.230469 299.527344 244.519531 292.953125 C 245.375 292.097656 246.089844 291.382812 246.804688 290.523438 C 247.234375 290.097656 246.519531 289.382812 246.089844 289.8125 C 244.519531 291.382812 242.945312 292.953125 241.375 294.527344 C 239.804688 296.097656 238.230469 297.667969 236.660156 299.097656 C 233.371094 302.097656 230.085938 305.097656 226.511719 307.8125 C 219.511719 313.242188 211.9375 317.816406 203.648438 320.816406 C 195.359375 323.816406 186.355469 325.101562 177.640625 323.960938 C 173.351562 323.386719 169.066406 322.386719 165.066406 320.53125 C 161.207031 318.816406 157.777344 316.53125 154.488281 313.957031 C 147.917969 308.671875 142.628906 301.957031 137.484375 295.242188 C 136.914062 294.382812 136.199219 293.667969 135.625 292.8125 C 135.339844 292.382812 134.625 292.8125 134.910156 293.238281 C 140.054688 300.097656 145.199219 306.957031 151.632812 312.816406 C 154.777344 315.671875 158.207031 318.101562 161.777344 320.101562 C 165.636719 322.246094 169.78125 323.675781 174.210938 324.53125 C 182.925781 326.246094 192.074219 325.386719 200.503906 322.960938 C 207.363281 320.960938 213.9375 317.816406 219.9375 313.957031 C 224.082031 313.242188 228.371094 313.386719 232.371094 314.53125 C 236.660156 315.671875 240.515625 317.816406 243.945312 320.671875 C 250.804688 326.386719 255.09375 334.390625 257.808594 342.675781 C 260.953125 352.25 262.09375 362.394531 263.238281 372.398438 C 264.382812 382.683594 264.953125 393.113281 265.097656 403.542969 C 265.238281 413.976562 264.953125 424.261719 264.097656 434.691406 C 263.953125 435.980469 263.953125 437.265625 263.808594 438.550781 C 263.808594 439.265625 264.8125 439.265625 264.8125 438.550781 C 265.8125 427.976562 266.238281 417.261719 266.097656 406.546875 C 266.097656 396.113281 265.523438 385.542969 264.523438 375.109375 Z M 264.523438 375.109375 " fill-opacity="1" fill-rule="nonzero"/><path fill="#5296a3" d="M 133.339844 428.976562 L 127.050781 468.839844 L 118.191406 468.839844 L 118.191406 432.976562 C 118.90625 432.835938 119.476562 432.835938 120.050781 432.691406 C 123.335938 432.265625 126.625 431.691406 129.765625 430.40625 C 131.054688 430.121094 132.195312 429.550781 133.339844 428.976562 Z M 133.339844 428.976562 " fill-opacity="1" fill-rule="nonzero"/><path fill="#5296a3" d="M 198.21875 431.976562 L 198.21875 468.839844 L 189.359375 468.839844 L 182.785156 426.691406 C 183.355469 426.976562 183.925781 427.261719 184.5 427.546875 C 187.785156 429.121094 191.359375 430.261719 195.074219 431.121094 C 195.929688 431.40625 197.074219 431.691406 198.21875 431.976562 Z M 198.21875 431.976562 " fill-opacity="1" fill-rule="nonzero"/><path fill="#000000" d="M 135.199219 416.832031 L 133.339844 428.976562 C 132.195312 429.550781 131.054688 430.121094 129.910156 430.550781 C 126.765625 431.691406 123.480469 432.40625 120.191406 432.835938 C 119.621094 432.976562 118.90625 432.976562 118.335938 433.121094 L 118.335938 416.832031 Z M 135.199219 416.832031 " fill-opacity="1" fill-rule="nonzero"/><path fill="#000000" d="M 198.21875 416.832031 L 198.21875 431.976562 C 197.074219 431.691406 195.929688 431.40625 195.074219 431.121094 C 191.5 430.261719 187.929688 429.121094 184.5 427.546875 C 183.925781 427.261719 183.355469 426.976562 182.785156 426.691406 L 181.210938 416.832031 Z M 198.21875 416.832031 " fill-opacity="1" fill-rule="nonzero"/><path fill="#5296a3" d="M 112.476562 343.820312 C 107.761719 332.675781 103.042969 321.53125 99.902344 309.957031 C 96.613281 298.382812 94.898438 286.097656 96.183594 274.238281 C 97.042969 266.378906 99.1875 258.664062 98.898438 250.804688 C 98.613281 241.660156 95.757812 232.660156 89.46875 225.800781 L 70.460938 225.800781 L 93.183594 339.246094 C 98.613281 344.25 105.332031 345.675781 112.476562 343.820312 Z M 112.476562 343.820312 " fill-opacity="1" fill-rule="nonzero"/><path fill="#5296a3" d="M 93.183594 339.246094 C 93.183594 339.246094 105.332031 401.6875 114.761719 418.832031 L 202.648438 418.832031 L 194.929688 339.246094 Z M 93.183594 339.246094 " fill-opacity="1" fill-rule="nonzero"/><path fill="#5296a3" d="M 191.074219 359.539062 C 189.644531 359.964844 188.214844 360.539062 186.785156 361.109375 C 185.355469 361.679688 183.925781 362.25 182.5 362.679688 C 179.640625 363.679688 176.640625 364.539062 173.636719 365.253906 C 167.636719 366.824219 161.492188 367.824219 155.347656 368.253906 C 149.203125 368.824219 143.058594 368.824219 136.914062 368.394531 C 130.769531 367.96875 124.621094 367.109375 118.621094 365.679688 C 112.617188 364.253906 106.761719 362.394531 101.042969 360.109375 C 100.328125 359.824219 99.613281 359.539062 98.898438 359.25 C 98.472656 359.109375 98.042969 359.679688 98.472656 359.964844 C 104.1875 362.539062 110.046875 364.539062 116.046875 365.96875 C 122.050781 367.539062 128.195312 368.539062 134.484375 369.109375 C 140.628906 369.683594 146.914062 369.683594 153.203125 369.253906 C 159.347656 368.824219 165.492188 367.96875 171.636719 366.539062 C 177.78125 365.109375 183.640625 363.253906 189.5 360.964844 C 190.214844 360.679688 190.929688 360.394531 191.5 359.964844 C 191.789062 359.964844 191.5 359.394531 191.074219 359.539062 Z M 191.074219 359.539062 " fill-opacity="1" fill-rule="nonzero"/><path fill="#5296a3" d="M 652.933594 428.976562 L 659.222656 468.839844 L 668.082031 468.839844 L 668.082031 432.976562 C 667.367188 432.835938 666.796875 432.835938 666.226562 432.691406 C 662.9375 432.265625 659.652344 431.691406 656.507812 430.40625 C 655.222656 430.121094 654.078125 429.550781 652.933594 428.976562 Z M 652.933594 428.976562 " fill-opacity="1" fill-rule="nonzero"/><path fill="#5296a3" d="M 588.058594 431.976562 L 588.058594 468.839844 L 596.917969 468.839844 L 603.492188 426.691406 C 602.917969 426.976562 602.347656 427.261719 601.777344 427.546875 C 598.488281 429.121094 594.917969 430.261719 591.203125 431.121094 C 590.34375 431.40625 589.199219 431.691406 588.058594 431.976562 Z M 588.058594 431.976562 " fill-opacity="1" fill-rule="nonzero"/><path fill="#000000" d="M 651.078125 416.832031 L 652.933594 428.976562 C 654.078125 429.550781 655.222656 430.121094 656.363281 430.550781 C 659.507812 431.691406 662.796875 432.40625 666.082031 432.835938 C 666.652344 432.976562 667.367188 432.976562 667.941406 433.121094 L 667.941406 416.832031 Z M 651.078125 416.832031 " fill-opacity="1" fill-rule="nonzero"/><path fill="#000000" d="M 588.058594 416.832031 L 588.058594 431.976562 C 589.199219 431.691406 590.34375 431.40625 591.203125 431.121094 C 594.773438 430.261719 598.347656 429.121094 601.777344 427.546875 C 602.347656 427.261719 602.917969 426.976562 603.492188 426.691406 L 605.0625 416.832031 Z M 588.058594 416.832031 " fill-opacity="1" fill-rule="nonzero"/><path fill="#5296a3" d="M 673.800781 343.820312 C 678.515625 332.675781 683.230469 321.53125 686.375 309.957031 C 689.660156 298.382812 691.375 286.097656 690.089844 274.238281 C 689.234375 266.378906 687.089844 258.664062 687.375 250.804688 C 687.660156 241.660156 690.519531 232.660156 696.808594 225.800781 L 715.8125 225.800781 L 693.089844 339.246094 C 687.660156 344.25 680.945312 345.675781 673.800781 343.820312 Z M 673.800781 343.820312 " fill-opacity="1" fill-rule="nonzero"/><path fill="#5296a3" d="M 693.089844 339.246094 C 693.089844 339.246094 680.945312 401.6875 671.511719 418.832031 L 583.628906 418.832031 L 591.34375 339.246094 Z M 693.089844 339.246094 " fill-opacity="1" fill-rule="nonzero"/><path fill="#000000" d="M 595.203125 359.539062 C 596.632812 359.964844 598.0625 360.539062 599.488281 361.109375 C 600.917969 361.679688 602.347656 362.25 603.777344 362.679688 C 606.636719 363.679688 609.636719 364.539062 612.636719 365.253906 C 618.640625 366.824219 624.785156 367.824219 630.929688 368.253906 C 637.074219 368.824219 643.21875 368.824219 649.363281 368.394531 C 655.507812 367.96875 661.652344 367.109375 667.65625 365.679688 C 673.65625 364.253906 679.515625 362.394531 685.230469 360.109375 C 685.945312 359.824219 686.660156 359.539062 687.375 359.25 C 687.804688 359.109375 688.230469 359.679688 687.804688 359.964844 C 682.085938 362.539062 676.230469 364.539062 670.226562 365.96875 C 664.226562 367.539062 658.078125 368.539062 651.792969 369.109375 C 645.648438 369.683594 639.359375 369.683594 633.070312 369.253906 C 626.925781 368.824219 620.78125 367.96875 614.636719 366.539062 C 608.492188 365.109375 602.632812 363.253906 596.773438 360.964844 C 596.058594 360.679688 595.34375 360.394531 594.773438 359.964844 C 594.488281 359.964844 594.773438 359.394531 595.203125 359.539062 Z M 595.203125 359.539062 " fill-opacity="1" fill-rule="nonzero"/><path fill="#ffffff" d="M 136.054688 135.640625 C 136.054688 116.496094 120.480469 100.921875 101.328125 100.921875 C 82.179688 100.921875 66.460938 116.351562 66.460938 135.640625 C 66.460938 154.929688 82.039062 170.363281 101.1875 170.363281 C 103.042969 170.363281 104.757812 170.21875 106.472656 169.933594 L 118.765625 178.648438 L 118.765625 165.503906 C 129.195312 159.503906 136.054688 148.359375 136.054688 135.640625 Z M 136.054688 135.640625 " fill-opacity="1" fill-rule="nonzero"/><path fill="#000000" d="M 98.472656 116.925781 L 102.902344 116.925781 L 102.902344 120.210938 L 98.472656 120.210938 Z M 98.472656 116.925781 " fill-opacity="1" fill-rule="nonzero"/><path fill="#5296a3" d="M 118.90625 137.929688 C 118.90625 138.527344 118.878906 139.125 118.820312 139.71875 C 118.761719 140.316406 118.671875 140.910156 118.554688 141.496094 C 118.4375 142.082031 118.292969 142.664062 118.121094 143.238281 C 117.945312 143.808594 117.742188 144.375 117.515625 144.925781 C 117.285156 145.480469 117.03125 146.019531 116.746094 146.550781 C 116.464844 147.078125 116.15625 147.589844 115.824219 148.089844 C 115.492188 148.585938 115.136719 149.066406 114.753906 149.53125 C 114.375 149.992188 113.972656 150.4375 113.550781 150.859375 C 113.125 151.285156 112.683594 151.683594 112.21875 152.066406 C 111.757812 152.445312 111.277344 152.800781 110.777344 153.132812 C 110.28125 153.46875 109.765625 153.773438 109.238281 154.058594 C 108.710938 154.339844 108.167969 154.59375 107.613281 154.824219 C 107.0625 155.054688 106.5 155.253906 105.925781 155.429688 C 105.351562 155.601562 104.769531 155.75 104.183594 155.867188 C 103.597656 155.980469 103.003906 156.070312 102.40625 156.128906 C 101.8125 156.1875 101.214844 156.214844 100.613281 156.214844 C 100.015625 156.214844 99.417969 156.1875 98.824219 156.128906 C 98.226562 156.070312 97.632812 155.980469 97.046875 155.867188 C 96.460938 155.75 95.878906 155.601562 95.304688 155.429688 C 94.730469 155.253906 94.167969 155.054688 93.617188 154.824219 C 93.0625 154.59375 92.519531 154.339844 91.992188 154.058594 C 91.464844 153.773438 90.949219 153.46875 90.453125 153.132812 C 89.953125 152.800781 89.472656 152.445312 89.011719 152.066406 C 88.546875 151.683594 88.105469 151.285156 87.679688 150.859375 C 87.257812 150.4375 86.855469 149.992188 86.476562 149.53125 C 86.09375 149.066406 85.738281 148.585938 85.40625 148.089844 C 85.074219 147.589844 84.765625 147.078125 84.484375 146.550781 C 84.199219 146.019531 83.945312 145.480469 83.714844 144.925781 C 83.488281 144.375 83.285156 143.808594 83.109375 143.238281 C 82.9375 142.664062 82.792969 142.082031 82.675781 141.496094 C 82.558594 140.910156 82.46875 140.316406 82.410156 139.71875 C 82.351562 139.125 82.324219 138.527344 82.324219 137.929688 C 82.324219 137.328125 82.351562 136.730469 82.410156 136.136719 C 82.46875 135.539062 82.558594 134.949219 82.675781 134.359375 C 82.792969 133.773438 82.9375 133.191406 83.109375 132.617188 C 83.285156 132.046875 83.488281 131.484375 83.714844 130.929688 C 83.945312 130.375 84.199219 129.835938 84.484375 129.304688 C 84.765625 128.777344 85.074219 128.265625 85.40625 127.765625 C 85.738281 127.269531 86.09375 126.789062 86.476562 126.324219 C 86.855469 125.863281 87.257812 125.417969 87.679688 124.996094 C 88.105469 124.570312 88.546875 124.171875 89.011719 123.789062 C 89.472656 123.410156 89.953125 123.054688 90.453125 122.722656 C 90.949219 122.386719 91.464844 122.082031 91.992188 121.796875 C 92.519531 121.515625 93.0625 121.261719 93.617188 121.03125 C 94.167969 120.800781 94.730469 120.601562 95.304688 120.425781 C 95.878906 120.253906 96.460938 120.105469 97.046875 119.992188 C 97.632812 119.875 98.226562 119.785156 98.824219 119.726562 C 99.417969 119.667969 100.015625 119.640625 100.613281 119.640625 C 101.214844 119.640625 101.8125 119.667969 102.40625 119.726562 C 103.003906 119.785156 103.597656 119.875 104.183594 119.992188 C 104.769531 120.105469 105.351562 120.253906 105.925781 120.425781 C 106.5 120.601562 107.0625 120.800781 107.613281 121.03125 C 108.167969 121.261719 108.710938 121.515625 109.238281 121.796875 C 109.765625 122.082031 110.28125 122.386719 110.777344 122.722656 C 111.277344 123.054688 111.757812 123.410156 112.21875 123.789062 C 112.683594 124.171875 113.125 124.570312 113.550781 124.996094 C 113.972656 125.417969 114.375 125.863281 114.753906 126.324219 C 115.136719 126.789062 115.492188 127.269531 115.824219 127.765625 C 116.15625 128.265625 116.464844 128.777344 116.746094 129.304688 C 117.03125 129.835938 117.285156 130.375 117.515625 130.929688 C 117.742188 131.484375 117.945312 132.046875 118.121094 132.617188 C 118.292969 133.191406 118.4375 133.773438 118.554688 134.359375 C 118.671875 134.949219 118.761719 135.539062 118.820312 136.136719 C 118.878906 136.730469 118.90625 137.328125 118.90625 137.929688 Z M 118.90625 137.929688 " fill-opacity="1" fill-rule="nonzero"/><path fill="#ffffff" d="M 113.90625 137.929688 C 113.90625 138.800781 113.820312 139.664062 113.648438 140.519531 C 113.480469 141.375 113.226562 142.207031 112.894531 143.011719 C 112.558594 143.820312 112.148438 144.585938 111.664062 145.308594 C 111.179688 146.035156 110.628906 146.707031 110.011719 147.324219 C 109.394531 147.941406 108.722656 148.492188 108 148.976562 C 107.273438 149.460938 106.507812 149.871094 105.699219 150.203125 C 104.894531 150.539062 104.0625 150.789062 103.207031 150.960938 C 102.351562 151.128906 101.488281 151.214844 100.613281 151.214844 C 99.742188 151.214844 98.878906 151.128906 98.023438 150.960938 C 97.167969 150.789062 96.335938 150.539062 95.53125 150.203125 C 94.722656 149.871094 93.957031 149.460938 93.230469 148.976562 C 92.507812 148.492188 91.835938 147.941406 91.21875 147.324219 C 90.601562 146.707031 90.050781 146.035156 89.566406 145.308594 C 89.082031 144.585938 88.671875 143.820312 88.335938 143.011719 C 88.003906 142.207031 87.75 141.375 87.582031 140.519531 C 87.410156 139.664062 87.324219 138.800781 87.324219 137.929688 C 87.324219 137.054688 87.410156 136.191406 87.582031 135.335938 C 87.75 134.480469 88.003906 133.648438 88.335938 132.84375 C 88.671875 132.035156 89.082031 131.269531 89.566406 130.546875 C 90.050781 129.820312 90.601562 129.148438 91.21875 128.53125 C 91.835938 127.914062 92.507812 127.363281 93.230469 126.878906 C 93.957031 126.394531 94.722656 125.984375 95.53125 125.652344 C 96.335938 125.316406 97.167969 125.066406 98.023438 124.894531 C 98.878906 124.726562 99.742188 124.640625 100.613281 124.640625 C 101.488281 124.640625 102.351562 124.726562 103.207031 124.894531 C 104.0625 125.066406 104.894531 125.316406 105.699219 125.652344 C 106.507812 125.984375 107.273438 126.394531 108 126.878906 C 108.722656 127.363281 109.394531 127.914062 110.011719 128.53125 C 110.628906 129.148438 111.179688 129.820312 111.664062 130.546875 C 112.148438 131.269531 112.558594 132.035156 112.894531 132.84375 C 113.226562 133.648438 113.480469 134.480469 113.648438 135.335938 C 113.820312 136.191406 113.90625 137.054688 113.90625 137.929688 Z M 113.90625 137.929688 " fill-opacity="1" fill-rule="nonzero"/><path fill="#000000" d="M 100.613281 130.070312 L 100.613281 141.070312 C 100.613281 141.5 101.328125 141.5 101.328125 141.070312 L 101.328125 130.070312 C 101.1875 129.640625 100.613281 129.640625 100.613281 130.070312 Z M 100.613281 130.070312 " fill-opacity="1" fill-rule="nonzero"/><path fill="#000000" d="M 100.757812 140.355469 C 99.613281 139.640625 98.472656 138.929688 97.328125 138.214844 C 96.757812 137.929688 96.183594 137.5 95.613281 137.214844 C 95.042969 136.925781 94.46875 136.640625 93.898438 136.5 C 93.753906 136.5 93.753906 136.640625 93.753906 136.640625 C 94.183594 137.214844 94.613281 137.5 95.042969 137.929688 C 95.613281 138.355469 96.183594 138.785156 96.757812 139.070312 C 97.898438 139.785156 99.042969 140.5 100.1875 141.355469 C 100.328125 141.5 100.472656 141.5 100.613281 141.355469 C 101.042969 141.070312 101.042969 140.929688 101.042969 140.785156 C 101.042969 140.644531 100.902344 140.5 100.757812 140.355469 Z M 100.757812 140.355469 " fill-opacity="1" fill-rule="nonzero"/><path fill="#5296a3" d="M 102.042969 117.496094 L 99.1875 117.496094 C 97.472656 117.496094 96.042969 116.066406 96.042969 114.351562 C 96.042969 112.636719 97.472656 111.210938 99.1875 111.210938 L 102.042969 111.210938 C 103.757812 111.210938 105.1875 112.636719 105.1875 114.351562 C 105.1875 116.066406 103.757812 117.496094 102.042969 117.496094 Z M 102.042969 117.496094 " fill-opacity="1" fill-rule="nonzero"/><path fill="#000000" d="M 89.039062 124.210938 L 87.039062 126.210938 C 85.753906 127.496094 83.753906 127.496094 82.464844 126.210938 C 81.179688 124.925781 81.179688 122.925781 82.464844 121.640625 L 84.46875 119.640625 C 85.753906 118.351562 87.753906 118.351562 89.039062 119.640625 C 90.328125 120.925781 90.328125 122.925781 89.039062 124.210938 Z M 89.039062 124.210938 " fill-opacity="1" fill-rule="nonzero"/><path fill="#000000" d="M 112.046875 124.210938 L 114.046875 126.210938 C 115.335938 127.496094 117.335938 127.496094 118.621094 126.210938 C 119.90625 124.925781 119.90625 122.925781 118.621094 121.640625 L 116.621094 119.640625 C 115.335938 118.351562 113.332031 118.351562 112.046875 119.640625 C 110.902344 120.925781 110.902344 122.925781 112.046875 124.210938 Z M 112.046875 124.210938 " fill-opacity="1" fill-rule="nonzero"/><path fill="#ffffff" d="M 318.113281 83.203125 L 208.222656 83.203125 L 208.222656 154.359375 L 224.226562 154.359375 L 224.226562 167.648438 L 240.945312 154.359375 L 318.113281 154.359375 Z M 318.113281 83.203125 " fill-opacity="1" fill-rule="nonzero"/><path fill="#43935e" d="M 243.804688 115.925781 L 220.511719 115.925781 L 232.085938 92.0625 Z M 243.804688 115.925781 " fill-opacity="1" fill-rule="nonzero"/><path fill="#5296a3" d="M 263.238281 114.78125 C 263.238281 115.589844 263.160156 116.386719 263.003906 117.179688 C 262.84375 117.96875 262.613281 118.738281 262.304688 119.484375 C 261.996094 120.230469 261.617188 120.9375 261.167969 121.609375 C 260.71875 122.277344 260.210938 122.898438 259.640625 123.46875 C 259.070312 124.039062 258.449219 124.550781 257.777344 124.996094 C 257.105469 125.445312 256.398438 125.824219 255.652344 126.132812 C 254.90625 126.441406 254.136719 126.675781 253.347656 126.832031 C 252.554688 126.988281 251.757812 127.070312 250.949219 127.070312 C 250.140625 127.070312 249.34375 126.988281 248.550781 126.832031 C 247.761719 126.675781 246.992188 126.441406 246.246094 126.132812 C 245.5 125.824219 244.792969 125.445312 244.121094 124.996094 C 243.449219 124.550781 242.828125 124.039062 242.257812 123.46875 C 241.6875 122.898438 241.179688 122.277344 240.730469 121.609375 C 240.28125 120.9375 239.902344 120.230469 239.59375 119.484375 C 239.285156 118.738281 239.054688 117.96875 238.894531 117.179688 C 238.738281 116.386719 238.660156 115.589844 238.660156 114.78125 C 238.660156 113.972656 238.738281 113.175781 238.894531 112.382812 C 239.054688 111.59375 239.285156 110.824219 239.59375 110.078125 C 239.902344 109.332031 240.28125 108.625 240.730469 107.953125 C 241.179688 107.285156 241.6875 106.664062 242.257812 106.09375 C 242.828125 105.523438 243.449219 105.011719 244.121094 104.5625 C 244.792969 104.117188 245.5 103.738281 246.246094 103.429688 C 246.992188 103.121094 247.761719 102.886719 248.550781 102.730469 C 249.34375 102.570312 250.140625 102.492188 250.949219 102.492188 C 251.757812 102.492188 252.554688 102.570312 253.347656 102.730469 C 254.136719 102.886719 254.90625 103.121094 255.652344 103.429688 C 256.398438 103.738281 257.105469 104.117188 257.777344 104.5625 C 258.449219 105.011719 259.070312 105.523438 259.640625 106.09375 C 260.210938 106.664062 260.71875 107.285156 261.167969 107.953125 C 261.617188 108.625 261.996094 109.332031 262.304688 110.078125 C 262.613281 110.824219 262.84375 111.59375 263.003906 112.382812 C 263.160156 113.175781 263.238281 113.972656 263.238281 114.78125 Z M 263.238281 114.78125 " fill-opacity="1" fill-rule="nonzero"/><path fill="#000000" d="M 222.367188 132.210938 L 260.523438 132.210938 L 260.523438 141.214844 L 222.367188 141.214844 Z M 222.367188 132.210938 " fill-opacity="1" fill-rule="nonzero"/><path fill="#000000" d="M 274.527344 104.921875 L 310.539062 104.921875 L 310.539062 107.496094 L 274.527344 107.496094 Z M 274.527344 104.921875 " fill-opacity="1" fill-rule="nonzero"/><path fill="#000000" d="M 274.527344 117.496094 L 310.539062 117.496094 L 310.539062 120.066406 L 274.527344 120.066406 Z M 274.527344 117.496094 " fill-opacity="1" fill-rule="nonzero"/><path fill="#000000" d="M 274.527344 130.070312 L 310.539062 130.070312 L 310.539062 132.640625 L 274.527344 132.640625 Z M 274.527344 130.070312 " fill-opacity="1" fill-rule="nonzero"/><path fill="#ffffff" d="M 302.109375 291.097656 C 313.828125 292.238281 322.402344 302.671875 321.257812 314.242188 C 320.113281 325.960938 309.683594 334.53125 298.105469 333.390625 C 286.390625 332.246094 277.816406 321.816406 278.957031 310.242188 C 279.101562 309.101562 279.242188 308.101562 279.53125 306.957031 L 274.957031 298.957031 L 282.960938 299.667969 C 287.246094 293.8125 294.390625 290.238281 302.109375 291.097656 Z M 302.109375 291.097656 " fill-opacity="1" fill-rule="nonzero"/><path fill="#000000" d="M 310.96875 303.097656 C 310.253906 303.242188 309.824219 303.8125 309.398438 304.242188 C 308.824219 304.8125 308.394531 305.386719 307.824219 305.957031 C 306.824219 307.101562 305.679688 308.242188 304.679688 309.386719 C 302.539062 311.671875 300.535156 313.957031 298.394531 316.242188 C 297.394531 317.386719 296.25 318.53125 295.25 319.671875 C 293.390625 317.246094 291.535156 314.671875 289.675781 312.242188 C 289.390625 311.957031 288.820312 312.242188 289.105469 312.527344 C 290.960938 315.242188 292.960938 317.957031 294.820312 320.53125 C 294.964844 320.816406 295.390625 320.816406 295.535156 320.671875 C 299.820312 316.242188 303.964844 311.671875 308.109375 307.242188 C 308.683594 306.671875 309.253906 305.957031 309.824219 305.386719 C 310.398438 304.8125 311.113281 304.242188 311.113281 303.382812 C 311.113281 303.242188 310.96875 303.097656 310.96875 303.097656 Z M 310.96875 303.097656 " fill-opacity="1" fill-rule="nonzero"/><path fill="#43935e" d="M 284.675781 273.664062 C 291.535156 283.238281 304.824219 285.523438 314.398438 278.667969 C 323.972656 271.808594 326.257812 258.519531 319.398438 248.945312 C 312.539062 239.375 299.25 237.085938 289.675781 243.945312 C 288.820312 244.660156 287.960938 245.230469 287.105469 246.089844 L 277.816406 246.089844 L 282.53125 252.660156 C 279.53125 259.234375 280.101562 267.234375 284.675781 273.664062 Z M 284.675781 273.664062 " fill-opacity="1" fill-rule="nonzero"/><path fill="#000000" d="M 308.253906 254.949219 C 308.539062 254.660156 308.824219 254.375 309.109375 254.089844 C 309.253906 253.949219 309.398438 253.804688 309.539062 253.660156 C 309.683594 253.519531 309.683594 253.234375 309.683594 253.089844 C 309.683594 252.949219 309.539062 252.804688 309.398438 252.804688 C 309.253906 252.804688 309.109375 252.804688 308.96875 252.949219 C 308.824219 252.949219 308.683594 253.234375 308.539062 253.234375 C 308.253906 253.519531 307.96875 253.804688 307.824219 254.089844 C 307.253906 254.660156 306.824219 255.234375 306.253906 255.804688 C 305.253906 256.949219 304.253906 258.089844 303.109375 259.089844 C 302.824219 259.519531 302.394531 259.804688 302.109375 260.234375 C 301.109375 258.949219 300.109375 257.664062 299.109375 256.375 C 298.679688 255.804688 298.105469 255.234375 297.679688 254.519531 C 297.105469 253.949219 296.679688 253.234375 296.105469 252.660156 C 295.964844 252.519531 295.535156 252.660156 295.679688 252.949219 C 296.390625 254.089844 297.394531 255.234375 298.25 256.234375 C 299.109375 257.375 299.964844 258.378906 300.824219 259.519531 C 301.109375 259.949219 301.394531 260.234375 301.679688 260.664062 C 300.109375 262.378906 298.679688 263.949219 297.105469 265.664062 C 296.535156 266.234375 295.964844 266.949219 295.390625 267.519531 C 295.105469 267.808594 294.820312 268.09375 294.675781 268.523438 C 294.390625 268.808594 294.25 269.09375 294.25 269.378906 C 294.25 269.378906 294.25 269.523438 294.390625 269.523438 C 294.964844 269.378906 295.535156 268.808594 295.820312 268.378906 C 296.390625 267.808594 296.820312 267.234375 297.394531 266.808594 C 298.394531 265.664062 299.535156 264.664062 300.535156 263.519531 C 301.109375 262.804688 301.824219 262.234375 302.394531 261.519531 C 303.679688 263.09375 304.824219 264.664062 306.109375 266.234375 C 306.539062 266.808594 307.109375 267.519531 307.539062 268.09375 C 307.96875 268.664062 308.539062 269.378906 308.96875 269.949219 C 309.253906 270.378906 310.109375 269.949219 309.824219 269.378906 C 309.109375 268.234375 308.109375 267.234375 307.253906 266.09375 C 306.394531 264.949219 305.539062 263.949219 304.679688 262.804688 C 304.109375 262.09375 303.539062 261.519531 303.109375 260.804688 C 304.394531 259.519531 305.539062 258.089844 306.824219 256.804688 C 307.109375 256.234375 307.683594 255.519531 308.253906 254.949219 Z M 308.253906 254.949219 " fill-opacity="1" fill-rule="nonzero"/><path fill="#ffffff" d="M 505.601562 139.5 L 604.777344 139.5 L 604.777344 187.652344 L 588.773438 187.652344 L 588.773438 200.796875 L 572.050781 187.652344 L 505.601562 187.652344 Z M 505.601562 139.5 " fill-opacity="1" fill-rule="nonzero"/><path fill="#000000" d="M 521.75 155.359375 L 578.195312 155.359375 L 578.195312 157.789062 L 521.75 157.789062 Z M 521.75 155.359375 " fill-opacity="1" fill-rule="nonzero"/><path fill="#000000" d="M 513.320312 170.078125 L 578.195312 170.078125 L 578.195312 172.503906 L 513.320312 172.503906 Z M 513.320312 170.078125 " fill-opacity="1" fill-rule="nonzero"/><path fill="#000000" d="M 594.773438 155.214844 C 595.488281 156.074219 595.917969 157.359375 595.917969 158.929688 C 595.917969 160.644531 595.632812 161.789062 595.058594 162.644531 C 594.488281 163.503906 593.628906 164.21875 592.488281 164.933594 L 592.203125 165.074219 L 592.203125 166.933594 L 588.34375 166.933594 L 588.34375 164.074219 C 588.34375 163.503906 588.484375 162.933594 588.628906 162.644531 C 588.773438 162.21875 589.199219 161.933594 589.628906 161.789062 C 590.058594 161.503906 590.488281 161.359375 590.628906 161.21875 C 590.914062 161.074219 591.058594 160.933594 591.203125 160.644531 C 591.34375 160.359375 591.488281 160.074219 591.488281 159.644531 C 591.488281 159.21875 591.34375 158.929688 591.203125 158.644531 C 590.914062 158.359375 590.628906 158.359375 590.199219 158.359375 C 589.773438 158.359375 588.628906 158.644531 586.914062 159.074219 L 586.914062 154.644531 C 588.628906 154.214844 589.914062 154.074219 591.058594 154.074219 C 592.773438 153.929688 594.058594 154.359375 594.773438 155.214844 Z M 587.773438 171.078125 C 587.773438 169.503906 588.628906 168.789062 590.34375 168.789062 C 592.058594 168.789062 592.917969 169.503906 592.917969 171.078125 C 592.917969 171.789062 592.773438 172.363281 592.34375 172.789062 C 591.914062 173.21875 591.34375 173.363281 590.488281 173.363281 C 588.628906 173.363281 587.773438 172.503906 587.773438 171.078125 Z M 587.773438 171.078125 " fill-opacity="1" fill-rule="nonzero"/><path fill="#5296a3" d="M 482.59375 393.972656 L 482.59375 468.984375 L 464.730469 468.984375 L 451.300781 383.113281 C 452.441406 383.828125 453.730469 384.398438 454.871094 384.96875 C 461.730469 388.257812 469.019531 390.542969 476.308594 392.257812 C 478.023438 392.6875 480.164062 393.398438 482.59375 393.972656 Z M 482.59375 393.972656 " fill-opacity="1" fill-rule="nonzero"/><path fill="#000000" d="M 482.59375 363.109375 L 482.59375 393.972656 C 480.164062 393.398438 478.023438 392.6875 476.164062 392.257812 C 468.734375 390.542969 461.589844 388.257812 454.730469 384.96875 C 453.585938 384.398438 452.300781 383.828125 451.15625 383.113281 L 448.011719 363.109375 Z M 482.59375 363.109375 " fill-opacity="1" fill-rule="nonzero"/><path fill="#5296a3" d="M 355.839844 393.972656 L 355.839844 468.984375 L 373.703125 468.984375 L 387.136719 383.113281 C 385.992188 383.828125 384.707031 384.398438 383.5625 384.96875 C 376.703125 388.257812 369.414062 390.542969 362.128906 392.257812 C 360.414062 392.6875 358.125 393.398438 355.839844 393.972656 Z M 355.839844 393.972656 " fill-opacity="1" fill-rule="nonzero"/><path fill="#000000" d="M 355.839844 363.109375 L 355.839844 393.972656 C 358.269531 393.398438 360.414062 392.6875 362.269531 392.257812 C 369.703125 390.542969 376.847656 388.257812 383.707031 384.96875 C 384.847656 384.398438 386.136719 383.828125 387.277344 383.113281 L 390.421875 363.109375 Z M 355.839844 363.109375 " fill-opacity="1" fill-rule="nonzero"/><path fill="#5296a3" d="M 348.265625 343.25 L 490.027344 343.25 L 490.027344 364.109375 L 348.265625 364.109375 Z M 348.265625 343.25 " fill-opacity="1" fill-rule="nonzero"/><path fill="#000000" d="M 478.023438 335.246094 L 473.449219 335.246094 L 473.449219 323.53125 L 481.023438 323.53125 C 482.167969 323.53125 483.167969 323.960938 483.882812 324.816406 C 484.59375 325.675781 484.882812 326.816406 484.738281 327.816406 L 484.308594 329.960938 C 483.738281 332.960938 481.164062 335.246094 478.023438 335.246094 Z M 475.449219 333.246094 L 478.023438 333.246094 C 480.164062 333.246094 482.023438 331.675781 482.308594 329.675781 L 482.738281 327.53125 C 482.878906 326.960938 482.738281 326.53125 482.308594 326.101562 C 482.023438 325.675781 481.453125 325.53125 481.023438 325.53125 L 475.449219 325.53125 Z M 475.449219 333.246094 " fill-opacity="1" fill-rule="nonzero"/><path fill="#ffffff" d="M 449.011719 319.671875 L 476.59375 319.671875 L 476.59375 323.386719 L 449.011719 323.386719 Z M 449.011719 319.671875 " fill-opacity="1" fill-rule="nonzero"/><path fill="#ffffff" d="M 449.011719 328.390625 L 476.59375 328.390625 L 476.59375 331.816406 C 476.59375 338.105469 471.449219 343.105469 465.304688 343.105469 L 460.445312 343.105469 C 454.15625 343.105469 449.15625 337.960938 449.15625 331.816406 L 449.15625 328.390625 Z M 449.011719 328.390625 " fill-opacity="1" fill-rule="nonzero"/><path fill="#000000" d="M 449.011719 323.386719 L 476.59375 323.386719 L 476.59375 328.390625 L 449.011719 328.390625 Z M 449.011719 323.386719 " fill-opacity="1" fill-rule="nonzero"/><path fill="#000000" d="M 362.84375 335.246094 L 358.269531 335.246094 C 355.269531 335.246094 352.554688 333.105469 351.980469 329.960938 L 351.554688 327.816406 C 351.410156 326.675781 351.695312 325.675781 352.410156 324.816406 C 353.125 323.960938 354.125 323.53125 355.269531 323.53125 L 362.84375 323.53125 Z M 355.269531 325.386719 C 354.695312 325.386719 354.269531 325.675781 353.980469 325.960938 C 353.695312 326.386719 353.554688 326.816406 353.554688 327.390625 L 353.980469 329.53125 C 354.410156 331.675781 356.125 333.105469 358.269531 333.105469 L 360.839844 333.105469 L 360.839844 325.386719 Z M 355.269531 325.386719 " fill-opacity="1" fill-rule="nonzero"/><path fill="#ffffff" d="M 359.699219 319.671875 L 387.277344 319.671875 L 387.277344 323.386719 L 359.699219 323.386719 Z M 359.699219 319.671875 " fill-opacity="1" fill-rule="nonzero"/><path fill="#ffffff" d="M 387.277344 328.390625 L 359.699219 328.390625 L 359.699219 331.816406 C 359.699219 338.105469 364.84375 343.105469 370.988281 343.105469 L 375.847656 343.105469 C 382.132812 343.105469 387.136719 337.960938 387.136719 331.816406 L 387.136719 328.390625 Z M 387.277344 328.390625 " fill-opacity="1" fill-rule="nonzero"/><path fill="#000000" d="M 359.699219 323.386719 L 387.277344 323.386719 L 387.277344 328.390625 L 359.699219 328.390625 Z M 359.699219 323.386719 " fill-opacity="1" fill-rule="nonzero"/><path fill="#000000" d="M 361.554688 206.226562 C 361.554688 206.527344 361.5 206.820312 361.382812 207.101562 C 361.265625 207.378906 361.101562 207.628906 360.886719 207.839844 C 360.671875 208.054688 360.425781 208.222656 360.144531 208.335938 C 359.863281 208.453125 359.574219 208.511719 359.269531 208.511719 C 358.964844 208.511719 358.675781 208.453125 358.394531 208.335938 C 358.113281 208.222656 357.867188 208.054688 357.652344 207.839844 C 357.4375 207.628906 357.273438 207.378906 357.15625 207.101562 C 357.042969 206.820312 356.984375 206.527344 356.984375 206.226562 C 356.984375 205.921875 357.042969 205.628906 357.15625 205.351562 C 357.273438 205.070312 357.4375 204.824219 357.652344 204.609375 C 357.867188 204.394531 358.113281 204.230469 358.394531 204.113281 C 358.675781 203.996094 358.964844 203.9375 359.269531 203.9375 C 359.574219 203.9375 359.863281 203.996094 360.144531 204.113281 C 360.425781 204.230469 360.671875 204.394531 360.886719 204.609375 C 361.101562 204.824219 361.265625 205.070312 361.382812 205.351562 C 361.5 205.628906 361.554688 205.921875 361.554688 206.226562 Z M 361.554688 206.226562 " fill-opacity="1" fill-rule="nonzero"/><path fill="#000000" d="M 420.574219 206.226562 C 420.574219 206.527344 420.515625 206.820312 420.402344 207.101562 C 420.285156 207.378906 420.121094 207.628906 419.90625 207.839844 C 419.691406 208.054688 419.445312 208.222656 419.164062 208.335938 C 418.882812 208.453125 418.59375 208.511719 418.289062 208.511719 C 417.984375 208.511719 417.695312 208.453125 417.414062 208.335938 C 417.132812 208.222656 416.886719 208.054688 416.671875 207.839844 C 416.457031 207.628906 416.292969 207.378906 416.175781 207.101562 C 416.058594 206.820312 416.003906 206.527344 416.003906 206.226562 C 416.003906 205.921875 416.058594 205.628906 416.175781 205.351562 C 416.292969 205.070312 416.457031 204.824219 416.671875 204.609375 C 416.886719 204.394531 417.132812 204.230469 417.414062 204.113281 C 417.695312 203.996094 417.984375 203.9375 418.289062 203.9375 C 418.59375 203.9375 418.882812 203.996094 419.164062 204.113281 C 419.445312 204.230469 419.691406 204.394531 419.90625 204.609375 C 420.121094 204.824219 420.285156 205.070312 420.402344 205.351562 C 420.515625 205.628906 420.574219 205.921875 420.574219 206.226562 Z M 420.574219 206.226562 " fill-opacity="1" fill-rule="nonzero"/><path fill="#000000" d="M 450.15625 206.226562 C 450.15625 206.527344 450.097656 206.820312 449.980469 207.101562 C 449.867188 207.378906 449.699219 207.628906 449.484375 207.839844 C 449.273438 208.054688 449.023438 208.222656 448.746094 208.335938 C 448.464844 208.453125 448.171875 208.511719 447.871094 208.511719 C 447.566406 208.511719 447.273438 208.453125 446.996094 208.335938 C 446.714844 208.222656 446.46875 208.054688 446.253906 207.839844 C 446.039062 207.628906 445.875 207.378906 445.757812 207.101562 C 445.640625 206.820312 445.582031 206.527344 445.582031 206.226562 C 445.582031 205.921875 445.640625 205.628906 445.757812 205.351562 C 445.875 205.070312 446.039062 204.824219 446.253906 204.609375 C 446.46875 204.394531 446.714844 204.230469 446.996094 204.113281 C 447.273438 203.996094 447.566406 203.9375 447.871094 203.9375 C 448.171875 203.9375 448.464844 203.996094 448.746094 204.113281 C 449.023438 204.230469 449.273438 204.394531 449.484375 204.609375 C 449.699219 204.824219 449.867188 205.070312 449.980469 205.351562 C 450.097656 205.628906 450.15625 205.921875 450.15625 206.226562 Z M 450.15625 206.226562 " fill-opacity="1" fill-rule="nonzero"/><path fill="#000000" d="M 390.421875 206.226562 C 390.421875 206.527344 390.363281 206.820312 390.25 207.101562 C 390.132812 207.378906 389.96875 207.628906 389.753906 207.839844 C 389.539062 208.054688 389.292969 208.222656 389.011719 208.335938 C 388.730469 208.453125 388.4375 208.511719 388.136719 208.511719 C 387.832031 208.511719 387.542969 208.453125 387.261719 208.335938 C 386.980469 208.222656 386.734375 208.054688 386.519531 207.839844 C 386.304688 207.628906 386.140625 207.378906 386.023438 207.101562 C 385.90625 206.820312 385.851562 206.527344 385.851562 206.226562 C 385.851562 205.921875 385.90625 205.628906 386.023438 205.351562 C 386.140625 205.070312 386.304688 204.824219 386.519531 204.609375 C 386.734375 204.394531 386.980469 204.230469 387.261719 204.113281 C 387.542969 203.996094 387.832031 203.9375 388.136719 203.9375 C 388.4375 203.9375 388.730469 203.996094 389.011719 204.113281 C 389.292969 204.230469 389.539062 204.394531 389.753906 204.609375 C 389.96875 204.824219 390.132812 205.070312 390.25 205.351562 C 390.363281 205.628906 390.421875 205.921875 390.421875 206.226562 Z M 390.421875 206.226562 " fill-opacity="1" fill-rule="nonzero"/></svg>